%FSLAX45Y45*%
G04 Gerber Fmt 4.5, Leading zero omitted, Abs format (unit mm)*
G04 Created by KiCad (PCBNEW (5.1.9)-1) date 2022-05-29 14:43:06*
%MOMM*%
%LPD*%
G01*
G04 APERTURE LIST*
%TA.AperFunction,Profile*%
%ADD10C,0.050000*%
%TD*%
%ADD11C,0.200000*%
%ADD12C,0.300000*%
G04 APERTURE END LIST*
D10*
X11176000Y-12573000D02*
X11176000Y-7112000D01*
X18288000Y-12573000D02*
X11176000Y-12573000D01*
X18288000Y-7112000D02*
X18288000Y-12573000D01*
X11176000Y-7112000D02*
X18288000Y-7112000D01*
D11*
X12787000Y-9231000D02*
X12867000Y-9311000D01*
X12867000Y-9231000D02*
X12787000Y-9311000D01*
X12787000Y-9866000D02*
X12867000Y-9946000D01*
X12867000Y-9866000D02*
X12787000Y-9946000D01*
X12787000Y-11898000D02*
X12867000Y-11978000D01*
X12867000Y-11898000D02*
X12787000Y-11978000D01*
X13172000Y-10501000D02*
X13252000Y-10581000D01*
X13252000Y-10501000D02*
X13172000Y-10581000D01*
X13172000Y-11136000D02*
X13252000Y-11216000D01*
X13252000Y-11136000D02*
X13172000Y-11216000D01*
X13422000Y-10501000D02*
X13502000Y-10581000D01*
X13502000Y-10501000D02*
X13422000Y-10581000D01*
X13422000Y-11136000D02*
X13502000Y-11216000D01*
X13502000Y-11136000D02*
X13422000Y-11216000D01*
X13803000Y-9231000D02*
X13883000Y-9311000D01*
X13883000Y-9231000D02*
X13803000Y-9311000D01*
X13803000Y-9866000D02*
X13883000Y-9946000D01*
X13883000Y-9866000D02*
X13803000Y-9946000D01*
X13803000Y-11898000D02*
X13883000Y-11978000D01*
X13883000Y-11898000D02*
X13803000Y-11978000D01*
X14819000Y-9866000D02*
X14899000Y-9946000D01*
X14899000Y-9866000D02*
X14819000Y-9946000D01*
X14819000Y-10120000D02*
X14899000Y-10200000D01*
X14899000Y-10120000D02*
X14819000Y-10200000D01*
X14819000Y-10374000D02*
X14899000Y-10454000D01*
X14899000Y-10374000D02*
X14819000Y-10454000D01*
X14819000Y-10628000D02*
X14899000Y-10708000D01*
X14899000Y-10628000D02*
X14819000Y-10708000D01*
X15581000Y-9866000D02*
X15661000Y-9946000D01*
X15661000Y-9866000D02*
X15581000Y-9946000D01*
X15581000Y-10120000D02*
X15661000Y-10200000D01*
X15661000Y-10120000D02*
X15581000Y-10200000D01*
X15581000Y-10374000D02*
X15661000Y-10454000D01*
X15661000Y-10374000D02*
X15581000Y-10454000D01*
X15581000Y-10628000D02*
X15661000Y-10708000D01*
X15661000Y-10628000D02*
X15581000Y-10708000D01*
X16368400Y-9993000D02*
X16448400Y-10073000D01*
X16448400Y-9993000D02*
X16368400Y-10073000D01*
X16470000Y-8723000D02*
X16550000Y-8803000D01*
X16550000Y-8723000D02*
X16470000Y-8803000D01*
X16470000Y-9307200D02*
X16550000Y-9387200D01*
X16550000Y-9307200D02*
X16470000Y-9387200D01*
X17232000Y-8723000D02*
X17312000Y-8803000D01*
X17312000Y-8723000D02*
X17232000Y-8803000D01*
X17232000Y-9307200D02*
X17312000Y-9387200D01*
X17312000Y-9307200D02*
X17232000Y-9387200D01*
X17384400Y-9993000D02*
X17464400Y-10073000D01*
X17464400Y-9993000D02*
X17384400Y-10073000D01*
X13507000Y-7823200D02*
G75*
G03*
X13507000Y-7823200I-45000J0D01*
G01*
X13507000Y-8077200D02*
G75*
G03*
X13507000Y-8077200I-45000J0D01*
G01*
X16637000Y-10613000D02*
X16637000Y-10723000D01*
X16582000Y-10668000D02*
X16692000Y-10668000D01*
X16637000Y-11629000D02*
X16637000Y-11739000D01*
X16582000Y-11684000D02*
X16692000Y-11684000D01*
X14666962Y-7919962D02*
X14666962Y-7828038D01*
X14575038Y-7828038D01*
X14575038Y-7919962D01*
X14666962Y-7919962D01*
X15166962Y-7919962D02*
X15166962Y-7828038D01*
X15075038Y-7828038D01*
X15075038Y-7919962D01*
X15166962Y-7919962D01*
X15666962Y-7919962D02*
X15666962Y-7828038D01*
X15575038Y-7828038D01*
X15575038Y-7919962D01*
X15666962Y-7919962D01*
X11938000Y-11499000D02*
X12007000Y-11430000D01*
X11938000Y-11361000D01*
X11869000Y-11430000D01*
X11938000Y-11499000D01*
X11938000Y-11753000D02*
X12007000Y-11684000D01*
X11938000Y-11615000D01*
X11869000Y-11684000D01*
X11938000Y-11753000D01*
X11938000Y-12007000D02*
X12007000Y-11938000D01*
X11938000Y-11869000D01*
X11869000Y-11938000D01*
X11938000Y-12007000D01*
X11862000Y-9449000D02*
X12014000Y-9601000D01*
X12014000Y-9449000D02*
X11862000Y-9601000D01*
X12014000Y-9525000D02*
G75*
G03*
X12014000Y-9525000I-76000J0D01*
G01*
X11862000Y-9957000D02*
X12014000Y-10109000D01*
X12014000Y-9957000D02*
X11862000Y-10109000D01*
X12014000Y-10033000D02*
G75*
G03*
X12014000Y-10033000I-76000J0D01*
G01*
X17450000Y-10846000D02*
X17602000Y-10998000D01*
X17602000Y-10846000D02*
X17450000Y-10998000D01*
X17602000Y-10922000D02*
G75*
G03*
X17602000Y-10922000I-76000J0D01*
G01*
X17450000Y-11354000D02*
X17602000Y-11506000D01*
X17602000Y-11354000D02*
X17450000Y-11506000D01*
X17602000Y-11430000D02*
G75*
G03*
X17602000Y-11430000I-76000J0D01*
G01*
X11629500Y-7781500D02*
X11814500Y-7966500D01*
X11814500Y-7781500D02*
X11629500Y-7966500D01*
X11722000Y-7781500D02*
X11722000Y-7966500D01*
X11629500Y-7874000D02*
X11814500Y-7874000D01*
X12099500Y-7781500D02*
X12284500Y-7966500D01*
X12284500Y-7781500D02*
X12099500Y-7966500D01*
X12192000Y-7781500D02*
X12192000Y-7966500D01*
X12099500Y-7874000D02*
X12284500Y-7874000D01*
X12569500Y-7781500D02*
X12754500Y-7966500D01*
X12754500Y-7781500D02*
X12569500Y-7966500D01*
X12662000Y-7781500D02*
X12662000Y-7966500D01*
X12569500Y-7874000D02*
X12754500Y-7874000D01*
D12*
X11459928Y-13041214D02*
X11459928Y-12741214D01*
X11531357Y-12741214D01*
X11574214Y-12755500D01*
X11602786Y-12784071D01*
X11617071Y-12812643D01*
X11631357Y-12869786D01*
X11631357Y-12912643D01*
X11617071Y-12969786D01*
X11602786Y-12998357D01*
X11574214Y-13026929D01*
X11531357Y-13041214D01*
X11459928Y-13041214D01*
X11759928Y-13041214D02*
X11759928Y-12841214D01*
X11759928Y-12898357D02*
X11774214Y-12869786D01*
X11788500Y-12855500D01*
X11817071Y-12841214D01*
X11845643Y-12841214D01*
X11945643Y-13041214D02*
X11945643Y-12841214D01*
X11945643Y-12741214D02*
X11931357Y-12755500D01*
X11945643Y-12769786D01*
X11959928Y-12755500D01*
X11945643Y-12741214D01*
X11945643Y-12769786D01*
X12131357Y-13041214D02*
X12102786Y-13026929D01*
X12088500Y-12998357D01*
X12088500Y-12741214D01*
X12288500Y-13041214D02*
X12259928Y-13026929D01*
X12245643Y-12998357D01*
X12245643Y-12741214D01*
X12631357Y-13041214D02*
X12631357Y-12741214D01*
X12731357Y-12955500D01*
X12831357Y-12741214D01*
X12831357Y-13041214D01*
X13102786Y-13041214D02*
X13102786Y-12884071D01*
X13088500Y-12855500D01*
X13059928Y-12841214D01*
X13002786Y-12841214D01*
X12974214Y-12855500D01*
X13102786Y-13026929D02*
X13074214Y-13041214D01*
X13002786Y-13041214D01*
X12974214Y-13026929D01*
X12959928Y-12998357D01*
X12959928Y-12969786D01*
X12974214Y-12941214D01*
X13002786Y-12926929D01*
X13074214Y-12926929D01*
X13102786Y-12912643D01*
X13245643Y-12841214D02*
X13245643Y-13141214D01*
X13245643Y-12855500D02*
X13274214Y-12841214D01*
X13331357Y-12841214D01*
X13359928Y-12855500D01*
X13374214Y-12869786D01*
X13388500Y-12898357D01*
X13388500Y-12984071D01*
X13374214Y-13012643D01*
X13359928Y-13026929D01*
X13331357Y-13041214D01*
X13274214Y-13041214D01*
X13245643Y-13026929D01*
X13517071Y-13012643D02*
X13531357Y-13026929D01*
X13517071Y-13041214D01*
X13502786Y-13026929D01*
X13517071Y-13012643D01*
X13517071Y-13041214D01*
X13517071Y-12855500D02*
X13531357Y-12869786D01*
X13517071Y-12884071D01*
X13502786Y-12869786D01*
X13517071Y-12855500D01*
X13517071Y-12884071D01*
X11093500Y-13495500D02*
X11173500Y-13575500D01*
X11173500Y-13495500D02*
X11093500Y-13575500D01*
X11517071Y-13371214D02*
X11545643Y-13371214D01*
X11574214Y-13385500D01*
X11588500Y-13399786D01*
X11602786Y-13428357D01*
X11617071Y-13485500D01*
X11617071Y-13556929D01*
X11602786Y-13614071D01*
X11588500Y-13642643D01*
X11574214Y-13656929D01*
X11545643Y-13671214D01*
X11517071Y-13671214D01*
X11488500Y-13656929D01*
X11474214Y-13642643D01*
X11459928Y-13614071D01*
X11445643Y-13556929D01*
X11445643Y-13485500D01*
X11459928Y-13428357D01*
X11474214Y-13399786D01*
X11488500Y-13385500D01*
X11517071Y-13371214D01*
X11745643Y-13642643D02*
X11759928Y-13656929D01*
X11745643Y-13671214D01*
X11731357Y-13656929D01*
X11745643Y-13642643D01*
X11745643Y-13671214D01*
X11931357Y-13499786D02*
X11902786Y-13485500D01*
X11888500Y-13471214D01*
X11874214Y-13442643D01*
X11874214Y-13428357D01*
X11888500Y-13399786D01*
X11902786Y-13385500D01*
X11931357Y-13371214D01*
X11988500Y-13371214D01*
X12017071Y-13385500D01*
X12031357Y-13399786D01*
X12045643Y-13428357D01*
X12045643Y-13442643D01*
X12031357Y-13471214D01*
X12017071Y-13485500D01*
X11988500Y-13499786D01*
X11931357Y-13499786D01*
X11902786Y-13514071D01*
X11888500Y-13528357D01*
X11874214Y-13556929D01*
X11874214Y-13614071D01*
X11888500Y-13642643D01*
X11902786Y-13656929D01*
X11931357Y-13671214D01*
X11988500Y-13671214D01*
X12017071Y-13656929D01*
X12031357Y-13642643D01*
X12045643Y-13614071D01*
X12045643Y-13556929D01*
X12031357Y-13528357D01*
X12017071Y-13514071D01*
X11988500Y-13499786D01*
X12231357Y-13371214D02*
X12259928Y-13371214D01*
X12288500Y-13385500D01*
X12302786Y-13399786D01*
X12317071Y-13428357D01*
X12331357Y-13485500D01*
X12331357Y-13556929D01*
X12317071Y-13614071D01*
X12302786Y-13642643D01*
X12288500Y-13656929D01*
X12259928Y-13671214D01*
X12231357Y-13671214D01*
X12202786Y-13656929D01*
X12188500Y-13642643D01*
X12174214Y-13614071D01*
X12159928Y-13556929D01*
X12159928Y-13485500D01*
X12174214Y-13428357D01*
X12188500Y-13399786D01*
X12202786Y-13385500D01*
X12231357Y-13371214D01*
X12459928Y-13671214D02*
X12459928Y-13471214D01*
X12459928Y-13499786D02*
X12474214Y-13485500D01*
X12502786Y-13471214D01*
X12545643Y-13471214D01*
X12574214Y-13485500D01*
X12588500Y-13514071D01*
X12588500Y-13671214D01*
X12588500Y-13514071D02*
X12602786Y-13485500D01*
X12631357Y-13471214D01*
X12674214Y-13471214D01*
X12702786Y-13485500D01*
X12717071Y-13514071D01*
X12717071Y-13671214D01*
X12859928Y-13671214D02*
X12859928Y-13471214D01*
X12859928Y-13499786D02*
X12874214Y-13485500D01*
X12902786Y-13471214D01*
X12945643Y-13471214D01*
X12974214Y-13485500D01*
X12988500Y-13514071D01*
X12988500Y-13671214D01*
X12988500Y-13514071D02*
X13002786Y-13485500D01*
X13031357Y-13471214D01*
X13074214Y-13471214D01*
X13102786Y-13485500D01*
X13117071Y-13514071D01*
X13117071Y-13671214D01*
X13702786Y-13356929D02*
X13445643Y-13742643D01*
X14088500Y-13371214D02*
X14117071Y-13371214D01*
X14145643Y-13385500D01*
X14159928Y-13399786D01*
X14174214Y-13428357D01*
X14188500Y-13485500D01*
X14188500Y-13556929D01*
X14174214Y-13614071D01*
X14159928Y-13642643D01*
X14145643Y-13656929D01*
X14117071Y-13671214D01*
X14088500Y-13671214D01*
X14059928Y-13656929D01*
X14045643Y-13642643D01*
X14031357Y-13614071D01*
X14017071Y-13556929D01*
X14017071Y-13485500D01*
X14031357Y-13428357D01*
X14045643Y-13399786D01*
X14059928Y-13385500D01*
X14088500Y-13371214D01*
X14317071Y-13642643D02*
X14331357Y-13656929D01*
X14317071Y-13671214D01*
X14302786Y-13656929D01*
X14317071Y-13642643D01*
X14317071Y-13671214D01*
X14517071Y-13371214D02*
X14545643Y-13371214D01*
X14574214Y-13385500D01*
X14588500Y-13399786D01*
X14602786Y-13428357D01*
X14617071Y-13485500D01*
X14617071Y-13556929D01*
X14602786Y-13614071D01*
X14588500Y-13642643D01*
X14574214Y-13656929D01*
X14545643Y-13671214D01*
X14517071Y-13671214D01*
X14488500Y-13656929D01*
X14474214Y-13642643D01*
X14459928Y-13614071D01*
X14445643Y-13556929D01*
X14445643Y-13485500D01*
X14459928Y-13428357D01*
X14474214Y-13399786D01*
X14488500Y-13385500D01*
X14517071Y-13371214D01*
X14717071Y-13371214D02*
X14902786Y-13371214D01*
X14802786Y-13485500D01*
X14845643Y-13485500D01*
X14874214Y-13499786D01*
X14888500Y-13514071D01*
X14902786Y-13542643D01*
X14902786Y-13614071D01*
X14888500Y-13642643D01*
X14874214Y-13656929D01*
X14845643Y-13671214D01*
X14759928Y-13671214D01*
X14731357Y-13656929D01*
X14717071Y-13642643D01*
X15188500Y-13671214D02*
X15017071Y-13671214D01*
X15102786Y-13671214D02*
X15102786Y-13371214D01*
X15074214Y-13414071D01*
X15045643Y-13442643D01*
X15017071Y-13456929D01*
X15302786Y-13371214D02*
X15302786Y-13428357D01*
X15417071Y-13371214D02*
X15417071Y-13428357D01*
X15859928Y-13785500D02*
X15845643Y-13771214D01*
X15817071Y-13728357D01*
X15802786Y-13699786D01*
X15788500Y-13656929D01*
X15774214Y-13585500D01*
X15774214Y-13528357D01*
X15788500Y-13456929D01*
X15802786Y-13414071D01*
X15817071Y-13385500D01*
X15845643Y-13342643D01*
X15859928Y-13328357D01*
X15959928Y-13399786D02*
X15974214Y-13385500D01*
X16002786Y-13371214D01*
X16074214Y-13371214D01*
X16102786Y-13385500D01*
X16117071Y-13399786D01*
X16131357Y-13428357D01*
X16131357Y-13456929D01*
X16117071Y-13499786D01*
X15945643Y-13671214D01*
X16131357Y-13671214D01*
X16388500Y-13471214D02*
X16388500Y-13671214D01*
X16317071Y-13356929D02*
X16245643Y-13571214D01*
X16431357Y-13571214D01*
X16774214Y-13671214D02*
X16774214Y-13371214D01*
X16902786Y-13671214D02*
X16902786Y-13514071D01*
X16888500Y-13485500D01*
X16859928Y-13471214D01*
X16817071Y-13471214D01*
X16788500Y-13485500D01*
X16774214Y-13499786D01*
X17088500Y-13671214D02*
X17059928Y-13656929D01*
X17045643Y-13642643D01*
X17031357Y-13614071D01*
X17031357Y-13528357D01*
X17045643Y-13499786D01*
X17059928Y-13485500D01*
X17088500Y-13471214D01*
X17131357Y-13471214D01*
X17159928Y-13485500D01*
X17174214Y-13499786D01*
X17188500Y-13528357D01*
X17188500Y-13614071D01*
X17174214Y-13642643D01*
X17159928Y-13656929D01*
X17131357Y-13671214D01*
X17088500Y-13671214D01*
X17359928Y-13671214D02*
X17331357Y-13656929D01*
X17317071Y-13628357D01*
X17317071Y-13371214D01*
X17588500Y-13656929D02*
X17559928Y-13671214D01*
X17502786Y-13671214D01*
X17474214Y-13656929D01*
X17459928Y-13628357D01*
X17459928Y-13514071D01*
X17474214Y-13485500D01*
X17502786Y-13471214D01*
X17559928Y-13471214D01*
X17588500Y-13485500D01*
X17602786Y-13514071D01*
X17602786Y-13542643D01*
X17459928Y-13571214D01*
X17717071Y-13656929D02*
X17745643Y-13671214D01*
X17802786Y-13671214D01*
X17831357Y-13656929D01*
X17845643Y-13628357D01*
X17845643Y-13614071D01*
X17831357Y-13585500D01*
X17802786Y-13571214D01*
X17759928Y-13571214D01*
X17731357Y-13556929D01*
X17717071Y-13528357D01*
X17717071Y-13514071D01*
X17731357Y-13485500D01*
X17759928Y-13471214D01*
X17802786Y-13471214D01*
X17831357Y-13485500D01*
X17945643Y-13785500D02*
X17959928Y-13771214D01*
X17988500Y-13728357D01*
X18002786Y-13699786D01*
X18017071Y-13656929D01*
X18031357Y-13585500D01*
X18031357Y-13528357D01*
X18017071Y-13456929D01*
X18002786Y-13414071D01*
X17988500Y-13385500D01*
X17959928Y-13342643D01*
X17945643Y-13328357D01*
X11173500Y-13931500D02*
G75*
G03*
X11173500Y-13931500I-45000J0D01*
G01*
X11517071Y-13767214D02*
X11545643Y-13767214D01*
X11574214Y-13781500D01*
X11588500Y-13795786D01*
X11602786Y-13824357D01*
X11617071Y-13881500D01*
X11617071Y-13952929D01*
X11602786Y-14010071D01*
X11588500Y-14038643D01*
X11574214Y-14052929D01*
X11545643Y-14067214D01*
X11517071Y-14067214D01*
X11488500Y-14052929D01*
X11474214Y-14038643D01*
X11459928Y-14010071D01*
X11445643Y-13952929D01*
X11445643Y-13881500D01*
X11459928Y-13824357D01*
X11474214Y-13795786D01*
X11488500Y-13781500D01*
X11517071Y-13767214D01*
X11745643Y-14038643D02*
X11759928Y-14052929D01*
X11745643Y-14067214D01*
X11731357Y-14052929D01*
X11745643Y-14038643D01*
X11745643Y-14067214D01*
X11902786Y-14067214D02*
X11959928Y-14067214D01*
X11988500Y-14052929D01*
X12002786Y-14038643D01*
X12031357Y-13995786D01*
X12045643Y-13938643D01*
X12045643Y-13824357D01*
X12031357Y-13795786D01*
X12017071Y-13781500D01*
X11988500Y-13767214D01*
X11931357Y-13767214D01*
X11902786Y-13781500D01*
X11888500Y-13795786D01*
X11874214Y-13824357D01*
X11874214Y-13895786D01*
X11888500Y-13924357D01*
X11902786Y-13938643D01*
X11931357Y-13952929D01*
X11988500Y-13952929D01*
X12017071Y-13938643D01*
X12031357Y-13924357D01*
X12045643Y-13895786D01*
X12231357Y-13767214D02*
X12259928Y-13767214D01*
X12288500Y-13781500D01*
X12302786Y-13795786D01*
X12317071Y-13824357D01*
X12331357Y-13881500D01*
X12331357Y-13952929D01*
X12317071Y-14010071D01*
X12302786Y-14038643D01*
X12288500Y-14052929D01*
X12259928Y-14067214D01*
X12231357Y-14067214D01*
X12202786Y-14052929D01*
X12188500Y-14038643D01*
X12174214Y-14010071D01*
X12159928Y-13952929D01*
X12159928Y-13881500D01*
X12174214Y-13824357D01*
X12188500Y-13795786D01*
X12202786Y-13781500D01*
X12231357Y-13767214D01*
X12459928Y-14067214D02*
X12459928Y-13867214D01*
X12459928Y-13895786D02*
X12474214Y-13881500D01*
X12502786Y-13867214D01*
X12545643Y-13867214D01*
X12574214Y-13881500D01*
X12588500Y-13910071D01*
X12588500Y-14067214D01*
X12588500Y-13910071D02*
X12602786Y-13881500D01*
X12631357Y-13867214D01*
X12674214Y-13867214D01*
X12702786Y-13881500D01*
X12717071Y-13910071D01*
X12717071Y-14067214D01*
X12859928Y-14067214D02*
X12859928Y-13867214D01*
X12859928Y-13895786D02*
X12874214Y-13881500D01*
X12902786Y-13867214D01*
X12945643Y-13867214D01*
X12974214Y-13881500D01*
X12988500Y-13910071D01*
X12988500Y-14067214D01*
X12988500Y-13910071D02*
X13002786Y-13881500D01*
X13031357Y-13867214D01*
X13074214Y-13867214D01*
X13102786Y-13881500D01*
X13117071Y-13910071D01*
X13117071Y-14067214D01*
X13702786Y-13752929D02*
X13445643Y-14138643D01*
X14088500Y-13767214D02*
X14117071Y-13767214D01*
X14145643Y-13781500D01*
X14159928Y-13795786D01*
X14174214Y-13824357D01*
X14188500Y-13881500D01*
X14188500Y-13952929D01*
X14174214Y-14010071D01*
X14159928Y-14038643D01*
X14145643Y-14052929D01*
X14117071Y-14067214D01*
X14088500Y-14067214D01*
X14059928Y-14052929D01*
X14045643Y-14038643D01*
X14031357Y-14010071D01*
X14017071Y-13952929D01*
X14017071Y-13881500D01*
X14031357Y-13824357D01*
X14045643Y-13795786D01*
X14059928Y-13781500D01*
X14088500Y-13767214D01*
X14317071Y-14038643D02*
X14331357Y-14052929D01*
X14317071Y-14067214D01*
X14302786Y-14052929D01*
X14317071Y-14038643D01*
X14317071Y-14067214D01*
X14517071Y-13767214D02*
X14545643Y-13767214D01*
X14574214Y-13781500D01*
X14588500Y-13795786D01*
X14602786Y-13824357D01*
X14617071Y-13881500D01*
X14617071Y-13952929D01*
X14602786Y-14010071D01*
X14588500Y-14038643D01*
X14574214Y-14052929D01*
X14545643Y-14067214D01*
X14517071Y-14067214D01*
X14488500Y-14052929D01*
X14474214Y-14038643D01*
X14459928Y-14010071D01*
X14445643Y-13952929D01*
X14445643Y-13881500D01*
X14459928Y-13824357D01*
X14474214Y-13795786D01*
X14488500Y-13781500D01*
X14517071Y-13767214D01*
X14717071Y-13767214D02*
X14902786Y-13767214D01*
X14802786Y-13881500D01*
X14845643Y-13881500D01*
X14874214Y-13895786D01*
X14888500Y-13910071D01*
X14902786Y-13938643D01*
X14902786Y-14010071D01*
X14888500Y-14038643D01*
X14874214Y-14052929D01*
X14845643Y-14067214D01*
X14759928Y-14067214D01*
X14731357Y-14052929D01*
X14717071Y-14038643D01*
X15174214Y-13767214D02*
X15031357Y-13767214D01*
X15017071Y-13910071D01*
X15031357Y-13895786D01*
X15059928Y-13881500D01*
X15131357Y-13881500D01*
X15159928Y-13895786D01*
X15174214Y-13910071D01*
X15188500Y-13938643D01*
X15188500Y-14010071D01*
X15174214Y-14038643D01*
X15159928Y-14052929D01*
X15131357Y-14067214D01*
X15059928Y-14067214D01*
X15031357Y-14052929D01*
X15017071Y-14038643D01*
X15302786Y-13767214D02*
X15302786Y-13824357D01*
X15417071Y-13767214D02*
X15417071Y-13824357D01*
X15859928Y-14181500D02*
X15845643Y-14167214D01*
X15817071Y-14124357D01*
X15802786Y-14095786D01*
X15788500Y-14052929D01*
X15774214Y-13981500D01*
X15774214Y-13924357D01*
X15788500Y-13852929D01*
X15802786Y-13810071D01*
X15817071Y-13781500D01*
X15845643Y-13738643D01*
X15859928Y-13724357D01*
X15959928Y-13795786D02*
X15974214Y-13781500D01*
X16002786Y-13767214D01*
X16074214Y-13767214D01*
X16102786Y-13781500D01*
X16117071Y-13795786D01*
X16131357Y-13824357D01*
X16131357Y-13852929D01*
X16117071Y-13895786D01*
X15945643Y-14067214D01*
X16131357Y-14067214D01*
X16488500Y-14067214D02*
X16488500Y-13767214D01*
X16617071Y-14067214D02*
X16617071Y-13910071D01*
X16602786Y-13881500D01*
X16574214Y-13867214D01*
X16531357Y-13867214D01*
X16502786Y-13881500D01*
X16488500Y-13895786D01*
X16802786Y-14067214D02*
X16774214Y-14052929D01*
X16759928Y-14038643D01*
X16745643Y-14010071D01*
X16745643Y-13924357D01*
X16759928Y-13895786D01*
X16774214Y-13881500D01*
X16802786Y-13867214D01*
X16845643Y-13867214D01*
X16874214Y-13881500D01*
X16888500Y-13895786D01*
X16902786Y-13924357D01*
X16902786Y-14010071D01*
X16888500Y-14038643D01*
X16874214Y-14052929D01*
X16845643Y-14067214D01*
X16802786Y-14067214D01*
X17074214Y-14067214D02*
X17045643Y-14052929D01*
X17031357Y-14024357D01*
X17031357Y-13767214D01*
X17302786Y-14052929D02*
X17274214Y-14067214D01*
X17217071Y-14067214D01*
X17188500Y-14052929D01*
X17174214Y-14024357D01*
X17174214Y-13910071D01*
X17188500Y-13881500D01*
X17217071Y-13867214D01*
X17274214Y-13867214D01*
X17302786Y-13881500D01*
X17317071Y-13910071D01*
X17317071Y-13938643D01*
X17174214Y-13967214D01*
X17431357Y-14052929D02*
X17459928Y-14067214D01*
X17517071Y-14067214D01*
X17545643Y-14052929D01*
X17559928Y-14024357D01*
X17559928Y-14010071D01*
X17545643Y-13981500D01*
X17517071Y-13967214D01*
X17474214Y-13967214D01*
X17445643Y-13952929D01*
X17431357Y-13924357D01*
X17431357Y-13910071D01*
X17445643Y-13881500D01*
X17474214Y-13867214D01*
X17517071Y-13867214D01*
X17545643Y-13881500D01*
X17659928Y-14181500D02*
X17674214Y-14167214D01*
X17702786Y-14124357D01*
X17717071Y-14095786D01*
X17731357Y-14052929D01*
X17745643Y-13981500D01*
X17745643Y-13924357D01*
X17731357Y-13852929D01*
X17717071Y-13810071D01*
X17702786Y-13781500D01*
X17674214Y-13738643D01*
X17659928Y-13724357D01*
X11118500Y-14272500D02*
X11118500Y-14382500D01*
X11063500Y-14327500D02*
X11173500Y-14327500D01*
X11617071Y-14463214D02*
X11445643Y-14463214D01*
X11531357Y-14463214D02*
X11531357Y-14163214D01*
X11502786Y-14206071D01*
X11474214Y-14234643D01*
X11445643Y-14248929D01*
X11745643Y-14434643D02*
X11759928Y-14448929D01*
X11745643Y-14463214D01*
X11731357Y-14448929D01*
X11745643Y-14434643D01*
X11745643Y-14463214D01*
X12045643Y-14463214D02*
X11874214Y-14463214D01*
X11959928Y-14463214D02*
X11959928Y-14163214D01*
X11931357Y-14206071D01*
X11902786Y-14234643D01*
X11874214Y-14248929D01*
X12231357Y-14163214D02*
X12259928Y-14163214D01*
X12288500Y-14177500D01*
X12302786Y-14191786D01*
X12317071Y-14220357D01*
X12331357Y-14277500D01*
X12331357Y-14348929D01*
X12317071Y-14406071D01*
X12302786Y-14434643D01*
X12288500Y-14448929D01*
X12259928Y-14463214D01*
X12231357Y-14463214D01*
X12202786Y-14448929D01*
X12188500Y-14434643D01*
X12174214Y-14406071D01*
X12159928Y-14348929D01*
X12159928Y-14277500D01*
X12174214Y-14220357D01*
X12188500Y-14191786D01*
X12202786Y-14177500D01*
X12231357Y-14163214D01*
X12459928Y-14463214D02*
X12459928Y-14263214D01*
X12459928Y-14291786D02*
X12474214Y-14277500D01*
X12502786Y-14263214D01*
X12545643Y-14263214D01*
X12574214Y-14277500D01*
X12588500Y-14306071D01*
X12588500Y-14463214D01*
X12588500Y-14306071D02*
X12602786Y-14277500D01*
X12631357Y-14263214D01*
X12674214Y-14263214D01*
X12702786Y-14277500D01*
X12717071Y-14306071D01*
X12717071Y-14463214D01*
X12859928Y-14463214D02*
X12859928Y-14263214D01*
X12859928Y-14291786D02*
X12874214Y-14277500D01*
X12902786Y-14263214D01*
X12945643Y-14263214D01*
X12974214Y-14277500D01*
X12988500Y-14306071D01*
X12988500Y-14463214D01*
X12988500Y-14306071D02*
X13002786Y-14277500D01*
X13031357Y-14263214D01*
X13074214Y-14263214D01*
X13102786Y-14277500D01*
X13117071Y-14306071D01*
X13117071Y-14463214D01*
X13702786Y-14148929D02*
X13445643Y-14534643D01*
X14088500Y-14163214D02*
X14117071Y-14163214D01*
X14145643Y-14177500D01*
X14159928Y-14191786D01*
X14174214Y-14220357D01*
X14188500Y-14277500D01*
X14188500Y-14348929D01*
X14174214Y-14406071D01*
X14159928Y-14434643D01*
X14145643Y-14448929D01*
X14117071Y-14463214D01*
X14088500Y-14463214D01*
X14059928Y-14448929D01*
X14045643Y-14434643D01*
X14031357Y-14406071D01*
X14017071Y-14348929D01*
X14017071Y-14277500D01*
X14031357Y-14220357D01*
X14045643Y-14191786D01*
X14059928Y-14177500D01*
X14088500Y-14163214D01*
X14317071Y-14434643D02*
X14331357Y-14448929D01*
X14317071Y-14463214D01*
X14302786Y-14448929D01*
X14317071Y-14434643D01*
X14317071Y-14463214D01*
X14517071Y-14163214D02*
X14545643Y-14163214D01*
X14574214Y-14177500D01*
X14588500Y-14191786D01*
X14602786Y-14220357D01*
X14617071Y-14277500D01*
X14617071Y-14348929D01*
X14602786Y-14406071D01*
X14588500Y-14434643D01*
X14574214Y-14448929D01*
X14545643Y-14463214D01*
X14517071Y-14463214D01*
X14488500Y-14448929D01*
X14474214Y-14434643D01*
X14459928Y-14406071D01*
X14445643Y-14348929D01*
X14445643Y-14277500D01*
X14459928Y-14220357D01*
X14474214Y-14191786D01*
X14488500Y-14177500D01*
X14517071Y-14163214D01*
X14874214Y-14263214D02*
X14874214Y-14463214D01*
X14802786Y-14148929D02*
X14731357Y-14363214D01*
X14917071Y-14363214D01*
X15002786Y-14163214D02*
X15188500Y-14163214D01*
X15088500Y-14277500D01*
X15131357Y-14277500D01*
X15159928Y-14291786D01*
X15174214Y-14306071D01*
X15188500Y-14334643D01*
X15188500Y-14406071D01*
X15174214Y-14434643D01*
X15159928Y-14448929D01*
X15131357Y-14463214D01*
X15045643Y-14463214D01*
X15017071Y-14448929D01*
X15002786Y-14434643D01*
X15302786Y-14163214D02*
X15302786Y-14220357D01*
X15417071Y-14163214D02*
X15417071Y-14220357D01*
X15859928Y-14577500D02*
X15845643Y-14563214D01*
X15817071Y-14520357D01*
X15802786Y-14491786D01*
X15788500Y-14448929D01*
X15774214Y-14377500D01*
X15774214Y-14320357D01*
X15788500Y-14248929D01*
X15802786Y-14206071D01*
X15817071Y-14177500D01*
X15845643Y-14134643D01*
X15859928Y-14120357D01*
X15959928Y-14191786D02*
X15974214Y-14177500D01*
X16002786Y-14163214D01*
X16074214Y-14163214D01*
X16102786Y-14177500D01*
X16117071Y-14191786D01*
X16131357Y-14220357D01*
X16131357Y-14248929D01*
X16117071Y-14291786D01*
X15945643Y-14463214D01*
X16131357Y-14463214D01*
X16488500Y-14463214D02*
X16488500Y-14163214D01*
X16617071Y-14463214D02*
X16617071Y-14306071D01*
X16602786Y-14277500D01*
X16574214Y-14263214D01*
X16531357Y-14263214D01*
X16502786Y-14277500D01*
X16488500Y-14291786D01*
X16802786Y-14463214D02*
X16774214Y-14448929D01*
X16759928Y-14434643D01*
X16745643Y-14406071D01*
X16745643Y-14320357D01*
X16759928Y-14291786D01*
X16774214Y-14277500D01*
X16802786Y-14263214D01*
X16845643Y-14263214D01*
X16874214Y-14277500D01*
X16888500Y-14291786D01*
X16902786Y-14320357D01*
X16902786Y-14406071D01*
X16888500Y-14434643D01*
X16874214Y-14448929D01*
X16845643Y-14463214D01*
X16802786Y-14463214D01*
X17074214Y-14463214D02*
X17045643Y-14448929D01*
X17031357Y-14420357D01*
X17031357Y-14163214D01*
X17302786Y-14448929D02*
X17274214Y-14463214D01*
X17217071Y-14463214D01*
X17188500Y-14448929D01*
X17174214Y-14420357D01*
X17174214Y-14306071D01*
X17188500Y-14277500D01*
X17217071Y-14263214D01*
X17274214Y-14263214D01*
X17302786Y-14277500D01*
X17317071Y-14306071D01*
X17317071Y-14334643D01*
X17174214Y-14363214D01*
X17431357Y-14448929D02*
X17459928Y-14463214D01*
X17517071Y-14463214D01*
X17545643Y-14448929D01*
X17559928Y-14420357D01*
X17559928Y-14406071D01*
X17545643Y-14377500D01*
X17517071Y-14363214D01*
X17474214Y-14363214D01*
X17445643Y-14348929D01*
X17431357Y-14320357D01*
X17431357Y-14306071D01*
X17445643Y-14277500D01*
X17474214Y-14263214D01*
X17517071Y-14263214D01*
X17545643Y-14277500D01*
X17659928Y-14577500D02*
X17674214Y-14563214D01*
X17702786Y-14520357D01*
X17717071Y-14491786D01*
X17731357Y-14448929D01*
X17745643Y-14377500D01*
X17745643Y-14320357D01*
X17731357Y-14248929D01*
X17717071Y-14206071D01*
X17702786Y-14177500D01*
X17674214Y-14134643D01*
X17659928Y-14120357D01*
X11154462Y-14769462D02*
X11154462Y-14677538D01*
X11062538Y-14677538D01*
X11062538Y-14769462D01*
X11154462Y-14769462D01*
X11617071Y-14859214D02*
X11445643Y-14859214D01*
X11531357Y-14859214D02*
X11531357Y-14559214D01*
X11502786Y-14602071D01*
X11474214Y-14630643D01*
X11445643Y-14644929D01*
X11745643Y-14830643D02*
X11759928Y-14844929D01*
X11745643Y-14859214D01*
X11731357Y-14844929D01*
X11745643Y-14830643D01*
X11745643Y-14859214D01*
X11859928Y-14559214D02*
X12045643Y-14559214D01*
X11945643Y-14673500D01*
X11988500Y-14673500D01*
X12017071Y-14687786D01*
X12031357Y-14702071D01*
X12045643Y-14730643D01*
X12045643Y-14802071D01*
X12031357Y-14830643D01*
X12017071Y-14844929D01*
X11988500Y-14859214D01*
X11902786Y-14859214D01*
X11874214Y-14844929D01*
X11859928Y-14830643D01*
X12231357Y-14559214D02*
X12259928Y-14559214D01*
X12288500Y-14573500D01*
X12302786Y-14587786D01*
X12317071Y-14616357D01*
X12331357Y-14673500D01*
X12331357Y-14744929D01*
X12317071Y-14802071D01*
X12302786Y-14830643D01*
X12288500Y-14844929D01*
X12259928Y-14859214D01*
X12231357Y-14859214D01*
X12202786Y-14844929D01*
X12188500Y-14830643D01*
X12174214Y-14802071D01*
X12159928Y-14744929D01*
X12159928Y-14673500D01*
X12174214Y-14616357D01*
X12188500Y-14587786D01*
X12202786Y-14573500D01*
X12231357Y-14559214D01*
X12459928Y-14859214D02*
X12459928Y-14659214D01*
X12459928Y-14687786D02*
X12474214Y-14673500D01*
X12502786Y-14659214D01*
X12545643Y-14659214D01*
X12574214Y-14673500D01*
X12588500Y-14702071D01*
X12588500Y-14859214D01*
X12588500Y-14702071D02*
X12602786Y-14673500D01*
X12631357Y-14659214D01*
X12674214Y-14659214D01*
X12702786Y-14673500D01*
X12717071Y-14702071D01*
X12717071Y-14859214D01*
X12859928Y-14859214D02*
X12859928Y-14659214D01*
X12859928Y-14687786D02*
X12874214Y-14673500D01*
X12902786Y-14659214D01*
X12945643Y-14659214D01*
X12974214Y-14673500D01*
X12988500Y-14702071D01*
X12988500Y-14859214D01*
X12988500Y-14702071D02*
X13002786Y-14673500D01*
X13031357Y-14659214D01*
X13074214Y-14659214D01*
X13102786Y-14673500D01*
X13117071Y-14702071D01*
X13117071Y-14859214D01*
X13702786Y-14544929D02*
X13445643Y-14930643D01*
X14088500Y-14559214D02*
X14117071Y-14559214D01*
X14145643Y-14573500D01*
X14159928Y-14587786D01*
X14174214Y-14616357D01*
X14188500Y-14673500D01*
X14188500Y-14744929D01*
X14174214Y-14802071D01*
X14159928Y-14830643D01*
X14145643Y-14844929D01*
X14117071Y-14859214D01*
X14088500Y-14859214D01*
X14059928Y-14844929D01*
X14045643Y-14830643D01*
X14031357Y-14802071D01*
X14017071Y-14744929D01*
X14017071Y-14673500D01*
X14031357Y-14616357D01*
X14045643Y-14587786D01*
X14059928Y-14573500D01*
X14088500Y-14559214D01*
X14317071Y-14830643D02*
X14331357Y-14844929D01*
X14317071Y-14859214D01*
X14302786Y-14844929D01*
X14317071Y-14830643D01*
X14317071Y-14859214D01*
X14517071Y-14559214D02*
X14545643Y-14559214D01*
X14574214Y-14573500D01*
X14588500Y-14587786D01*
X14602786Y-14616357D01*
X14617071Y-14673500D01*
X14617071Y-14744929D01*
X14602786Y-14802071D01*
X14588500Y-14830643D01*
X14574214Y-14844929D01*
X14545643Y-14859214D01*
X14517071Y-14859214D01*
X14488500Y-14844929D01*
X14474214Y-14830643D01*
X14459928Y-14802071D01*
X14445643Y-14744929D01*
X14445643Y-14673500D01*
X14459928Y-14616357D01*
X14474214Y-14587786D01*
X14488500Y-14573500D01*
X14517071Y-14559214D01*
X14888500Y-14559214D02*
X14745643Y-14559214D01*
X14731357Y-14702071D01*
X14745643Y-14687786D01*
X14774214Y-14673500D01*
X14845643Y-14673500D01*
X14874214Y-14687786D01*
X14888500Y-14702071D01*
X14902786Y-14730643D01*
X14902786Y-14802071D01*
X14888500Y-14830643D01*
X14874214Y-14844929D01*
X14845643Y-14859214D01*
X14774214Y-14859214D01*
X14745643Y-14844929D01*
X14731357Y-14830643D01*
X15188500Y-14859214D02*
X15017071Y-14859214D01*
X15102786Y-14859214D02*
X15102786Y-14559214D01*
X15074214Y-14602071D01*
X15045643Y-14630643D01*
X15017071Y-14644929D01*
X15302786Y-14559214D02*
X15302786Y-14616357D01*
X15417071Y-14559214D02*
X15417071Y-14616357D01*
X15859928Y-14973500D02*
X15845643Y-14959214D01*
X15817071Y-14916357D01*
X15802786Y-14887786D01*
X15788500Y-14844929D01*
X15774214Y-14773500D01*
X15774214Y-14716357D01*
X15788500Y-14644929D01*
X15802786Y-14602071D01*
X15817071Y-14573500D01*
X15845643Y-14530643D01*
X15859928Y-14516357D01*
X15945643Y-14559214D02*
X16131357Y-14559214D01*
X16031357Y-14673500D01*
X16074214Y-14673500D01*
X16102786Y-14687786D01*
X16117071Y-14702071D01*
X16131357Y-14730643D01*
X16131357Y-14802071D01*
X16117071Y-14830643D01*
X16102786Y-14844929D01*
X16074214Y-14859214D01*
X15988500Y-14859214D01*
X15959928Y-14844929D01*
X15945643Y-14830643D01*
X16488500Y-14859214D02*
X16488500Y-14559214D01*
X16617071Y-14859214D02*
X16617071Y-14702071D01*
X16602786Y-14673500D01*
X16574214Y-14659214D01*
X16531357Y-14659214D01*
X16502786Y-14673500D01*
X16488500Y-14687786D01*
X16802786Y-14859214D02*
X16774214Y-14844929D01*
X16759928Y-14830643D01*
X16745643Y-14802071D01*
X16745643Y-14716357D01*
X16759928Y-14687786D01*
X16774214Y-14673500D01*
X16802786Y-14659214D01*
X16845643Y-14659214D01*
X16874214Y-14673500D01*
X16888500Y-14687786D01*
X16902786Y-14716357D01*
X16902786Y-14802071D01*
X16888500Y-14830643D01*
X16874214Y-14844929D01*
X16845643Y-14859214D01*
X16802786Y-14859214D01*
X17074214Y-14859214D02*
X17045643Y-14844929D01*
X17031357Y-14816357D01*
X17031357Y-14559214D01*
X17302786Y-14844929D02*
X17274214Y-14859214D01*
X17217071Y-14859214D01*
X17188500Y-14844929D01*
X17174214Y-14816357D01*
X17174214Y-14702071D01*
X17188500Y-14673500D01*
X17217071Y-14659214D01*
X17274214Y-14659214D01*
X17302786Y-14673500D01*
X17317071Y-14702071D01*
X17317071Y-14730643D01*
X17174214Y-14759214D01*
X17431357Y-14844929D02*
X17459928Y-14859214D01*
X17517071Y-14859214D01*
X17545643Y-14844929D01*
X17559928Y-14816357D01*
X17559928Y-14802071D01*
X17545643Y-14773500D01*
X17517071Y-14759214D01*
X17474214Y-14759214D01*
X17445643Y-14744929D01*
X17431357Y-14716357D01*
X17431357Y-14702071D01*
X17445643Y-14673500D01*
X17474214Y-14659214D01*
X17517071Y-14659214D01*
X17545643Y-14673500D01*
X17659928Y-14973500D02*
X17674214Y-14959214D01*
X17702786Y-14916357D01*
X17717071Y-14887786D01*
X17731357Y-14844929D01*
X17745643Y-14773500D01*
X17745643Y-14716357D01*
X17731357Y-14644929D01*
X17717071Y-14602071D01*
X17702786Y-14573500D01*
X17674214Y-14530643D01*
X17659928Y-14516357D01*
X11104500Y-15188500D02*
X11173500Y-15119500D01*
X11104500Y-15050500D01*
X11035500Y-15119500D01*
X11104500Y-15188500D01*
X11617071Y-15255214D02*
X11445643Y-15255214D01*
X11531357Y-15255214D02*
X11531357Y-14955214D01*
X11502786Y-14998071D01*
X11474214Y-15026643D01*
X11445643Y-15040929D01*
X11745643Y-15226643D02*
X11759928Y-15240929D01*
X11745643Y-15255214D01*
X11731357Y-15240929D01*
X11745643Y-15226643D01*
X11745643Y-15255214D01*
X11859928Y-14955214D02*
X12045643Y-14955214D01*
X11945643Y-15069500D01*
X11988500Y-15069500D01*
X12017071Y-15083786D01*
X12031357Y-15098071D01*
X12045643Y-15126643D01*
X12045643Y-15198071D01*
X12031357Y-15226643D01*
X12017071Y-15240929D01*
X11988500Y-15255214D01*
X11902786Y-15255214D01*
X11874214Y-15240929D01*
X11859928Y-15226643D01*
X12217071Y-15083786D02*
X12188500Y-15069500D01*
X12174214Y-15055214D01*
X12159928Y-15026643D01*
X12159928Y-15012357D01*
X12174214Y-14983786D01*
X12188500Y-14969500D01*
X12217071Y-14955214D01*
X12274214Y-14955214D01*
X12302786Y-14969500D01*
X12317071Y-14983786D01*
X12331357Y-15012357D01*
X12331357Y-15026643D01*
X12317071Y-15055214D01*
X12302786Y-15069500D01*
X12274214Y-15083786D01*
X12217071Y-15083786D01*
X12188500Y-15098071D01*
X12174214Y-15112357D01*
X12159928Y-15140929D01*
X12159928Y-15198071D01*
X12174214Y-15226643D01*
X12188500Y-15240929D01*
X12217071Y-15255214D01*
X12274214Y-15255214D01*
X12302786Y-15240929D01*
X12317071Y-15226643D01*
X12331357Y-15198071D01*
X12331357Y-15140929D01*
X12317071Y-15112357D01*
X12302786Y-15098071D01*
X12274214Y-15083786D01*
X12459928Y-15255214D02*
X12459928Y-15055214D01*
X12459928Y-15083786D02*
X12474214Y-15069500D01*
X12502786Y-15055214D01*
X12545643Y-15055214D01*
X12574214Y-15069500D01*
X12588500Y-15098071D01*
X12588500Y-15255214D01*
X12588500Y-15098071D02*
X12602786Y-15069500D01*
X12631357Y-15055214D01*
X12674214Y-15055214D01*
X12702786Y-15069500D01*
X12717071Y-15098071D01*
X12717071Y-15255214D01*
X12859928Y-15255214D02*
X12859928Y-15055214D01*
X12859928Y-15083786D02*
X12874214Y-15069500D01*
X12902786Y-15055214D01*
X12945643Y-15055214D01*
X12974214Y-15069500D01*
X12988500Y-15098071D01*
X12988500Y-15255214D01*
X12988500Y-15098071D02*
X13002786Y-15069500D01*
X13031357Y-15055214D01*
X13074214Y-15055214D01*
X13102786Y-15069500D01*
X13117071Y-15098071D01*
X13117071Y-15255214D01*
X13702786Y-14940929D02*
X13445643Y-15326643D01*
X14088500Y-14955214D02*
X14117071Y-14955214D01*
X14145643Y-14969500D01*
X14159928Y-14983786D01*
X14174214Y-15012357D01*
X14188500Y-15069500D01*
X14188500Y-15140929D01*
X14174214Y-15198071D01*
X14159928Y-15226643D01*
X14145643Y-15240929D01*
X14117071Y-15255214D01*
X14088500Y-15255214D01*
X14059928Y-15240929D01*
X14045643Y-15226643D01*
X14031357Y-15198071D01*
X14017071Y-15140929D01*
X14017071Y-15069500D01*
X14031357Y-15012357D01*
X14045643Y-14983786D01*
X14059928Y-14969500D01*
X14088500Y-14955214D01*
X14317071Y-15226643D02*
X14331357Y-15240929D01*
X14317071Y-15255214D01*
X14302786Y-15240929D01*
X14317071Y-15226643D01*
X14317071Y-15255214D01*
X14517071Y-14955214D02*
X14545643Y-14955214D01*
X14574214Y-14969500D01*
X14588500Y-14983786D01*
X14602786Y-15012357D01*
X14617071Y-15069500D01*
X14617071Y-15140929D01*
X14602786Y-15198071D01*
X14588500Y-15226643D01*
X14574214Y-15240929D01*
X14545643Y-15255214D01*
X14517071Y-15255214D01*
X14488500Y-15240929D01*
X14474214Y-15226643D01*
X14459928Y-15198071D01*
X14445643Y-15140929D01*
X14445643Y-15069500D01*
X14459928Y-15012357D01*
X14474214Y-14983786D01*
X14488500Y-14969500D01*
X14517071Y-14955214D01*
X14888500Y-14955214D02*
X14745643Y-14955214D01*
X14731357Y-15098071D01*
X14745643Y-15083786D01*
X14774214Y-15069500D01*
X14845643Y-15069500D01*
X14874214Y-15083786D01*
X14888500Y-15098071D01*
X14902786Y-15126643D01*
X14902786Y-15198071D01*
X14888500Y-15226643D01*
X14874214Y-15240929D01*
X14845643Y-15255214D01*
X14774214Y-15255214D01*
X14745643Y-15240929D01*
X14731357Y-15226643D01*
X15159928Y-15055214D02*
X15159928Y-15255214D01*
X15088500Y-14940929D02*
X15017071Y-15155214D01*
X15202786Y-15155214D01*
X15302786Y-14955214D02*
X15302786Y-15012357D01*
X15417071Y-14955214D02*
X15417071Y-15012357D01*
X15859928Y-15369500D02*
X15845643Y-15355214D01*
X15817071Y-15312357D01*
X15802786Y-15283786D01*
X15788500Y-15240929D01*
X15774214Y-15169500D01*
X15774214Y-15112357D01*
X15788500Y-15040929D01*
X15802786Y-14998071D01*
X15817071Y-14969500D01*
X15845643Y-14926643D01*
X15859928Y-14912357D01*
X15945643Y-14955214D02*
X16131357Y-14955214D01*
X16031357Y-15069500D01*
X16074214Y-15069500D01*
X16102786Y-15083786D01*
X16117071Y-15098071D01*
X16131357Y-15126643D01*
X16131357Y-15198071D01*
X16117071Y-15226643D01*
X16102786Y-15240929D01*
X16074214Y-15255214D01*
X15988500Y-15255214D01*
X15959928Y-15240929D01*
X15945643Y-15226643D01*
X16488500Y-15255214D02*
X16488500Y-14955214D01*
X16617071Y-15255214D02*
X16617071Y-15098071D01*
X16602786Y-15069500D01*
X16574214Y-15055214D01*
X16531357Y-15055214D01*
X16502786Y-15069500D01*
X16488500Y-15083786D01*
X16802786Y-15255214D02*
X16774214Y-15240929D01*
X16759928Y-15226643D01*
X16745643Y-15198071D01*
X16745643Y-15112357D01*
X16759928Y-15083786D01*
X16774214Y-15069500D01*
X16802786Y-15055214D01*
X16845643Y-15055214D01*
X16874214Y-15069500D01*
X16888500Y-15083786D01*
X16902786Y-15112357D01*
X16902786Y-15198071D01*
X16888500Y-15226643D01*
X16874214Y-15240929D01*
X16845643Y-15255214D01*
X16802786Y-15255214D01*
X17074214Y-15255214D02*
X17045643Y-15240929D01*
X17031357Y-15212357D01*
X17031357Y-14955214D01*
X17302786Y-15240929D02*
X17274214Y-15255214D01*
X17217071Y-15255214D01*
X17188500Y-15240929D01*
X17174214Y-15212357D01*
X17174214Y-15098071D01*
X17188500Y-15069500D01*
X17217071Y-15055214D01*
X17274214Y-15055214D01*
X17302786Y-15069500D01*
X17317071Y-15098071D01*
X17317071Y-15126643D01*
X17174214Y-15155214D01*
X17431357Y-15240929D02*
X17459928Y-15255214D01*
X17517071Y-15255214D01*
X17545643Y-15240929D01*
X17559928Y-15212357D01*
X17559928Y-15198071D01*
X17545643Y-15169500D01*
X17517071Y-15155214D01*
X17474214Y-15155214D01*
X17445643Y-15140929D01*
X17431357Y-15112357D01*
X17431357Y-15098071D01*
X17445643Y-15069500D01*
X17474214Y-15055214D01*
X17517071Y-15055214D01*
X17545643Y-15069500D01*
X17659928Y-15369500D02*
X17674214Y-15355214D01*
X17702786Y-15312357D01*
X17717071Y-15283786D01*
X17731357Y-15240929D01*
X17745643Y-15169500D01*
X17745643Y-15112357D01*
X17731357Y-15040929D01*
X17717071Y-14998071D01*
X17702786Y-14969500D01*
X17674214Y-14926643D01*
X17659928Y-14912357D01*
X11021500Y-15439500D02*
X11173500Y-15591500D01*
X11173500Y-15439500D02*
X11021500Y-15591500D01*
X11173500Y-15515500D02*
G75*
G03*
X11173500Y-15515500I-76000J0D01*
G01*
X11617071Y-15651214D02*
X11445643Y-15651214D01*
X11531357Y-15651214D02*
X11531357Y-15351214D01*
X11502786Y-15394071D01*
X11474214Y-15422643D01*
X11445643Y-15436929D01*
X11745643Y-15622643D02*
X11759928Y-15636929D01*
X11745643Y-15651214D01*
X11731357Y-15636929D01*
X11745643Y-15622643D01*
X11745643Y-15651214D01*
X12031357Y-15351214D02*
X11888500Y-15351214D01*
X11874214Y-15494071D01*
X11888500Y-15479786D01*
X11917071Y-15465500D01*
X11988500Y-15465500D01*
X12017071Y-15479786D01*
X12031357Y-15494071D01*
X12045643Y-15522643D01*
X12045643Y-15594071D01*
X12031357Y-15622643D01*
X12017071Y-15636929D01*
X11988500Y-15651214D01*
X11917071Y-15651214D01*
X11888500Y-15636929D01*
X11874214Y-15622643D01*
X12159928Y-15379786D02*
X12174214Y-15365500D01*
X12202786Y-15351214D01*
X12274214Y-15351214D01*
X12302786Y-15365500D01*
X12317071Y-15379786D01*
X12331357Y-15408357D01*
X12331357Y-15436929D01*
X12317071Y-15479786D01*
X12145643Y-15651214D01*
X12331357Y-15651214D01*
X12459928Y-15651214D02*
X12459928Y-15451214D01*
X12459928Y-15479786D02*
X12474214Y-15465500D01*
X12502786Y-15451214D01*
X12545643Y-15451214D01*
X12574214Y-15465500D01*
X12588500Y-15494071D01*
X12588500Y-15651214D01*
X12588500Y-15494071D02*
X12602786Y-15465500D01*
X12631357Y-15451214D01*
X12674214Y-15451214D01*
X12702786Y-15465500D01*
X12717071Y-15494071D01*
X12717071Y-15651214D01*
X12859928Y-15651214D02*
X12859928Y-15451214D01*
X12859928Y-15479786D02*
X12874214Y-15465500D01*
X12902786Y-15451214D01*
X12945643Y-15451214D01*
X12974214Y-15465500D01*
X12988500Y-15494071D01*
X12988500Y-15651214D01*
X12988500Y-15494071D02*
X13002786Y-15465500D01*
X13031357Y-15451214D01*
X13074214Y-15451214D01*
X13102786Y-15465500D01*
X13117071Y-15494071D01*
X13117071Y-15651214D01*
X13702786Y-15336929D02*
X13445643Y-15722643D01*
X14088500Y-15351214D02*
X14117071Y-15351214D01*
X14145643Y-15365500D01*
X14159928Y-15379786D01*
X14174214Y-15408357D01*
X14188500Y-15465500D01*
X14188500Y-15536929D01*
X14174214Y-15594071D01*
X14159928Y-15622643D01*
X14145643Y-15636929D01*
X14117071Y-15651214D01*
X14088500Y-15651214D01*
X14059928Y-15636929D01*
X14045643Y-15622643D01*
X14031357Y-15594071D01*
X14017071Y-15536929D01*
X14017071Y-15465500D01*
X14031357Y-15408357D01*
X14045643Y-15379786D01*
X14059928Y-15365500D01*
X14088500Y-15351214D01*
X14317071Y-15622643D02*
X14331357Y-15636929D01*
X14317071Y-15651214D01*
X14302786Y-15636929D01*
X14317071Y-15622643D01*
X14317071Y-15651214D01*
X14517071Y-15351214D02*
X14545643Y-15351214D01*
X14574214Y-15365500D01*
X14588500Y-15379786D01*
X14602786Y-15408357D01*
X14617071Y-15465500D01*
X14617071Y-15536929D01*
X14602786Y-15594071D01*
X14588500Y-15622643D01*
X14574214Y-15636929D01*
X14545643Y-15651214D01*
X14517071Y-15651214D01*
X14488500Y-15636929D01*
X14474214Y-15622643D01*
X14459928Y-15594071D01*
X14445643Y-15536929D01*
X14445643Y-15465500D01*
X14459928Y-15408357D01*
X14474214Y-15379786D01*
X14488500Y-15365500D01*
X14517071Y-15351214D01*
X14874214Y-15351214D02*
X14817071Y-15351214D01*
X14788500Y-15365500D01*
X14774214Y-15379786D01*
X14745643Y-15422643D01*
X14731357Y-15479786D01*
X14731357Y-15594071D01*
X14745643Y-15622643D01*
X14759928Y-15636929D01*
X14788500Y-15651214D01*
X14845643Y-15651214D01*
X14874214Y-15636929D01*
X14888500Y-15622643D01*
X14902786Y-15594071D01*
X14902786Y-15522643D01*
X14888500Y-15494071D01*
X14874214Y-15479786D01*
X14845643Y-15465500D01*
X14788500Y-15465500D01*
X14759928Y-15479786D01*
X14745643Y-15494071D01*
X14731357Y-15522643D01*
X15088500Y-15351214D02*
X15117071Y-15351214D01*
X15145643Y-15365500D01*
X15159928Y-15379786D01*
X15174214Y-15408357D01*
X15188500Y-15465500D01*
X15188500Y-15536929D01*
X15174214Y-15594071D01*
X15159928Y-15622643D01*
X15145643Y-15636929D01*
X15117071Y-15651214D01*
X15088500Y-15651214D01*
X15059928Y-15636929D01*
X15045643Y-15622643D01*
X15031357Y-15594071D01*
X15017071Y-15536929D01*
X15017071Y-15465500D01*
X15031357Y-15408357D01*
X15045643Y-15379786D01*
X15059928Y-15365500D01*
X15088500Y-15351214D01*
X15302786Y-15351214D02*
X15302786Y-15408357D01*
X15417071Y-15351214D02*
X15417071Y-15408357D01*
X15859928Y-15765500D02*
X15845643Y-15751214D01*
X15817071Y-15708357D01*
X15802786Y-15679786D01*
X15788500Y-15636929D01*
X15774214Y-15565500D01*
X15774214Y-15508357D01*
X15788500Y-15436929D01*
X15802786Y-15394071D01*
X15817071Y-15365500D01*
X15845643Y-15322643D01*
X15859928Y-15308357D01*
X16102786Y-15451214D02*
X16102786Y-15651214D01*
X16031357Y-15336929D02*
X15959928Y-15551214D01*
X16145643Y-15551214D01*
X16488500Y-15651214D02*
X16488500Y-15351214D01*
X16617071Y-15651214D02*
X16617071Y-15494071D01*
X16602786Y-15465500D01*
X16574214Y-15451214D01*
X16531357Y-15451214D01*
X16502786Y-15465500D01*
X16488500Y-15479786D01*
X16802786Y-15651214D02*
X16774214Y-15636929D01*
X16759928Y-15622643D01*
X16745643Y-15594071D01*
X16745643Y-15508357D01*
X16759928Y-15479786D01*
X16774214Y-15465500D01*
X16802786Y-15451214D01*
X16845643Y-15451214D01*
X16874214Y-15465500D01*
X16888500Y-15479786D01*
X16902786Y-15508357D01*
X16902786Y-15594071D01*
X16888500Y-15622643D01*
X16874214Y-15636929D01*
X16845643Y-15651214D01*
X16802786Y-15651214D01*
X17074214Y-15651214D02*
X17045643Y-15636929D01*
X17031357Y-15608357D01*
X17031357Y-15351214D01*
X17302786Y-15636929D02*
X17274214Y-15651214D01*
X17217071Y-15651214D01*
X17188500Y-15636929D01*
X17174214Y-15608357D01*
X17174214Y-15494071D01*
X17188500Y-15465500D01*
X17217071Y-15451214D01*
X17274214Y-15451214D01*
X17302786Y-15465500D01*
X17317071Y-15494071D01*
X17317071Y-15522643D01*
X17174214Y-15551214D01*
X17431357Y-15636929D02*
X17459928Y-15651214D01*
X17517071Y-15651214D01*
X17545643Y-15636929D01*
X17559928Y-15608357D01*
X17559928Y-15594071D01*
X17545643Y-15565500D01*
X17517071Y-15551214D01*
X17474214Y-15551214D01*
X17445643Y-15536929D01*
X17431357Y-15508357D01*
X17431357Y-15494071D01*
X17445643Y-15465500D01*
X17474214Y-15451214D01*
X17517071Y-15451214D01*
X17545643Y-15465500D01*
X17659928Y-15765500D02*
X17674214Y-15751214D01*
X17702786Y-15708357D01*
X17717071Y-15679786D01*
X17731357Y-15636929D01*
X17745643Y-15565500D01*
X17745643Y-15508357D01*
X17731357Y-15436929D01*
X17717071Y-15394071D01*
X17702786Y-15365500D01*
X17674214Y-15322643D01*
X17659928Y-15308357D01*
X10988500Y-15819000D02*
X11173500Y-16004000D01*
X11173500Y-15819000D02*
X10988500Y-16004000D01*
X11081000Y-15819000D02*
X11081000Y-16004000D01*
X10988500Y-15911500D02*
X11173500Y-15911500D01*
X11617071Y-16047214D02*
X11445643Y-16047214D01*
X11531357Y-16047214D02*
X11531357Y-15747214D01*
X11502786Y-15790071D01*
X11474214Y-15818643D01*
X11445643Y-15832929D01*
X11745643Y-16018643D02*
X11759928Y-16032929D01*
X11745643Y-16047214D01*
X11731357Y-16032929D01*
X11745643Y-16018643D01*
X11745643Y-16047214D01*
X11931357Y-15875786D02*
X11902786Y-15861500D01*
X11888500Y-15847214D01*
X11874214Y-15818643D01*
X11874214Y-15804357D01*
X11888500Y-15775786D01*
X11902786Y-15761500D01*
X11931357Y-15747214D01*
X11988500Y-15747214D01*
X12017071Y-15761500D01*
X12031357Y-15775786D01*
X12045643Y-15804357D01*
X12045643Y-15818643D01*
X12031357Y-15847214D01*
X12017071Y-15861500D01*
X11988500Y-15875786D01*
X11931357Y-15875786D01*
X11902786Y-15890071D01*
X11888500Y-15904357D01*
X11874214Y-15932929D01*
X11874214Y-15990071D01*
X11888500Y-16018643D01*
X11902786Y-16032929D01*
X11931357Y-16047214D01*
X11988500Y-16047214D01*
X12017071Y-16032929D01*
X12031357Y-16018643D01*
X12045643Y-15990071D01*
X12045643Y-15932929D01*
X12031357Y-15904357D01*
X12017071Y-15890071D01*
X11988500Y-15875786D01*
X12317071Y-15747214D02*
X12174214Y-15747214D01*
X12159928Y-15890071D01*
X12174214Y-15875786D01*
X12202786Y-15861500D01*
X12274214Y-15861500D01*
X12302786Y-15875786D01*
X12317071Y-15890071D01*
X12331357Y-15918643D01*
X12331357Y-15990071D01*
X12317071Y-16018643D01*
X12302786Y-16032929D01*
X12274214Y-16047214D01*
X12202786Y-16047214D01*
X12174214Y-16032929D01*
X12159928Y-16018643D01*
X12459928Y-16047214D02*
X12459928Y-15847214D01*
X12459928Y-15875786D02*
X12474214Y-15861500D01*
X12502786Y-15847214D01*
X12545643Y-15847214D01*
X12574214Y-15861500D01*
X12588500Y-15890071D01*
X12588500Y-16047214D01*
X12588500Y-15890071D02*
X12602786Y-15861500D01*
X12631357Y-15847214D01*
X12674214Y-15847214D01*
X12702786Y-15861500D01*
X12717071Y-15890071D01*
X12717071Y-16047214D01*
X12859928Y-16047214D02*
X12859928Y-15847214D01*
X12859928Y-15875786D02*
X12874214Y-15861500D01*
X12902786Y-15847214D01*
X12945643Y-15847214D01*
X12974214Y-15861500D01*
X12988500Y-15890071D01*
X12988500Y-16047214D01*
X12988500Y-15890071D02*
X13002786Y-15861500D01*
X13031357Y-15847214D01*
X13074214Y-15847214D01*
X13102786Y-15861500D01*
X13117071Y-15890071D01*
X13117071Y-16047214D01*
X13702786Y-15732929D02*
X13445643Y-16118643D01*
X14088500Y-15747214D02*
X14117071Y-15747214D01*
X14145643Y-15761500D01*
X14159928Y-15775786D01*
X14174214Y-15804357D01*
X14188500Y-15861500D01*
X14188500Y-15932929D01*
X14174214Y-15990071D01*
X14159928Y-16018643D01*
X14145643Y-16032929D01*
X14117071Y-16047214D01*
X14088500Y-16047214D01*
X14059928Y-16032929D01*
X14045643Y-16018643D01*
X14031357Y-15990071D01*
X14017071Y-15932929D01*
X14017071Y-15861500D01*
X14031357Y-15804357D01*
X14045643Y-15775786D01*
X14059928Y-15761500D01*
X14088500Y-15747214D01*
X14317071Y-16018643D02*
X14331357Y-16032929D01*
X14317071Y-16047214D01*
X14302786Y-16032929D01*
X14317071Y-16018643D01*
X14317071Y-16047214D01*
X14517071Y-15747214D02*
X14545643Y-15747214D01*
X14574214Y-15761500D01*
X14588500Y-15775786D01*
X14602786Y-15804357D01*
X14617071Y-15861500D01*
X14617071Y-15932929D01*
X14602786Y-15990071D01*
X14588500Y-16018643D01*
X14574214Y-16032929D01*
X14545643Y-16047214D01*
X14517071Y-16047214D01*
X14488500Y-16032929D01*
X14474214Y-16018643D01*
X14459928Y-15990071D01*
X14445643Y-15932929D01*
X14445643Y-15861500D01*
X14459928Y-15804357D01*
X14474214Y-15775786D01*
X14488500Y-15761500D01*
X14517071Y-15747214D01*
X14717071Y-15747214D02*
X14917071Y-15747214D01*
X14788500Y-16047214D01*
X15002786Y-15747214D02*
X15188500Y-15747214D01*
X15088500Y-15861500D01*
X15131357Y-15861500D01*
X15159928Y-15875786D01*
X15174214Y-15890071D01*
X15188500Y-15918643D01*
X15188500Y-15990071D01*
X15174214Y-16018643D01*
X15159928Y-16032929D01*
X15131357Y-16047214D01*
X15045643Y-16047214D01*
X15017071Y-16032929D01*
X15002786Y-16018643D01*
X15302786Y-15747214D02*
X15302786Y-15804357D01*
X15417071Y-15747214D02*
X15417071Y-15804357D01*
X15859928Y-16161500D02*
X15845643Y-16147214D01*
X15817071Y-16104357D01*
X15802786Y-16075786D01*
X15788500Y-16032929D01*
X15774214Y-15961500D01*
X15774214Y-15904357D01*
X15788500Y-15832929D01*
X15802786Y-15790071D01*
X15817071Y-15761500D01*
X15845643Y-15718643D01*
X15859928Y-15704357D01*
X15945643Y-15747214D02*
X16131357Y-15747214D01*
X16031357Y-15861500D01*
X16074214Y-15861500D01*
X16102786Y-15875786D01*
X16117071Y-15890071D01*
X16131357Y-15918643D01*
X16131357Y-15990071D01*
X16117071Y-16018643D01*
X16102786Y-16032929D01*
X16074214Y-16047214D01*
X15988500Y-16047214D01*
X15959928Y-16032929D01*
X15945643Y-16018643D01*
X16488500Y-16047214D02*
X16488500Y-15747214D01*
X16617071Y-16047214D02*
X16617071Y-15890071D01*
X16602786Y-15861500D01*
X16574214Y-15847214D01*
X16531357Y-15847214D01*
X16502786Y-15861500D01*
X16488500Y-15875786D01*
X16802786Y-16047214D02*
X16774214Y-16032929D01*
X16759928Y-16018643D01*
X16745643Y-15990071D01*
X16745643Y-15904357D01*
X16759928Y-15875786D01*
X16774214Y-15861500D01*
X16802786Y-15847214D01*
X16845643Y-15847214D01*
X16874214Y-15861500D01*
X16888500Y-15875786D01*
X16902786Y-15904357D01*
X16902786Y-15990071D01*
X16888500Y-16018643D01*
X16874214Y-16032929D01*
X16845643Y-16047214D01*
X16802786Y-16047214D01*
X17074214Y-16047214D02*
X17045643Y-16032929D01*
X17031357Y-16004357D01*
X17031357Y-15747214D01*
X17302786Y-16032929D02*
X17274214Y-16047214D01*
X17217071Y-16047214D01*
X17188500Y-16032929D01*
X17174214Y-16004357D01*
X17174214Y-15890071D01*
X17188500Y-15861500D01*
X17217071Y-15847214D01*
X17274214Y-15847214D01*
X17302786Y-15861500D01*
X17317071Y-15890071D01*
X17317071Y-15918643D01*
X17174214Y-15947214D01*
X17431357Y-16032929D02*
X17459928Y-16047214D01*
X17517071Y-16047214D01*
X17545643Y-16032929D01*
X17559928Y-16004357D01*
X17559928Y-15990071D01*
X17545643Y-15961500D01*
X17517071Y-15947214D01*
X17474214Y-15947214D01*
X17445643Y-15932929D01*
X17431357Y-15904357D01*
X17431357Y-15890071D01*
X17445643Y-15861500D01*
X17474214Y-15847214D01*
X17517071Y-15847214D01*
X17545643Y-15861500D01*
X17659928Y-16161500D02*
X17674214Y-16147214D01*
X17702786Y-16104357D01*
X17717071Y-16075786D01*
X17731357Y-16032929D01*
X17745643Y-15961500D01*
X17745643Y-15904357D01*
X17731357Y-15832929D01*
X17717071Y-15790071D01*
X17702786Y-15761500D01*
X17674214Y-15718643D01*
X17659928Y-15704357D01*
M02*
