%TF.GenerationSoftware,KiCad,Pcbnew,(5.1.9)-1*%
%TF.CreationDate,2022-05-29T14:43:03-04:00*%
%TF.ProjectId,mouse-jiggler,6d6f7573-652d-46a6-9967-676c65722e6b,rev?*%
%TF.SameCoordinates,Original*%
%TF.FileFunction,Legend,Bot*%
%TF.FilePolarity,Positive*%
%FSLAX46Y46*%
G04 Gerber Fmt 4.6, Leading zero omitted, Abs format (unit mm)*
G04 Created by KiCad (PCBNEW (5.1.9)-1) date 2022-05-29 14:43:03*
%MOMM*%
%LPD*%
G01*
G04 APERTURE LIST*
%ADD10C,2.775000*%
%ADD11C,2.200000*%
%ADD12R,2.070000X2.070000*%
%ADD13C,2.070000*%
%ADD14C,1.600000*%
%ADD15R,1.600000X1.600000*%
%ADD16O,1.600000X1.600000*%
%ADD17R,1.800000X1.800000*%
%ADD18C,1.800000*%
%ADD19R,2.200000X2.200000*%
%ADD20O,2.200000X2.200000*%
%ADD21R,3.000000X3.000000*%
%ADD22C,3.000000*%
%ADD23C,2.340000*%
G04 APERTURE END LIST*
%LPC*%
D10*
%TO.C,SW1*%
X117220000Y-78740000D03*
X121920000Y-78740000D03*
X126620000Y-78740000D03*
%TD*%
D11*
%TO.C,REF\u002A\u002A*%
X178562000Y-75438000D03*
%TD*%
%TO.C,REF\u002A\u002A*%
X116078000Y-107442000D03*
%TD*%
%TO.C,REF\u002A\u002A*%
X178562000Y-121412000D03*
%TD*%
D12*
%TO.C,Q1*%
X119380000Y-119380000D03*
D13*
X119380000Y-116840000D03*
X119380000Y-114300000D03*
%TD*%
D14*
%TO.C,C1*%
X134620000Y-105410000D03*
X132120000Y-105410000D03*
%TD*%
%TO.C,C2*%
X132120000Y-111760000D03*
X134620000Y-111760000D03*
%TD*%
D15*
%TO.C,D1*%
X165100000Y-93472000D03*
D16*
X172720000Y-93472000D03*
%TD*%
%TO.C,D2*%
X165100000Y-87630000D03*
D15*
X172720000Y-87630000D03*
%TD*%
D17*
%TO.C,D3*%
X134620000Y-78232000D03*
D18*
X134620000Y-80772000D03*
%TD*%
D19*
%TO.C,D4*%
X166370000Y-106680000D03*
D20*
X166370000Y-116840000D03*
%TD*%
D21*
%TO.C,J1*%
X119380000Y-100330000D03*
D22*
X119380000Y-95250000D03*
%TD*%
%TO.C,J2*%
X175260000Y-114300000D03*
D21*
X175260000Y-109220000D03*
%TD*%
D16*
%TO.C,R1*%
X164084000Y-100330000D03*
D14*
X174244000Y-100330000D03*
%TD*%
%TO.C,R2*%
X138430000Y-92710000D03*
D16*
X128270000Y-92710000D03*
%TD*%
%TO.C,R3*%
X138430000Y-119380000D03*
D14*
X128270000Y-119380000D03*
%TD*%
%TO.C,R4*%
X128270000Y-99060000D03*
D16*
X138430000Y-99060000D03*
%TD*%
D23*
%TO.C,RV1*%
X146210000Y-78740000D03*
X151210000Y-78740000D03*
X156210000Y-78740000D03*
%TD*%
D15*
%TO.C,U1*%
X148590000Y-99060000D03*
D16*
X156210000Y-106680000D03*
X148590000Y-101600000D03*
X156210000Y-104140000D03*
X148590000Y-104140000D03*
X156210000Y-101600000D03*
X148590000Y-106680000D03*
X156210000Y-99060000D03*
%TD*%
M02*
