%TF.GenerationSoftware,KiCad,Pcbnew,(5.1.9)-1*%
%TF.CreationDate,2022-05-29T14:43:03-04:00*%
%TF.ProjectId,mouse-jiggler,6d6f7573-652d-46a6-9967-676c65722e6b,rev?*%
%TF.SameCoordinates,Original*%
%TF.FileFunction,Copper,L2,Bot*%
%TF.FilePolarity,Positive*%
%FSLAX46Y46*%
G04 Gerber Fmt 4.6, Leading zero omitted, Abs format (unit mm)*
G04 Created by KiCad (PCBNEW (5.1.9)-1) date 2022-05-29 14:43:03*
%MOMM*%
%LPD*%
G01*
G04 APERTURE LIST*
%TA.AperFunction,ComponentPad*%
%ADD10C,2.775000*%
%TD*%
%TA.AperFunction,ComponentPad*%
%ADD11R,2.070000X2.070000*%
%TD*%
%TA.AperFunction,ComponentPad*%
%ADD12C,2.070000*%
%TD*%
%TA.AperFunction,ComponentPad*%
%ADD13C,1.600000*%
%TD*%
%TA.AperFunction,ComponentPad*%
%ADD14R,1.600000X1.600000*%
%TD*%
%TA.AperFunction,ComponentPad*%
%ADD15O,1.600000X1.600000*%
%TD*%
%TA.AperFunction,ComponentPad*%
%ADD16R,1.800000X1.800000*%
%TD*%
%TA.AperFunction,ComponentPad*%
%ADD17C,1.800000*%
%TD*%
%TA.AperFunction,ComponentPad*%
%ADD18R,2.200000X2.200000*%
%TD*%
%TA.AperFunction,ComponentPad*%
%ADD19O,2.200000X2.200000*%
%TD*%
%TA.AperFunction,ComponentPad*%
%ADD20R,3.000000X3.000000*%
%TD*%
%TA.AperFunction,ComponentPad*%
%ADD21C,3.000000*%
%TD*%
%TA.AperFunction,ComponentPad*%
%ADD22C,2.340000*%
%TD*%
%TA.AperFunction,Conductor*%
%ADD23C,0.250000*%
%TD*%
%TA.AperFunction,Conductor*%
%ADD24C,0.254000*%
%TD*%
%TA.AperFunction,Conductor*%
%ADD25C,0.100000*%
%TD*%
G04 APERTURE END LIST*
D10*
%TO.P,SW1,3*%
%TO.N,Net-(SW1-Pad3)*%
X117220000Y-78740000D03*
%TO.P,SW1,2*%
%TO.N,Net-(J1-Pad2)*%
X121920000Y-78740000D03*
%TO.P,SW1,1*%
%TO.N,Net-(D3-Pad1)*%
X126620000Y-78740000D03*
%TD*%
D11*
%TO.P,Q1,1*%
%TO.N,Net-(Q1-Pad1)*%
X119380000Y-119380000D03*
D12*
%TO.P,Q1,2*%
%TO.N,Net-(D4-Pad2)*%
X119380000Y-116840000D03*
%TO.P,Q1,3*%
%TO.N,GND*%
X119380000Y-114300000D03*
%TD*%
D13*
%TO.P,C1,1*%
%TO.N,Net-(C1-Pad1)*%
X134620000Y-105410000D03*
%TO.P,C1,2*%
%TO.N,GND*%
X132120000Y-105410000D03*
%TD*%
%TO.P,C2,2*%
%TO.N,GND*%
X132120000Y-111760000D03*
%TO.P,C2,1*%
%TO.N,Net-(C2-Pad1)*%
X134620000Y-111760000D03*
%TD*%
D14*
%TO.P,D1,1*%
%TO.N,Net-(D1-Pad1)*%
X165100000Y-93472000D03*
D15*
%TO.P,D1,2*%
%TO.N,Net-(D1-Pad2)*%
X172720000Y-93472000D03*
%TD*%
%TO.P,D2,2*%
%TO.N,Net-(D2-Pad2)*%
X165100000Y-87630000D03*
D14*
%TO.P,D2,1*%
%TO.N,Net-(D1-Pad2)*%
X172720000Y-87630000D03*
%TD*%
D16*
%TO.P,D3,1*%
%TO.N,Net-(D3-Pad1)*%
X134620000Y-78232000D03*
D17*
%TO.P,D3,2*%
%TO.N,Net-(D3-Pad2)*%
X134620000Y-80772000D03*
%TD*%
D18*
%TO.P,D4,1*%
%TO.N,Net-(D3-Pad1)*%
X166370000Y-106680000D03*
D19*
%TO.P,D4,2*%
%TO.N,Net-(D4-Pad2)*%
X166370000Y-116840000D03*
%TD*%
D20*
%TO.P,J1,1*%
%TO.N,GND*%
X119380000Y-100330000D03*
D21*
%TO.P,J1,2*%
%TO.N,Net-(J1-Pad2)*%
X119380000Y-95250000D03*
%TD*%
%TO.P,J2,2*%
%TO.N,Net-(D4-Pad2)*%
X175260000Y-114300000D03*
D20*
%TO.P,J2,1*%
%TO.N,Net-(D3-Pad1)*%
X175260000Y-109220000D03*
%TD*%
D15*
%TO.P,R1,2*%
%TO.N,Net-(D1-Pad2)*%
X164084000Y-100330000D03*
D13*
%TO.P,R1,1*%
%TO.N,Net-(D3-Pad1)*%
X174244000Y-100330000D03*
%TD*%
%TO.P,R2,1*%
%TO.N,Net-(D3-Pad2)*%
X138430000Y-92710000D03*
D15*
%TO.P,R2,2*%
%TO.N,GND*%
X128270000Y-92710000D03*
%TD*%
%TO.P,R3,2*%
%TO.N,Net-(R3-Pad2)*%
X138430000Y-119380000D03*
D13*
%TO.P,R3,1*%
%TO.N,Net-(Q1-Pad1)*%
X128270000Y-119380000D03*
%TD*%
%TO.P,R4,1*%
%TO.N,GND*%
X128270000Y-99060000D03*
D15*
%TO.P,R4,2*%
%TO.N,Net-(R3-Pad2)*%
X138430000Y-99060000D03*
%TD*%
D22*
%TO.P,RV1,3*%
%TO.N,Net-(D1-Pad1)*%
X146210000Y-78740000D03*
%TO.P,RV1,2*%
%TO.N,Net-(C1-Pad1)*%
X151210000Y-78740000D03*
%TO.P,RV1,1*%
%TO.N,Net-(D2-Pad2)*%
X156210000Y-78740000D03*
%TD*%
D14*
%TO.P,U1,1*%
%TO.N,GND*%
X148590000Y-99060000D03*
D15*
%TO.P,U1,5*%
%TO.N,Net-(C2-Pad1)*%
X156210000Y-106680000D03*
%TO.P,U1,2*%
%TO.N,Net-(C1-Pad1)*%
X148590000Y-101600000D03*
%TO.P,U1,6*%
X156210000Y-104140000D03*
%TO.P,U1,3*%
%TO.N,Net-(R3-Pad2)*%
X148590000Y-104140000D03*
%TO.P,U1,7*%
%TO.N,Net-(D1-Pad2)*%
X156210000Y-101600000D03*
%TO.P,U1,4*%
%TO.N,Net-(D3-Pad1)*%
X148590000Y-106680000D03*
%TO.P,U1,8*%
X156210000Y-99060000D03*
%TD*%
D23*
%TO.N,Net-(C1-Pad1)*%
X151210000Y-78740000D02*
X151210000Y-81454000D01*
X144780000Y-87884000D02*
X144780000Y-100584000D01*
X151210000Y-81454000D02*
X144780000Y-87884000D01*
X145796000Y-101600000D02*
X148590000Y-101600000D01*
X144780000Y-100584000D02*
X145796000Y-101600000D01*
%TO.N,Net-(D1-Pad2)*%
X164084000Y-100330000D02*
X162814000Y-100330000D01*
X161544000Y-101600000D02*
X156210000Y-101600000D01*
X162814000Y-100330000D02*
X161544000Y-101600000D01*
%TO.N,Net-(D3-Pad1)*%
X148590000Y-106680000D02*
X149860000Y-106680000D01*
X149860000Y-106680000D02*
X152400000Y-104140000D01*
X156210000Y-99060000D02*
X155194000Y-99060000D01*
X152400000Y-101854000D02*
X152400000Y-104140000D01*
X155194000Y-99060000D02*
X152400000Y-101854000D01*
%TO.N,Net-(R3-Pad2)*%
X140716000Y-99060000D02*
X138430000Y-99060000D01*
X145796000Y-104140000D02*
X140716000Y-99060000D01*
X148590000Y-104140000D02*
X145796000Y-104140000D01*
X138430000Y-119380000D02*
X138430000Y-117602000D01*
X145796000Y-110236000D02*
X145796000Y-104140000D01*
X138430000Y-117602000D02*
X145796000Y-110236000D01*
%TD*%
D24*
%TO.N,GND*%
X182220001Y-125070000D02*
X112420000Y-125070000D01*
X112420000Y-121241117D01*
X176827000Y-121241117D01*
X176827000Y-121582883D01*
X176893675Y-121918081D01*
X177024463Y-122233831D01*
X177214337Y-122517998D01*
X177456002Y-122759663D01*
X177740169Y-122949537D01*
X178055919Y-123080325D01*
X178391117Y-123147000D01*
X178732883Y-123147000D01*
X179068081Y-123080325D01*
X179383831Y-122949537D01*
X179667998Y-122759663D01*
X179909663Y-122517998D01*
X180099537Y-122233831D01*
X180230325Y-121918081D01*
X180297000Y-121582883D01*
X180297000Y-121241117D01*
X180230325Y-120905919D01*
X180099537Y-120590169D01*
X179909663Y-120306002D01*
X179667998Y-120064337D01*
X179383831Y-119874463D01*
X179068081Y-119743675D01*
X178732883Y-119677000D01*
X178391117Y-119677000D01*
X178055919Y-119743675D01*
X177740169Y-119874463D01*
X177456002Y-120064337D01*
X177214337Y-120306002D01*
X177024463Y-120590169D01*
X176893675Y-120905919D01*
X176827000Y-121241117D01*
X112420000Y-121241117D01*
X112420000Y-118345000D01*
X117706928Y-118345000D01*
X117706928Y-120415000D01*
X117719188Y-120539482D01*
X117755498Y-120659180D01*
X117814463Y-120769494D01*
X117893815Y-120866185D01*
X117990506Y-120945537D01*
X118100820Y-121004502D01*
X118220518Y-121040812D01*
X118345000Y-121053072D01*
X120415000Y-121053072D01*
X120539482Y-121040812D01*
X120659180Y-121004502D01*
X120769494Y-120945537D01*
X120866185Y-120866185D01*
X120945537Y-120769494D01*
X121004502Y-120659180D01*
X121040812Y-120539482D01*
X121053072Y-120415000D01*
X121053072Y-119238665D01*
X126835000Y-119238665D01*
X126835000Y-119521335D01*
X126890147Y-119798574D01*
X126998320Y-120059727D01*
X127155363Y-120294759D01*
X127355241Y-120494637D01*
X127590273Y-120651680D01*
X127851426Y-120759853D01*
X128128665Y-120815000D01*
X128411335Y-120815000D01*
X128688574Y-120759853D01*
X128949727Y-120651680D01*
X129184759Y-120494637D01*
X129384637Y-120294759D01*
X129541680Y-120059727D01*
X129649853Y-119798574D01*
X129705000Y-119521335D01*
X129705000Y-119238665D01*
X129649853Y-118961426D01*
X129541680Y-118700273D01*
X129384637Y-118465241D01*
X129184759Y-118265363D01*
X128949727Y-118108320D01*
X128688574Y-118000147D01*
X128411335Y-117945000D01*
X128128665Y-117945000D01*
X127851426Y-118000147D01*
X127590273Y-118108320D01*
X127355241Y-118265363D01*
X127155363Y-118465241D01*
X126998320Y-118700273D01*
X126890147Y-118961426D01*
X126835000Y-119238665D01*
X121053072Y-119238665D01*
X121053072Y-118345000D01*
X121040812Y-118220518D01*
X121004502Y-118100820D01*
X120945537Y-117990506D01*
X120866185Y-117893815D01*
X120769494Y-117814463D01*
X120745828Y-117801813D01*
X120859934Y-117631041D01*
X120985822Y-117327121D01*
X121050000Y-117004481D01*
X121050000Y-116675519D01*
X120985822Y-116352879D01*
X120859934Y-116048959D01*
X120677173Y-115775437D01*
X120444563Y-115542827D01*
X120352862Y-115481554D01*
X120360766Y-115460371D01*
X119380000Y-114479605D01*
X118399234Y-115460371D01*
X118407138Y-115481554D01*
X118315437Y-115542827D01*
X118082827Y-115775437D01*
X117900066Y-116048959D01*
X117774178Y-116352879D01*
X117710000Y-116675519D01*
X117710000Y-117004481D01*
X117774178Y-117327121D01*
X117900066Y-117631041D01*
X118014172Y-117801813D01*
X117990506Y-117814463D01*
X117893815Y-117893815D01*
X117814463Y-117990506D01*
X117755498Y-118100820D01*
X117719188Y-118220518D01*
X117706928Y-118345000D01*
X112420000Y-118345000D01*
X112420000Y-114361209D01*
X117703037Y-114361209D01*
X117747200Y-114687192D01*
X117854111Y-114998296D01*
X117951650Y-115180776D01*
X118219629Y-115280766D01*
X119200395Y-114300000D01*
X119559605Y-114300000D01*
X120540371Y-115280766D01*
X120808350Y-115180776D01*
X120952736Y-114885196D01*
X121036682Y-114567127D01*
X121056963Y-114238791D01*
X121012800Y-113912808D01*
X120905889Y-113601704D01*
X120808350Y-113419224D01*
X120540371Y-113319234D01*
X119559605Y-114300000D01*
X119200395Y-114300000D01*
X118219629Y-113319234D01*
X117951650Y-113419224D01*
X117807264Y-113714804D01*
X117723318Y-114032873D01*
X117703037Y-114361209D01*
X112420000Y-114361209D01*
X112420000Y-113139629D01*
X118399234Y-113139629D01*
X119380000Y-114120395D01*
X120360766Y-113139629D01*
X120260776Y-112871650D01*
X120017272Y-112752702D01*
X131306903Y-112752702D01*
X131378486Y-112996671D01*
X131633996Y-113117571D01*
X131908184Y-113186300D01*
X132190512Y-113200217D01*
X132470130Y-113158787D01*
X132736292Y-113063603D01*
X132861514Y-112996671D01*
X132933097Y-112752702D01*
X132120000Y-111939605D01*
X131306903Y-112752702D01*
X120017272Y-112752702D01*
X119965196Y-112727264D01*
X119647127Y-112643318D01*
X119318791Y-112623037D01*
X118992808Y-112667200D01*
X118681704Y-112774111D01*
X118499224Y-112871650D01*
X118399234Y-113139629D01*
X112420000Y-113139629D01*
X112420000Y-111830512D01*
X130679783Y-111830512D01*
X130721213Y-112110130D01*
X130816397Y-112376292D01*
X130883329Y-112501514D01*
X131127298Y-112573097D01*
X131940395Y-111760000D01*
X132299605Y-111760000D01*
X133112702Y-112573097D01*
X133356671Y-112501514D01*
X133370324Y-112472659D01*
X133505363Y-112674759D01*
X133705241Y-112874637D01*
X133940273Y-113031680D01*
X134201426Y-113139853D01*
X134478665Y-113195000D01*
X134761335Y-113195000D01*
X135038574Y-113139853D01*
X135299727Y-113031680D01*
X135534759Y-112874637D01*
X135734637Y-112674759D01*
X135891680Y-112439727D01*
X135999853Y-112178574D01*
X136055000Y-111901335D01*
X136055000Y-111618665D01*
X135999853Y-111341426D01*
X135891680Y-111080273D01*
X135734637Y-110845241D01*
X135534759Y-110645363D01*
X135299727Y-110488320D01*
X135038574Y-110380147D01*
X134761335Y-110325000D01*
X134478665Y-110325000D01*
X134201426Y-110380147D01*
X133940273Y-110488320D01*
X133705241Y-110645363D01*
X133505363Y-110845241D01*
X133371308Y-111045869D01*
X133356671Y-111018486D01*
X133112702Y-110946903D01*
X132299605Y-111760000D01*
X131940395Y-111760000D01*
X131127298Y-110946903D01*
X130883329Y-111018486D01*
X130762429Y-111273996D01*
X130693700Y-111548184D01*
X130679783Y-111830512D01*
X112420000Y-111830512D01*
X112420000Y-110767298D01*
X131306903Y-110767298D01*
X132120000Y-111580395D01*
X132933097Y-110767298D01*
X132861514Y-110523329D01*
X132606004Y-110402429D01*
X132331816Y-110333700D01*
X132049488Y-110319783D01*
X131769870Y-110361213D01*
X131503708Y-110456397D01*
X131378486Y-110523329D01*
X131306903Y-110767298D01*
X112420000Y-110767298D01*
X112420000Y-107271117D01*
X114343000Y-107271117D01*
X114343000Y-107612883D01*
X114409675Y-107948081D01*
X114540463Y-108263831D01*
X114730337Y-108547998D01*
X114972002Y-108789663D01*
X115256169Y-108979537D01*
X115571919Y-109110325D01*
X115907117Y-109177000D01*
X116248883Y-109177000D01*
X116584081Y-109110325D01*
X116899831Y-108979537D01*
X117183998Y-108789663D01*
X117425663Y-108547998D01*
X117615537Y-108263831D01*
X117746325Y-107948081D01*
X117813000Y-107612883D01*
X117813000Y-107271117D01*
X117746325Y-106935919D01*
X117615537Y-106620169D01*
X117470231Y-106402702D01*
X131306903Y-106402702D01*
X131378486Y-106646671D01*
X131633996Y-106767571D01*
X131908184Y-106836300D01*
X132190512Y-106850217D01*
X132470130Y-106808787D01*
X132736292Y-106713603D01*
X132861514Y-106646671D01*
X132933097Y-106402702D01*
X132120000Y-105589605D01*
X131306903Y-106402702D01*
X117470231Y-106402702D01*
X117425663Y-106336002D01*
X117183998Y-106094337D01*
X116899831Y-105904463D01*
X116584081Y-105773675D01*
X116248883Y-105707000D01*
X115907117Y-105707000D01*
X115571919Y-105773675D01*
X115256169Y-105904463D01*
X114972002Y-106094337D01*
X114730337Y-106336002D01*
X114540463Y-106620169D01*
X114409675Y-106935919D01*
X114343000Y-107271117D01*
X112420000Y-107271117D01*
X112420000Y-105480512D01*
X130679783Y-105480512D01*
X130721213Y-105760130D01*
X130816397Y-106026292D01*
X130883329Y-106151514D01*
X131127298Y-106223097D01*
X131940395Y-105410000D01*
X132299605Y-105410000D01*
X133112702Y-106223097D01*
X133356671Y-106151514D01*
X133370324Y-106122659D01*
X133505363Y-106324759D01*
X133705241Y-106524637D01*
X133940273Y-106681680D01*
X134201426Y-106789853D01*
X134478665Y-106845000D01*
X134761335Y-106845000D01*
X135038574Y-106789853D01*
X135299727Y-106681680D01*
X135534759Y-106524637D01*
X135734637Y-106324759D01*
X135891680Y-106089727D01*
X135999853Y-105828574D01*
X136055000Y-105551335D01*
X136055000Y-105268665D01*
X135999853Y-104991426D01*
X135891680Y-104730273D01*
X135734637Y-104495241D01*
X135534759Y-104295363D01*
X135299727Y-104138320D01*
X135038574Y-104030147D01*
X134761335Y-103975000D01*
X134478665Y-103975000D01*
X134201426Y-104030147D01*
X133940273Y-104138320D01*
X133705241Y-104295363D01*
X133505363Y-104495241D01*
X133371308Y-104695869D01*
X133356671Y-104668486D01*
X133112702Y-104596903D01*
X132299605Y-105410000D01*
X131940395Y-105410000D01*
X131127298Y-104596903D01*
X130883329Y-104668486D01*
X130762429Y-104923996D01*
X130693700Y-105198184D01*
X130679783Y-105480512D01*
X112420000Y-105480512D01*
X112420000Y-104417298D01*
X131306903Y-104417298D01*
X132120000Y-105230395D01*
X132933097Y-104417298D01*
X132861514Y-104173329D01*
X132606004Y-104052429D01*
X132331816Y-103983700D01*
X132049488Y-103969783D01*
X131769870Y-104011213D01*
X131503708Y-104106397D01*
X131378486Y-104173329D01*
X131306903Y-104417298D01*
X112420000Y-104417298D01*
X112420000Y-101830000D01*
X117241928Y-101830000D01*
X117254188Y-101954482D01*
X117290498Y-102074180D01*
X117349463Y-102184494D01*
X117428815Y-102281185D01*
X117525506Y-102360537D01*
X117635820Y-102419502D01*
X117755518Y-102455812D01*
X117880000Y-102468072D01*
X119094250Y-102465000D01*
X119253000Y-102306250D01*
X119253000Y-100457000D01*
X119507000Y-100457000D01*
X119507000Y-102306250D01*
X119665750Y-102465000D01*
X120880000Y-102468072D01*
X121004482Y-102455812D01*
X121124180Y-102419502D01*
X121234494Y-102360537D01*
X121331185Y-102281185D01*
X121410537Y-102184494D01*
X121469502Y-102074180D01*
X121505812Y-101954482D01*
X121518072Y-101830000D01*
X121515000Y-100615750D01*
X121356250Y-100457000D01*
X119507000Y-100457000D01*
X119253000Y-100457000D01*
X117403750Y-100457000D01*
X117245000Y-100615750D01*
X117241928Y-101830000D01*
X112420000Y-101830000D01*
X112420000Y-98830000D01*
X117241928Y-98830000D01*
X117245000Y-100044250D01*
X117403750Y-100203000D01*
X119253000Y-100203000D01*
X119253000Y-98353750D01*
X119507000Y-98353750D01*
X119507000Y-100203000D01*
X121356250Y-100203000D01*
X121506548Y-100052702D01*
X127456903Y-100052702D01*
X127528486Y-100296671D01*
X127783996Y-100417571D01*
X128058184Y-100486300D01*
X128340512Y-100500217D01*
X128620130Y-100458787D01*
X128886292Y-100363603D01*
X129011514Y-100296671D01*
X129083097Y-100052702D01*
X128270000Y-99239605D01*
X127456903Y-100052702D01*
X121506548Y-100052702D01*
X121515000Y-100044250D01*
X121517311Y-99130512D01*
X126829783Y-99130512D01*
X126871213Y-99410130D01*
X126966397Y-99676292D01*
X127033329Y-99801514D01*
X127277298Y-99873097D01*
X128090395Y-99060000D01*
X128449605Y-99060000D01*
X129262702Y-99873097D01*
X129506671Y-99801514D01*
X129627571Y-99546004D01*
X129696300Y-99271816D01*
X129710217Y-98989488D01*
X129699724Y-98918665D01*
X136995000Y-98918665D01*
X136995000Y-99201335D01*
X137050147Y-99478574D01*
X137158320Y-99739727D01*
X137315363Y-99974759D01*
X137515241Y-100174637D01*
X137750273Y-100331680D01*
X138011426Y-100439853D01*
X138288665Y-100495000D01*
X138571335Y-100495000D01*
X138848574Y-100439853D01*
X139109727Y-100331680D01*
X139344759Y-100174637D01*
X139544637Y-99974759D01*
X139648043Y-99820000D01*
X140401199Y-99820000D01*
X145036001Y-104454803D01*
X145036000Y-109921198D01*
X137918998Y-117038201D01*
X137890000Y-117061999D01*
X137866202Y-117090997D01*
X137866201Y-117090998D01*
X137795026Y-117177724D01*
X137724454Y-117309754D01*
X137680998Y-117453015D01*
X137666324Y-117602000D01*
X137670001Y-117639332D01*
X137670001Y-118161956D01*
X137515241Y-118265363D01*
X137315363Y-118465241D01*
X137158320Y-118700273D01*
X137050147Y-118961426D01*
X136995000Y-119238665D01*
X136995000Y-119521335D01*
X137050147Y-119798574D01*
X137158320Y-120059727D01*
X137315363Y-120294759D01*
X137515241Y-120494637D01*
X137750273Y-120651680D01*
X138011426Y-120759853D01*
X138288665Y-120815000D01*
X138571335Y-120815000D01*
X138848574Y-120759853D01*
X139109727Y-120651680D01*
X139344759Y-120494637D01*
X139544637Y-120294759D01*
X139701680Y-120059727D01*
X139809853Y-119798574D01*
X139865000Y-119521335D01*
X139865000Y-119238665D01*
X139809853Y-118961426D01*
X139701680Y-118700273D01*
X139544637Y-118465241D01*
X139344759Y-118265363D01*
X139190000Y-118161957D01*
X139190000Y-117916801D01*
X140437684Y-116669117D01*
X164635000Y-116669117D01*
X164635000Y-117010883D01*
X164701675Y-117346081D01*
X164832463Y-117661831D01*
X165022337Y-117945998D01*
X165264002Y-118187663D01*
X165548169Y-118377537D01*
X165863919Y-118508325D01*
X166199117Y-118575000D01*
X166540883Y-118575000D01*
X166876081Y-118508325D01*
X167191831Y-118377537D01*
X167475998Y-118187663D01*
X167717663Y-117945998D01*
X167907537Y-117661831D01*
X168038325Y-117346081D01*
X168105000Y-117010883D01*
X168105000Y-116669117D01*
X168038325Y-116333919D01*
X167907537Y-116018169D01*
X167717663Y-115734002D01*
X167475998Y-115492337D01*
X167191831Y-115302463D01*
X166876081Y-115171675D01*
X166540883Y-115105000D01*
X166199117Y-115105000D01*
X165863919Y-115171675D01*
X165548169Y-115302463D01*
X165264002Y-115492337D01*
X165022337Y-115734002D01*
X164832463Y-116018169D01*
X164701675Y-116333919D01*
X164635000Y-116669117D01*
X140437684Y-116669117D01*
X143017080Y-114089721D01*
X173125000Y-114089721D01*
X173125000Y-114510279D01*
X173207047Y-114922756D01*
X173367988Y-115311302D01*
X173601637Y-115660983D01*
X173899017Y-115958363D01*
X174248698Y-116192012D01*
X174637244Y-116352953D01*
X175049721Y-116435000D01*
X175470279Y-116435000D01*
X175882756Y-116352953D01*
X176271302Y-116192012D01*
X176620983Y-115958363D01*
X176918363Y-115660983D01*
X177152012Y-115311302D01*
X177312953Y-114922756D01*
X177395000Y-114510279D01*
X177395000Y-114089721D01*
X177312953Y-113677244D01*
X177152012Y-113288698D01*
X176918363Y-112939017D01*
X176620983Y-112641637D01*
X176271302Y-112407988D01*
X175882756Y-112247047D01*
X175470279Y-112165000D01*
X175049721Y-112165000D01*
X174637244Y-112247047D01*
X174248698Y-112407988D01*
X173899017Y-112641637D01*
X173601637Y-112939017D01*
X173367988Y-113288698D01*
X173207047Y-113677244D01*
X173125000Y-114089721D01*
X143017080Y-114089721D01*
X146307004Y-110799798D01*
X146336001Y-110776001D01*
X146381960Y-110720000D01*
X146430974Y-110660277D01*
X146501546Y-110528247D01*
X146503038Y-110523329D01*
X146545003Y-110384986D01*
X146556000Y-110273333D01*
X146556000Y-110273324D01*
X146559676Y-110236001D01*
X146556000Y-110198678D01*
X146556000Y-104900000D01*
X147371957Y-104900000D01*
X147475363Y-105054759D01*
X147675241Y-105254637D01*
X147907759Y-105410000D01*
X147675241Y-105565363D01*
X147475363Y-105765241D01*
X147318320Y-106000273D01*
X147210147Y-106261426D01*
X147155000Y-106538665D01*
X147155000Y-106821335D01*
X147210147Y-107098574D01*
X147318320Y-107359727D01*
X147475363Y-107594759D01*
X147675241Y-107794637D01*
X147910273Y-107951680D01*
X148171426Y-108059853D01*
X148448665Y-108115000D01*
X148731335Y-108115000D01*
X149008574Y-108059853D01*
X149269727Y-107951680D01*
X149504759Y-107794637D01*
X149704637Y-107594759D01*
X149808043Y-107440000D01*
X149822678Y-107440000D01*
X149860000Y-107443676D01*
X149897322Y-107440000D01*
X149897333Y-107440000D01*
X150008986Y-107429003D01*
X150152247Y-107385546D01*
X150284276Y-107314974D01*
X150400001Y-107220001D01*
X150423804Y-107190997D01*
X152911008Y-104703795D01*
X152940001Y-104680001D01*
X152963795Y-104651008D01*
X152963799Y-104651004D01*
X153034973Y-104564277D01*
X153034974Y-104564276D01*
X153105546Y-104432247D01*
X153149003Y-104288986D01*
X153160000Y-104177333D01*
X153160000Y-104177324D01*
X153163676Y-104140001D01*
X153160000Y-104102678D01*
X153160000Y-102168801D01*
X155224703Y-100104099D01*
X155295241Y-100174637D01*
X155527759Y-100330000D01*
X155295241Y-100485363D01*
X155095363Y-100685241D01*
X154938320Y-100920273D01*
X154830147Y-101181426D01*
X154775000Y-101458665D01*
X154775000Y-101741335D01*
X154830147Y-102018574D01*
X154938320Y-102279727D01*
X155095363Y-102514759D01*
X155295241Y-102714637D01*
X155527759Y-102870000D01*
X155295241Y-103025363D01*
X155095363Y-103225241D01*
X154938320Y-103460273D01*
X154830147Y-103721426D01*
X154775000Y-103998665D01*
X154775000Y-104281335D01*
X154830147Y-104558574D01*
X154938320Y-104819727D01*
X155095363Y-105054759D01*
X155295241Y-105254637D01*
X155527759Y-105410000D01*
X155295241Y-105565363D01*
X155095363Y-105765241D01*
X154938320Y-106000273D01*
X154830147Y-106261426D01*
X154775000Y-106538665D01*
X154775000Y-106821335D01*
X154830147Y-107098574D01*
X154938320Y-107359727D01*
X155095363Y-107594759D01*
X155295241Y-107794637D01*
X155530273Y-107951680D01*
X155791426Y-108059853D01*
X156068665Y-108115000D01*
X156351335Y-108115000D01*
X156628574Y-108059853D01*
X156889727Y-107951680D01*
X157124759Y-107794637D01*
X157324637Y-107594759D01*
X157481680Y-107359727D01*
X157589853Y-107098574D01*
X157645000Y-106821335D01*
X157645000Y-106538665D01*
X157589853Y-106261426D01*
X157481680Y-106000273D01*
X157324637Y-105765241D01*
X157139396Y-105580000D01*
X164631928Y-105580000D01*
X164631928Y-107780000D01*
X164644188Y-107904482D01*
X164680498Y-108024180D01*
X164739463Y-108134494D01*
X164818815Y-108231185D01*
X164915506Y-108310537D01*
X165025820Y-108369502D01*
X165145518Y-108405812D01*
X165270000Y-108418072D01*
X167470000Y-108418072D01*
X167594482Y-108405812D01*
X167714180Y-108369502D01*
X167824494Y-108310537D01*
X167921185Y-108231185D01*
X168000537Y-108134494D01*
X168059502Y-108024180D01*
X168095812Y-107904482D01*
X168108072Y-107780000D01*
X168108072Y-107720000D01*
X173121928Y-107720000D01*
X173121928Y-110720000D01*
X173134188Y-110844482D01*
X173170498Y-110964180D01*
X173229463Y-111074494D01*
X173308815Y-111171185D01*
X173405506Y-111250537D01*
X173515820Y-111309502D01*
X173635518Y-111345812D01*
X173760000Y-111358072D01*
X176760000Y-111358072D01*
X176884482Y-111345812D01*
X177004180Y-111309502D01*
X177114494Y-111250537D01*
X177211185Y-111171185D01*
X177290537Y-111074494D01*
X177349502Y-110964180D01*
X177385812Y-110844482D01*
X177398072Y-110720000D01*
X177398072Y-107720000D01*
X177385812Y-107595518D01*
X177349502Y-107475820D01*
X177290537Y-107365506D01*
X177211185Y-107268815D01*
X177114494Y-107189463D01*
X177004180Y-107130498D01*
X176884482Y-107094188D01*
X176760000Y-107081928D01*
X173760000Y-107081928D01*
X173635518Y-107094188D01*
X173515820Y-107130498D01*
X173405506Y-107189463D01*
X173308815Y-107268815D01*
X173229463Y-107365506D01*
X173170498Y-107475820D01*
X173134188Y-107595518D01*
X173121928Y-107720000D01*
X168108072Y-107720000D01*
X168108072Y-105580000D01*
X168095812Y-105455518D01*
X168059502Y-105335820D01*
X168000537Y-105225506D01*
X167921185Y-105128815D01*
X167824494Y-105049463D01*
X167714180Y-104990498D01*
X167594482Y-104954188D01*
X167470000Y-104941928D01*
X165270000Y-104941928D01*
X165145518Y-104954188D01*
X165025820Y-104990498D01*
X164915506Y-105049463D01*
X164818815Y-105128815D01*
X164739463Y-105225506D01*
X164680498Y-105335820D01*
X164644188Y-105455518D01*
X164631928Y-105580000D01*
X157139396Y-105580000D01*
X157124759Y-105565363D01*
X156892241Y-105410000D01*
X157124759Y-105254637D01*
X157324637Y-105054759D01*
X157481680Y-104819727D01*
X157589853Y-104558574D01*
X157645000Y-104281335D01*
X157645000Y-103998665D01*
X157589853Y-103721426D01*
X157481680Y-103460273D01*
X157324637Y-103225241D01*
X157124759Y-103025363D01*
X156892241Y-102870000D01*
X157124759Y-102714637D01*
X157324637Y-102514759D01*
X157428043Y-102360000D01*
X161506678Y-102360000D01*
X161544000Y-102363676D01*
X161581322Y-102360000D01*
X161581333Y-102360000D01*
X161692986Y-102349003D01*
X161836247Y-102305546D01*
X161968276Y-102234974D01*
X162084001Y-102140001D01*
X162107804Y-102110997D01*
X162971703Y-101247099D01*
X163169241Y-101444637D01*
X163404273Y-101601680D01*
X163665426Y-101709853D01*
X163942665Y-101765000D01*
X164225335Y-101765000D01*
X164502574Y-101709853D01*
X164763727Y-101601680D01*
X164998759Y-101444637D01*
X165198637Y-101244759D01*
X165355680Y-101009727D01*
X165463853Y-100748574D01*
X165519000Y-100471335D01*
X165519000Y-100188665D01*
X172809000Y-100188665D01*
X172809000Y-100471335D01*
X172864147Y-100748574D01*
X172972320Y-101009727D01*
X173129363Y-101244759D01*
X173329241Y-101444637D01*
X173564273Y-101601680D01*
X173825426Y-101709853D01*
X174102665Y-101765000D01*
X174385335Y-101765000D01*
X174662574Y-101709853D01*
X174923727Y-101601680D01*
X175158759Y-101444637D01*
X175358637Y-101244759D01*
X175515680Y-101009727D01*
X175623853Y-100748574D01*
X175679000Y-100471335D01*
X175679000Y-100188665D01*
X175623853Y-99911426D01*
X175515680Y-99650273D01*
X175358637Y-99415241D01*
X175158759Y-99215363D01*
X174923727Y-99058320D01*
X174662574Y-98950147D01*
X174385335Y-98895000D01*
X174102665Y-98895000D01*
X173825426Y-98950147D01*
X173564273Y-99058320D01*
X173329241Y-99215363D01*
X173129363Y-99415241D01*
X172972320Y-99650273D01*
X172864147Y-99911426D01*
X172809000Y-100188665D01*
X165519000Y-100188665D01*
X165463853Y-99911426D01*
X165355680Y-99650273D01*
X165198637Y-99415241D01*
X164998759Y-99215363D01*
X164763727Y-99058320D01*
X164502574Y-98950147D01*
X164225335Y-98895000D01*
X163942665Y-98895000D01*
X163665426Y-98950147D01*
X163404273Y-99058320D01*
X163169241Y-99215363D01*
X162969363Y-99415241D01*
X162865957Y-99570000D01*
X162851322Y-99570000D01*
X162813999Y-99566324D01*
X162776676Y-99570000D01*
X162776667Y-99570000D01*
X162665014Y-99580997D01*
X162521753Y-99624454D01*
X162389724Y-99695026D01*
X162273999Y-99789999D01*
X162250201Y-99818997D01*
X161229199Y-100840000D01*
X157428043Y-100840000D01*
X157324637Y-100685241D01*
X157124759Y-100485363D01*
X156892241Y-100330000D01*
X157124759Y-100174637D01*
X157324637Y-99974759D01*
X157481680Y-99739727D01*
X157589853Y-99478574D01*
X157645000Y-99201335D01*
X157645000Y-98918665D01*
X157589853Y-98641426D01*
X157481680Y-98380273D01*
X157324637Y-98145241D01*
X157124759Y-97945363D01*
X156889727Y-97788320D01*
X156628574Y-97680147D01*
X156351335Y-97625000D01*
X156068665Y-97625000D01*
X155791426Y-97680147D01*
X155530273Y-97788320D01*
X155295241Y-97945363D01*
X155095363Y-98145241D01*
X154969253Y-98333978D01*
X154901753Y-98354454D01*
X154769724Y-98425026D01*
X154653999Y-98519999D01*
X154630201Y-98548997D01*
X151889003Y-101290196D01*
X151859999Y-101313999D01*
X151804871Y-101381174D01*
X151765026Y-101429724D01*
X151753646Y-101451015D01*
X151694454Y-101561754D01*
X151650997Y-101705015D01*
X151640000Y-101816668D01*
X151640000Y-101816678D01*
X151636324Y-101854000D01*
X151640000Y-101891323D01*
X151640001Y-103825196D01*
X149702297Y-105762901D01*
X149504759Y-105565363D01*
X149272241Y-105410000D01*
X149504759Y-105254637D01*
X149704637Y-105054759D01*
X149861680Y-104819727D01*
X149969853Y-104558574D01*
X150025000Y-104281335D01*
X150025000Y-103998665D01*
X149969853Y-103721426D01*
X149861680Y-103460273D01*
X149704637Y-103225241D01*
X149504759Y-103025363D01*
X149272241Y-102870000D01*
X149504759Y-102714637D01*
X149704637Y-102514759D01*
X149861680Y-102279727D01*
X149969853Y-102018574D01*
X150025000Y-101741335D01*
X150025000Y-101458665D01*
X149969853Y-101181426D01*
X149861680Y-100920273D01*
X149704637Y-100685241D01*
X149506039Y-100486643D01*
X149514482Y-100485812D01*
X149634180Y-100449502D01*
X149744494Y-100390537D01*
X149841185Y-100311185D01*
X149920537Y-100214494D01*
X149979502Y-100104180D01*
X150015812Y-99984482D01*
X150028072Y-99860000D01*
X150025000Y-99345750D01*
X149866250Y-99187000D01*
X148717000Y-99187000D01*
X148717000Y-99207000D01*
X148463000Y-99207000D01*
X148463000Y-99187000D01*
X147313750Y-99187000D01*
X147155000Y-99345750D01*
X147151928Y-99860000D01*
X147164188Y-99984482D01*
X147200498Y-100104180D01*
X147259463Y-100214494D01*
X147338815Y-100311185D01*
X147435506Y-100390537D01*
X147545820Y-100449502D01*
X147665518Y-100485812D01*
X147673961Y-100486643D01*
X147475363Y-100685241D01*
X147371957Y-100840000D01*
X146110802Y-100840000D01*
X145540000Y-100269199D01*
X145540000Y-98260000D01*
X147151928Y-98260000D01*
X147155000Y-98774250D01*
X147313750Y-98933000D01*
X148463000Y-98933000D01*
X148463000Y-97783750D01*
X148717000Y-97783750D01*
X148717000Y-98933000D01*
X149866250Y-98933000D01*
X150025000Y-98774250D01*
X150028072Y-98260000D01*
X150015812Y-98135518D01*
X149979502Y-98015820D01*
X149920537Y-97905506D01*
X149841185Y-97808815D01*
X149744494Y-97729463D01*
X149634180Y-97670498D01*
X149514482Y-97634188D01*
X149390000Y-97621928D01*
X148875750Y-97625000D01*
X148717000Y-97783750D01*
X148463000Y-97783750D01*
X148304250Y-97625000D01*
X147790000Y-97621928D01*
X147665518Y-97634188D01*
X147545820Y-97670498D01*
X147435506Y-97729463D01*
X147338815Y-97808815D01*
X147259463Y-97905506D01*
X147200498Y-98015820D01*
X147164188Y-98135518D01*
X147151928Y-98260000D01*
X145540000Y-98260000D01*
X145540000Y-92672000D01*
X163661928Y-92672000D01*
X163661928Y-94272000D01*
X163674188Y-94396482D01*
X163710498Y-94516180D01*
X163769463Y-94626494D01*
X163848815Y-94723185D01*
X163945506Y-94802537D01*
X164055820Y-94861502D01*
X164175518Y-94897812D01*
X164300000Y-94910072D01*
X165900000Y-94910072D01*
X166024482Y-94897812D01*
X166144180Y-94861502D01*
X166254494Y-94802537D01*
X166351185Y-94723185D01*
X166430537Y-94626494D01*
X166489502Y-94516180D01*
X166525812Y-94396482D01*
X166538072Y-94272000D01*
X166538072Y-93330665D01*
X171285000Y-93330665D01*
X171285000Y-93613335D01*
X171340147Y-93890574D01*
X171448320Y-94151727D01*
X171605363Y-94386759D01*
X171805241Y-94586637D01*
X172040273Y-94743680D01*
X172301426Y-94851853D01*
X172578665Y-94907000D01*
X172861335Y-94907000D01*
X173138574Y-94851853D01*
X173399727Y-94743680D01*
X173634759Y-94586637D01*
X173834637Y-94386759D01*
X173991680Y-94151727D01*
X174099853Y-93890574D01*
X174155000Y-93613335D01*
X174155000Y-93330665D01*
X174099853Y-93053426D01*
X173991680Y-92792273D01*
X173834637Y-92557241D01*
X173634759Y-92357363D01*
X173399727Y-92200320D01*
X173138574Y-92092147D01*
X172861335Y-92037000D01*
X172578665Y-92037000D01*
X172301426Y-92092147D01*
X172040273Y-92200320D01*
X171805241Y-92357363D01*
X171605363Y-92557241D01*
X171448320Y-92792273D01*
X171340147Y-93053426D01*
X171285000Y-93330665D01*
X166538072Y-93330665D01*
X166538072Y-92672000D01*
X166525812Y-92547518D01*
X166489502Y-92427820D01*
X166430537Y-92317506D01*
X166351185Y-92220815D01*
X166254494Y-92141463D01*
X166144180Y-92082498D01*
X166024482Y-92046188D01*
X165900000Y-92033928D01*
X164300000Y-92033928D01*
X164175518Y-92046188D01*
X164055820Y-92082498D01*
X163945506Y-92141463D01*
X163848815Y-92220815D01*
X163769463Y-92317506D01*
X163710498Y-92427820D01*
X163674188Y-92547518D01*
X163661928Y-92672000D01*
X145540000Y-92672000D01*
X145540000Y-88198801D01*
X146250136Y-87488665D01*
X163665000Y-87488665D01*
X163665000Y-87771335D01*
X163720147Y-88048574D01*
X163828320Y-88309727D01*
X163985363Y-88544759D01*
X164185241Y-88744637D01*
X164420273Y-88901680D01*
X164681426Y-89009853D01*
X164958665Y-89065000D01*
X165241335Y-89065000D01*
X165518574Y-89009853D01*
X165779727Y-88901680D01*
X166014759Y-88744637D01*
X166214637Y-88544759D01*
X166371680Y-88309727D01*
X166479853Y-88048574D01*
X166535000Y-87771335D01*
X166535000Y-87488665D01*
X166479853Y-87211426D01*
X166371680Y-86950273D01*
X166291317Y-86830000D01*
X171281928Y-86830000D01*
X171281928Y-88430000D01*
X171294188Y-88554482D01*
X171330498Y-88674180D01*
X171389463Y-88784494D01*
X171468815Y-88881185D01*
X171565506Y-88960537D01*
X171675820Y-89019502D01*
X171795518Y-89055812D01*
X171920000Y-89068072D01*
X173520000Y-89068072D01*
X173644482Y-89055812D01*
X173764180Y-89019502D01*
X173874494Y-88960537D01*
X173971185Y-88881185D01*
X174050537Y-88784494D01*
X174109502Y-88674180D01*
X174145812Y-88554482D01*
X174158072Y-88430000D01*
X174158072Y-86830000D01*
X174145812Y-86705518D01*
X174109502Y-86585820D01*
X174050537Y-86475506D01*
X173971185Y-86378815D01*
X173874494Y-86299463D01*
X173764180Y-86240498D01*
X173644482Y-86204188D01*
X173520000Y-86191928D01*
X171920000Y-86191928D01*
X171795518Y-86204188D01*
X171675820Y-86240498D01*
X171565506Y-86299463D01*
X171468815Y-86378815D01*
X171389463Y-86475506D01*
X171330498Y-86585820D01*
X171294188Y-86705518D01*
X171281928Y-86830000D01*
X166291317Y-86830000D01*
X166214637Y-86715241D01*
X166014759Y-86515363D01*
X165779727Y-86358320D01*
X165518574Y-86250147D01*
X165241335Y-86195000D01*
X164958665Y-86195000D01*
X164681426Y-86250147D01*
X164420273Y-86358320D01*
X164185241Y-86515363D01*
X163985363Y-86715241D01*
X163828320Y-86950273D01*
X163720147Y-87211426D01*
X163665000Y-87488665D01*
X146250136Y-87488665D01*
X151721003Y-82017799D01*
X151750001Y-81994001D01*
X151844974Y-81878276D01*
X151915546Y-81746247D01*
X151959003Y-81602986D01*
X151970000Y-81491333D01*
X151970000Y-81491324D01*
X151973676Y-81454001D01*
X151970000Y-81416678D01*
X151970000Y-80378916D01*
X152064988Y-80339571D01*
X152360621Y-80142035D01*
X152612035Y-79890621D01*
X152809571Y-79594988D01*
X152945635Y-79266499D01*
X153015000Y-78917777D01*
X153015000Y-78562223D01*
X154405000Y-78562223D01*
X154405000Y-78917777D01*
X154474365Y-79266499D01*
X154610429Y-79594988D01*
X154807965Y-79890621D01*
X155059379Y-80142035D01*
X155355012Y-80339571D01*
X155683501Y-80475635D01*
X156032223Y-80545000D01*
X156387777Y-80545000D01*
X156736499Y-80475635D01*
X157064988Y-80339571D01*
X157360621Y-80142035D01*
X157612035Y-79890621D01*
X157809571Y-79594988D01*
X157945635Y-79266499D01*
X158015000Y-78917777D01*
X158015000Y-78562223D01*
X157945635Y-78213501D01*
X157809571Y-77885012D01*
X157612035Y-77589379D01*
X157360621Y-77337965D01*
X157064988Y-77140429D01*
X156736499Y-77004365D01*
X156387777Y-76935000D01*
X156032223Y-76935000D01*
X155683501Y-77004365D01*
X155355012Y-77140429D01*
X155059379Y-77337965D01*
X154807965Y-77589379D01*
X154610429Y-77885012D01*
X154474365Y-78213501D01*
X154405000Y-78562223D01*
X153015000Y-78562223D01*
X152945635Y-78213501D01*
X152809571Y-77885012D01*
X152612035Y-77589379D01*
X152360621Y-77337965D01*
X152064988Y-77140429D01*
X151736499Y-77004365D01*
X151387777Y-76935000D01*
X151032223Y-76935000D01*
X150683501Y-77004365D01*
X150355012Y-77140429D01*
X150059379Y-77337965D01*
X149807965Y-77589379D01*
X149610429Y-77885012D01*
X149474365Y-78213501D01*
X149405000Y-78562223D01*
X149405000Y-78917777D01*
X149474365Y-79266499D01*
X149610429Y-79594988D01*
X149807965Y-79890621D01*
X150059379Y-80142035D01*
X150355012Y-80339571D01*
X150450001Y-80378916D01*
X150450001Y-81139197D01*
X144269003Y-87320196D01*
X144239999Y-87343999D01*
X144184871Y-87411174D01*
X144145026Y-87459724D01*
X144129557Y-87488665D01*
X144074454Y-87591754D01*
X144030997Y-87735015D01*
X144020000Y-87846668D01*
X144020000Y-87846678D01*
X144016324Y-87884000D01*
X144020000Y-87921322D01*
X144020001Y-100546668D01*
X144016324Y-100584000D01*
X144020001Y-100621333D01*
X144030998Y-100732986D01*
X144044180Y-100776442D01*
X144074454Y-100876246D01*
X144145026Y-101008276D01*
X144203071Y-101079003D01*
X144240000Y-101124001D01*
X144268998Y-101147799D01*
X145232201Y-102111003D01*
X145255999Y-102140001D01*
X145284997Y-102163799D01*
X145371723Y-102234974D01*
X145458177Y-102281185D01*
X145503753Y-102305546D01*
X145647014Y-102349003D01*
X145758667Y-102360000D01*
X145758677Y-102360000D01*
X145796000Y-102363676D01*
X145833322Y-102360000D01*
X147371957Y-102360000D01*
X147475363Y-102514759D01*
X147675241Y-102714637D01*
X147907759Y-102870000D01*
X147675241Y-103025363D01*
X147475363Y-103225241D01*
X147371957Y-103380000D01*
X146110802Y-103380000D01*
X141279804Y-98549003D01*
X141256001Y-98519999D01*
X141140276Y-98425026D01*
X141008247Y-98354454D01*
X140864986Y-98310997D01*
X140753333Y-98300000D01*
X140753322Y-98300000D01*
X140716000Y-98296324D01*
X140678678Y-98300000D01*
X139648043Y-98300000D01*
X139544637Y-98145241D01*
X139344759Y-97945363D01*
X139109727Y-97788320D01*
X138848574Y-97680147D01*
X138571335Y-97625000D01*
X138288665Y-97625000D01*
X138011426Y-97680147D01*
X137750273Y-97788320D01*
X137515241Y-97945363D01*
X137315363Y-98145241D01*
X137158320Y-98380273D01*
X137050147Y-98641426D01*
X136995000Y-98918665D01*
X129699724Y-98918665D01*
X129668787Y-98709870D01*
X129573603Y-98443708D01*
X129506671Y-98318486D01*
X129262702Y-98246903D01*
X128449605Y-99060000D01*
X128090395Y-99060000D01*
X127277298Y-98246903D01*
X127033329Y-98318486D01*
X126912429Y-98573996D01*
X126843700Y-98848184D01*
X126829783Y-99130512D01*
X121517311Y-99130512D01*
X121518072Y-98830000D01*
X121505812Y-98705518D01*
X121469502Y-98585820D01*
X121410537Y-98475506D01*
X121331185Y-98378815D01*
X121234494Y-98299463D01*
X121124180Y-98240498D01*
X121004482Y-98204188D01*
X120880000Y-98191928D01*
X119665750Y-98195000D01*
X119507000Y-98353750D01*
X119253000Y-98353750D01*
X119094250Y-98195000D01*
X117880000Y-98191928D01*
X117755518Y-98204188D01*
X117635820Y-98240498D01*
X117525506Y-98299463D01*
X117428815Y-98378815D01*
X117349463Y-98475506D01*
X117290498Y-98585820D01*
X117254188Y-98705518D01*
X117241928Y-98830000D01*
X112420000Y-98830000D01*
X112420000Y-98067298D01*
X127456903Y-98067298D01*
X128270000Y-98880395D01*
X129083097Y-98067298D01*
X129011514Y-97823329D01*
X128756004Y-97702429D01*
X128481816Y-97633700D01*
X128199488Y-97619783D01*
X127919870Y-97661213D01*
X127653708Y-97756397D01*
X127528486Y-97823329D01*
X127456903Y-98067298D01*
X112420000Y-98067298D01*
X112420000Y-95039721D01*
X117245000Y-95039721D01*
X117245000Y-95460279D01*
X117327047Y-95872756D01*
X117487988Y-96261302D01*
X117721637Y-96610983D01*
X118019017Y-96908363D01*
X118368698Y-97142012D01*
X118757244Y-97302953D01*
X119169721Y-97385000D01*
X119590279Y-97385000D01*
X120002756Y-97302953D01*
X120391302Y-97142012D01*
X120740983Y-96908363D01*
X121038363Y-96610983D01*
X121272012Y-96261302D01*
X121432953Y-95872756D01*
X121515000Y-95460279D01*
X121515000Y-95039721D01*
X121432953Y-94627244D01*
X121272012Y-94238698D01*
X121038363Y-93889017D01*
X120740983Y-93591637D01*
X120391302Y-93357988D01*
X120002756Y-93197047D01*
X119590279Y-93115000D01*
X119169721Y-93115000D01*
X118757244Y-93197047D01*
X118368698Y-93357988D01*
X118019017Y-93591637D01*
X117721637Y-93889017D01*
X117487988Y-94238698D01*
X117327047Y-94627244D01*
X117245000Y-95039721D01*
X112420000Y-95039721D01*
X112420000Y-93059039D01*
X126878096Y-93059039D01*
X126918754Y-93193087D01*
X127038963Y-93447420D01*
X127206481Y-93673414D01*
X127414869Y-93862385D01*
X127656119Y-94007070D01*
X127920960Y-94101909D01*
X128143000Y-93980624D01*
X128143000Y-92837000D01*
X128397000Y-92837000D01*
X128397000Y-93980624D01*
X128619040Y-94101909D01*
X128883881Y-94007070D01*
X129125131Y-93862385D01*
X129333519Y-93673414D01*
X129501037Y-93447420D01*
X129621246Y-93193087D01*
X129661904Y-93059039D01*
X129539915Y-92837000D01*
X128397000Y-92837000D01*
X128143000Y-92837000D01*
X127000085Y-92837000D01*
X126878096Y-93059039D01*
X112420000Y-93059039D01*
X112420000Y-92360961D01*
X126878096Y-92360961D01*
X127000085Y-92583000D01*
X128143000Y-92583000D01*
X128143000Y-91439376D01*
X128397000Y-91439376D01*
X128397000Y-92583000D01*
X129539915Y-92583000D01*
X129547790Y-92568665D01*
X136995000Y-92568665D01*
X136995000Y-92851335D01*
X137050147Y-93128574D01*
X137158320Y-93389727D01*
X137315363Y-93624759D01*
X137515241Y-93824637D01*
X137750273Y-93981680D01*
X138011426Y-94089853D01*
X138288665Y-94145000D01*
X138571335Y-94145000D01*
X138848574Y-94089853D01*
X139109727Y-93981680D01*
X139344759Y-93824637D01*
X139544637Y-93624759D01*
X139701680Y-93389727D01*
X139809853Y-93128574D01*
X139865000Y-92851335D01*
X139865000Y-92568665D01*
X139809853Y-92291426D01*
X139701680Y-92030273D01*
X139544637Y-91795241D01*
X139344759Y-91595363D01*
X139109727Y-91438320D01*
X138848574Y-91330147D01*
X138571335Y-91275000D01*
X138288665Y-91275000D01*
X138011426Y-91330147D01*
X137750273Y-91438320D01*
X137515241Y-91595363D01*
X137315363Y-91795241D01*
X137158320Y-92030273D01*
X137050147Y-92291426D01*
X136995000Y-92568665D01*
X129547790Y-92568665D01*
X129661904Y-92360961D01*
X129621246Y-92226913D01*
X129501037Y-91972580D01*
X129333519Y-91746586D01*
X129125131Y-91557615D01*
X128883881Y-91412930D01*
X128619040Y-91318091D01*
X128397000Y-91439376D01*
X128143000Y-91439376D01*
X127920960Y-91318091D01*
X127656119Y-91412930D01*
X127414869Y-91557615D01*
X127206481Y-91746586D01*
X127038963Y-91972580D01*
X126918754Y-92226913D01*
X126878096Y-92360961D01*
X112420000Y-92360961D01*
X112420000Y-78540801D01*
X115197500Y-78540801D01*
X115197500Y-78939199D01*
X115275224Y-79329941D01*
X115427684Y-79698013D01*
X115649022Y-80029269D01*
X115930731Y-80310978D01*
X116261987Y-80532316D01*
X116630059Y-80684776D01*
X117020801Y-80762500D01*
X117419199Y-80762500D01*
X117809941Y-80684776D01*
X118178013Y-80532316D01*
X118509269Y-80310978D01*
X118790978Y-80029269D01*
X119012316Y-79698013D01*
X119164776Y-79329941D01*
X119242500Y-78939199D01*
X119242500Y-78540801D01*
X119897500Y-78540801D01*
X119897500Y-78939199D01*
X119975224Y-79329941D01*
X120127684Y-79698013D01*
X120349022Y-80029269D01*
X120630731Y-80310978D01*
X120961987Y-80532316D01*
X121330059Y-80684776D01*
X121720801Y-80762500D01*
X122119199Y-80762500D01*
X122509941Y-80684776D01*
X122878013Y-80532316D01*
X123209269Y-80310978D01*
X123490978Y-80029269D01*
X123712316Y-79698013D01*
X123864776Y-79329941D01*
X123942500Y-78939199D01*
X123942500Y-78540801D01*
X124597500Y-78540801D01*
X124597500Y-78939199D01*
X124675224Y-79329941D01*
X124827684Y-79698013D01*
X125049022Y-80029269D01*
X125330731Y-80310978D01*
X125661987Y-80532316D01*
X126030059Y-80684776D01*
X126420801Y-80762500D01*
X126819199Y-80762500D01*
X127209941Y-80684776D01*
X127578013Y-80532316D01*
X127909269Y-80310978D01*
X128190978Y-80029269D01*
X128412316Y-79698013D01*
X128564776Y-79329941D01*
X128642500Y-78939199D01*
X128642500Y-78540801D01*
X128564776Y-78150059D01*
X128412316Y-77781987D01*
X128190978Y-77450731D01*
X128072247Y-77332000D01*
X133081928Y-77332000D01*
X133081928Y-79132000D01*
X133094188Y-79256482D01*
X133130498Y-79376180D01*
X133189463Y-79486494D01*
X133268815Y-79583185D01*
X133365506Y-79662537D01*
X133475820Y-79721502D01*
X133494127Y-79727056D01*
X133427688Y-79793495D01*
X133259701Y-80044905D01*
X133143989Y-80324257D01*
X133085000Y-80620816D01*
X133085000Y-80923184D01*
X133143989Y-81219743D01*
X133259701Y-81499095D01*
X133427688Y-81750505D01*
X133641495Y-81964312D01*
X133892905Y-82132299D01*
X134172257Y-82248011D01*
X134468816Y-82307000D01*
X134771184Y-82307000D01*
X135067743Y-82248011D01*
X135347095Y-82132299D01*
X135598505Y-81964312D01*
X135812312Y-81750505D01*
X135980299Y-81499095D01*
X136096011Y-81219743D01*
X136155000Y-80923184D01*
X136155000Y-80620816D01*
X136096011Y-80324257D01*
X135980299Y-80044905D01*
X135812312Y-79793495D01*
X135745873Y-79727056D01*
X135764180Y-79721502D01*
X135874494Y-79662537D01*
X135971185Y-79583185D01*
X136050537Y-79486494D01*
X136109502Y-79376180D01*
X136145812Y-79256482D01*
X136158072Y-79132000D01*
X136158072Y-78562223D01*
X144405000Y-78562223D01*
X144405000Y-78917777D01*
X144474365Y-79266499D01*
X144610429Y-79594988D01*
X144807965Y-79890621D01*
X145059379Y-80142035D01*
X145355012Y-80339571D01*
X145683501Y-80475635D01*
X146032223Y-80545000D01*
X146387777Y-80545000D01*
X146736499Y-80475635D01*
X147064988Y-80339571D01*
X147360621Y-80142035D01*
X147612035Y-79890621D01*
X147809571Y-79594988D01*
X147945635Y-79266499D01*
X148015000Y-78917777D01*
X148015000Y-78562223D01*
X147945635Y-78213501D01*
X147809571Y-77885012D01*
X147612035Y-77589379D01*
X147360621Y-77337965D01*
X147064988Y-77140429D01*
X146736499Y-77004365D01*
X146387777Y-76935000D01*
X146032223Y-76935000D01*
X145683501Y-77004365D01*
X145355012Y-77140429D01*
X145059379Y-77337965D01*
X144807965Y-77589379D01*
X144610429Y-77885012D01*
X144474365Y-78213501D01*
X144405000Y-78562223D01*
X136158072Y-78562223D01*
X136158072Y-77332000D01*
X136145812Y-77207518D01*
X136109502Y-77087820D01*
X136050537Y-76977506D01*
X135971185Y-76880815D01*
X135874494Y-76801463D01*
X135764180Y-76742498D01*
X135644482Y-76706188D01*
X135520000Y-76693928D01*
X133720000Y-76693928D01*
X133595518Y-76706188D01*
X133475820Y-76742498D01*
X133365506Y-76801463D01*
X133268815Y-76880815D01*
X133189463Y-76977506D01*
X133130498Y-77087820D01*
X133094188Y-77207518D01*
X133081928Y-77332000D01*
X128072247Y-77332000D01*
X127909269Y-77169022D01*
X127578013Y-76947684D01*
X127209941Y-76795224D01*
X126819199Y-76717500D01*
X126420801Y-76717500D01*
X126030059Y-76795224D01*
X125661987Y-76947684D01*
X125330731Y-77169022D01*
X125049022Y-77450731D01*
X124827684Y-77781987D01*
X124675224Y-78150059D01*
X124597500Y-78540801D01*
X123942500Y-78540801D01*
X123864776Y-78150059D01*
X123712316Y-77781987D01*
X123490978Y-77450731D01*
X123209269Y-77169022D01*
X122878013Y-76947684D01*
X122509941Y-76795224D01*
X122119199Y-76717500D01*
X121720801Y-76717500D01*
X121330059Y-76795224D01*
X120961987Y-76947684D01*
X120630731Y-77169022D01*
X120349022Y-77450731D01*
X120127684Y-77781987D01*
X119975224Y-78150059D01*
X119897500Y-78540801D01*
X119242500Y-78540801D01*
X119164776Y-78150059D01*
X119012316Y-77781987D01*
X118790978Y-77450731D01*
X118509269Y-77169022D01*
X118178013Y-76947684D01*
X117809941Y-76795224D01*
X117419199Y-76717500D01*
X117020801Y-76717500D01*
X116630059Y-76795224D01*
X116261987Y-76947684D01*
X115930731Y-77169022D01*
X115649022Y-77450731D01*
X115427684Y-77781987D01*
X115275224Y-78150059D01*
X115197500Y-78540801D01*
X112420000Y-78540801D01*
X112420000Y-75267117D01*
X176827000Y-75267117D01*
X176827000Y-75608883D01*
X176893675Y-75944081D01*
X177024463Y-76259831D01*
X177214337Y-76543998D01*
X177456002Y-76785663D01*
X177740169Y-76975537D01*
X178055919Y-77106325D01*
X178391117Y-77173000D01*
X178732883Y-77173000D01*
X179068081Y-77106325D01*
X179383831Y-76975537D01*
X179667998Y-76785663D01*
X179909663Y-76543998D01*
X180099537Y-76259831D01*
X180230325Y-75944081D01*
X180297000Y-75608883D01*
X180297000Y-75267117D01*
X180230325Y-74931919D01*
X180099537Y-74616169D01*
X179909663Y-74332002D01*
X179667998Y-74090337D01*
X179383831Y-73900463D01*
X179068081Y-73769675D01*
X178732883Y-73703000D01*
X178391117Y-73703000D01*
X178055919Y-73769675D01*
X177740169Y-73900463D01*
X177456002Y-74090337D01*
X177214337Y-74332002D01*
X177024463Y-74616169D01*
X176893675Y-74931919D01*
X176827000Y-75267117D01*
X112420000Y-75267117D01*
X112420000Y-71780000D01*
X182220000Y-71780000D01*
X182220001Y-125070000D01*
%TA.AperFunction,Conductor*%
D25*
G36*
X182220001Y-125070000D02*
G01*
X112420000Y-125070000D01*
X112420000Y-121241117D01*
X176827000Y-121241117D01*
X176827000Y-121582883D01*
X176893675Y-121918081D01*
X177024463Y-122233831D01*
X177214337Y-122517998D01*
X177456002Y-122759663D01*
X177740169Y-122949537D01*
X178055919Y-123080325D01*
X178391117Y-123147000D01*
X178732883Y-123147000D01*
X179068081Y-123080325D01*
X179383831Y-122949537D01*
X179667998Y-122759663D01*
X179909663Y-122517998D01*
X180099537Y-122233831D01*
X180230325Y-121918081D01*
X180297000Y-121582883D01*
X180297000Y-121241117D01*
X180230325Y-120905919D01*
X180099537Y-120590169D01*
X179909663Y-120306002D01*
X179667998Y-120064337D01*
X179383831Y-119874463D01*
X179068081Y-119743675D01*
X178732883Y-119677000D01*
X178391117Y-119677000D01*
X178055919Y-119743675D01*
X177740169Y-119874463D01*
X177456002Y-120064337D01*
X177214337Y-120306002D01*
X177024463Y-120590169D01*
X176893675Y-120905919D01*
X176827000Y-121241117D01*
X112420000Y-121241117D01*
X112420000Y-118345000D01*
X117706928Y-118345000D01*
X117706928Y-120415000D01*
X117719188Y-120539482D01*
X117755498Y-120659180D01*
X117814463Y-120769494D01*
X117893815Y-120866185D01*
X117990506Y-120945537D01*
X118100820Y-121004502D01*
X118220518Y-121040812D01*
X118345000Y-121053072D01*
X120415000Y-121053072D01*
X120539482Y-121040812D01*
X120659180Y-121004502D01*
X120769494Y-120945537D01*
X120866185Y-120866185D01*
X120945537Y-120769494D01*
X121004502Y-120659180D01*
X121040812Y-120539482D01*
X121053072Y-120415000D01*
X121053072Y-119238665D01*
X126835000Y-119238665D01*
X126835000Y-119521335D01*
X126890147Y-119798574D01*
X126998320Y-120059727D01*
X127155363Y-120294759D01*
X127355241Y-120494637D01*
X127590273Y-120651680D01*
X127851426Y-120759853D01*
X128128665Y-120815000D01*
X128411335Y-120815000D01*
X128688574Y-120759853D01*
X128949727Y-120651680D01*
X129184759Y-120494637D01*
X129384637Y-120294759D01*
X129541680Y-120059727D01*
X129649853Y-119798574D01*
X129705000Y-119521335D01*
X129705000Y-119238665D01*
X129649853Y-118961426D01*
X129541680Y-118700273D01*
X129384637Y-118465241D01*
X129184759Y-118265363D01*
X128949727Y-118108320D01*
X128688574Y-118000147D01*
X128411335Y-117945000D01*
X128128665Y-117945000D01*
X127851426Y-118000147D01*
X127590273Y-118108320D01*
X127355241Y-118265363D01*
X127155363Y-118465241D01*
X126998320Y-118700273D01*
X126890147Y-118961426D01*
X126835000Y-119238665D01*
X121053072Y-119238665D01*
X121053072Y-118345000D01*
X121040812Y-118220518D01*
X121004502Y-118100820D01*
X120945537Y-117990506D01*
X120866185Y-117893815D01*
X120769494Y-117814463D01*
X120745828Y-117801813D01*
X120859934Y-117631041D01*
X120985822Y-117327121D01*
X121050000Y-117004481D01*
X121050000Y-116675519D01*
X120985822Y-116352879D01*
X120859934Y-116048959D01*
X120677173Y-115775437D01*
X120444563Y-115542827D01*
X120352862Y-115481554D01*
X120360766Y-115460371D01*
X119380000Y-114479605D01*
X118399234Y-115460371D01*
X118407138Y-115481554D01*
X118315437Y-115542827D01*
X118082827Y-115775437D01*
X117900066Y-116048959D01*
X117774178Y-116352879D01*
X117710000Y-116675519D01*
X117710000Y-117004481D01*
X117774178Y-117327121D01*
X117900066Y-117631041D01*
X118014172Y-117801813D01*
X117990506Y-117814463D01*
X117893815Y-117893815D01*
X117814463Y-117990506D01*
X117755498Y-118100820D01*
X117719188Y-118220518D01*
X117706928Y-118345000D01*
X112420000Y-118345000D01*
X112420000Y-114361209D01*
X117703037Y-114361209D01*
X117747200Y-114687192D01*
X117854111Y-114998296D01*
X117951650Y-115180776D01*
X118219629Y-115280766D01*
X119200395Y-114300000D01*
X119559605Y-114300000D01*
X120540371Y-115280766D01*
X120808350Y-115180776D01*
X120952736Y-114885196D01*
X121036682Y-114567127D01*
X121056963Y-114238791D01*
X121012800Y-113912808D01*
X120905889Y-113601704D01*
X120808350Y-113419224D01*
X120540371Y-113319234D01*
X119559605Y-114300000D01*
X119200395Y-114300000D01*
X118219629Y-113319234D01*
X117951650Y-113419224D01*
X117807264Y-113714804D01*
X117723318Y-114032873D01*
X117703037Y-114361209D01*
X112420000Y-114361209D01*
X112420000Y-113139629D01*
X118399234Y-113139629D01*
X119380000Y-114120395D01*
X120360766Y-113139629D01*
X120260776Y-112871650D01*
X120017272Y-112752702D01*
X131306903Y-112752702D01*
X131378486Y-112996671D01*
X131633996Y-113117571D01*
X131908184Y-113186300D01*
X132190512Y-113200217D01*
X132470130Y-113158787D01*
X132736292Y-113063603D01*
X132861514Y-112996671D01*
X132933097Y-112752702D01*
X132120000Y-111939605D01*
X131306903Y-112752702D01*
X120017272Y-112752702D01*
X119965196Y-112727264D01*
X119647127Y-112643318D01*
X119318791Y-112623037D01*
X118992808Y-112667200D01*
X118681704Y-112774111D01*
X118499224Y-112871650D01*
X118399234Y-113139629D01*
X112420000Y-113139629D01*
X112420000Y-111830512D01*
X130679783Y-111830512D01*
X130721213Y-112110130D01*
X130816397Y-112376292D01*
X130883329Y-112501514D01*
X131127298Y-112573097D01*
X131940395Y-111760000D01*
X132299605Y-111760000D01*
X133112702Y-112573097D01*
X133356671Y-112501514D01*
X133370324Y-112472659D01*
X133505363Y-112674759D01*
X133705241Y-112874637D01*
X133940273Y-113031680D01*
X134201426Y-113139853D01*
X134478665Y-113195000D01*
X134761335Y-113195000D01*
X135038574Y-113139853D01*
X135299727Y-113031680D01*
X135534759Y-112874637D01*
X135734637Y-112674759D01*
X135891680Y-112439727D01*
X135999853Y-112178574D01*
X136055000Y-111901335D01*
X136055000Y-111618665D01*
X135999853Y-111341426D01*
X135891680Y-111080273D01*
X135734637Y-110845241D01*
X135534759Y-110645363D01*
X135299727Y-110488320D01*
X135038574Y-110380147D01*
X134761335Y-110325000D01*
X134478665Y-110325000D01*
X134201426Y-110380147D01*
X133940273Y-110488320D01*
X133705241Y-110645363D01*
X133505363Y-110845241D01*
X133371308Y-111045869D01*
X133356671Y-111018486D01*
X133112702Y-110946903D01*
X132299605Y-111760000D01*
X131940395Y-111760000D01*
X131127298Y-110946903D01*
X130883329Y-111018486D01*
X130762429Y-111273996D01*
X130693700Y-111548184D01*
X130679783Y-111830512D01*
X112420000Y-111830512D01*
X112420000Y-110767298D01*
X131306903Y-110767298D01*
X132120000Y-111580395D01*
X132933097Y-110767298D01*
X132861514Y-110523329D01*
X132606004Y-110402429D01*
X132331816Y-110333700D01*
X132049488Y-110319783D01*
X131769870Y-110361213D01*
X131503708Y-110456397D01*
X131378486Y-110523329D01*
X131306903Y-110767298D01*
X112420000Y-110767298D01*
X112420000Y-107271117D01*
X114343000Y-107271117D01*
X114343000Y-107612883D01*
X114409675Y-107948081D01*
X114540463Y-108263831D01*
X114730337Y-108547998D01*
X114972002Y-108789663D01*
X115256169Y-108979537D01*
X115571919Y-109110325D01*
X115907117Y-109177000D01*
X116248883Y-109177000D01*
X116584081Y-109110325D01*
X116899831Y-108979537D01*
X117183998Y-108789663D01*
X117425663Y-108547998D01*
X117615537Y-108263831D01*
X117746325Y-107948081D01*
X117813000Y-107612883D01*
X117813000Y-107271117D01*
X117746325Y-106935919D01*
X117615537Y-106620169D01*
X117470231Y-106402702D01*
X131306903Y-106402702D01*
X131378486Y-106646671D01*
X131633996Y-106767571D01*
X131908184Y-106836300D01*
X132190512Y-106850217D01*
X132470130Y-106808787D01*
X132736292Y-106713603D01*
X132861514Y-106646671D01*
X132933097Y-106402702D01*
X132120000Y-105589605D01*
X131306903Y-106402702D01*
X117470231Y-106402702D01*
X117425663Y-106336002D01*
X117183998Y-106094337D01*
X116899831Y-105904463D01*
X116584081Y-105773675D01*
X116248883Y-105707000D01*
X115907117Y-105707000D01*
X115571919Y-105773675D01*
X115256169Y-105904463D01*
X114972002Y-106094337D01*
X114730337Y-106336002D01*
X114540463Y-106620169D01*
X114409675Y-106935919D01*
X114343000Y-107271117D01*
X112420000Y-107271117D01*
X112420000Y-105480512D01*
X130679783Y-105480512D01*
X130721213Y-105760130D01*
X130816397Y-106026292D01*
X130883329Y-106151514D01*
X131127298Y-106223097D01*
X131940395Y-105410000D01*
X132299605Y-105410000D01*
X133112702Y-106223097D01*
X133356671Y-106151514D01*
X133370324Y-106122659D01*
X133505363Y-106324759D01*
X133705241Y-106524637D01*
X133940273Y-106681680D01*
X134201426Y-106789853D01*
X134478665Y-106845000D01*
X134761335Y-106845000D01*
X135038574Y-106789853D01*
X135299727Y-106681680D01*
X135534759Y-106524637D01*
X135734637Y-106324759D01*
X135891680Y-106089727D01*
X135999853Y-105828574D01*
X136055000Y-105551335D01*
X136055000Y-105268665D01*
X135999853Y-104991426D01*
X135891680Y-104730273D01*
X135734637Y-104495241D01*
X135534759Y-104295363D01*
X135299727Y-104138320D01*
X135038574Y-104030147D01*
X134761335Y-103975000D01*
X134478665Y-103975000D01*
X134201426Y-104030147D01*
X133940273Y-104138320D01*
X133705241Y-104295363D01*
X133505363Y-104495241D01*
X133371308Y-104695869D01*
X133356671Y-104668486D01*
X133112702Y-104596903D01*
X132299605Y-105410000D01*
X131940395Y-105410000D01*
X131127298Y-104596903D01*
X130883329Y-104668486D01*
X130762429Y-104923996D01*
X130693700Y-105198184D01*
X130679783Y-105480512D01*
X112420000Y-105480512D01*
X112420000Y-104417298D01*
X131306903Y-104417298D01*
X132120000Y-105230395D01*
X132933097Y-104417298D01*
X132861514Y-104173329D01*
X132606004Y-104052429D01*
X132331816Y-103983700D01*
X132049488Y-103969783D01*
X131769870Y-104011213D01*
X131503708Y-104106397D01*
X131378486Y-104173329D01*
X131306903Y-104417298D01*
X112420000Y-104417298D01*
X112420000Y-101830000D01*
X117241928Y-101830000D01*
X117254188Y-101954482D01*
X117290498Y-102074180D01*
X117349463Y-102184494D01*
X117428815Y-102281185D01*
X117525506Y-102360537D01*
X117635820Y-102419502D01*
X117755518Y-102455812D01*
X117880000Y-102468072D01*
X119094250Y-102465000D01*
X119253000Y-102306250D01*
X119253000Y-100457000D01*
X119507000Y-100457000D01*
X119507000Y-102306250D01*
X119665750Y-102465000D01*
X120880000Y-102468072D01*
X121004482Y-102455812D01*
X121124180Y-102419502D01*
X121234494Y-102360537D01*
X121331185Y-102281185D01*
X121410537Y-102184494D01*
X121469502Y-102074180D01*
X121505812Y-101954482D01*
X121518072Y-101830000D01*
X121515000Y-100615750D01*
X121356250Y-100457000D01*
X119507000Y-100457000D01*
X119253000Y-100457000D01*
X117403750Y-100457000D01*
X117245000Y-100615750D01*
X117241928Y-101830000D01*
X112420000Y-101830000D01*
X112420000Y-98830000D01*
X117241928Y-98830000D01*
X117245000Y-100044250D01*
X117403750Y-100203000D01*
X119253000Y-100203000D01*
X119253000Y-98353750D01*
X119507000Y-98353750D01*
X119507000Y-100203000D01*
X121356250Y-100203000D01*
X121506548Y-100052702D01*
X127456903Y-100052702D01*
X127528486Y-100296671D01*
X127783996Y-100417571D01*
X128058184Y-100486300D01*
X128340512Y-100500217D01*
X128620130Y-100458787D01*
X128886292Y-100363603D01*
X129011514Y-100296671D01*
X129083097Y-100052702D01*
X128270000Y-99239605D01*
X127456903Y-100052702D01*
X121506548Y-100052702D01*
X121515000Y-100044250D01*
X121517311Y-99130512D01*
X126829783Y-99130512D01*
X126871213Y-99410130D01*
X126966397Y-99676292D01*
X127033329Y-99801514D01*
X127277298Y-99873097D01*
X128090395Y-99060000D01*
X128449605Y-99060000D01*
X129262702Y-99873097D01*
X129506671Y-99801514D01*
X129627571Y-99546004D01*
X129696300Y-99271816D01*
X129710217Y-98989488D01*
X129699724Y-98918665D01*
X136995000Y-98918665D01*
X136995000Y-99201335D01*
X137050147Y-99478574D01*
X137158320Y-99739727D01*
X137315363Y-99974759D01*
X137515241Y-100174637D01*
X137750273Y-100331680D01*
X138011426Y-100439853D01*
X138288665Y-100495000D01*
X138571335Y-100495000D01*
X138848574Y-100439853D01*
X139109727Y-100331680D01*
X139344759Y-100174637D01*
X139544637Y-99974759D01*
X139648043Y-99820000D01*
X140401199Y-99820000D01*
X145036001Y-104454803D01*
X145036000Y-109921198D01*
X137918998Y-117038201D01*
X137890000Y-117061999D01*
X137866202Y-117090997D01*
X137866201Y-117090998D01*
X137795026Y-117177724D01*
X137724454Y-117309754D01*
X137680998Y-117453015D01*
X137666324Y-117602000D01*
X137670001Y-117639332D01*
X137670001Y-118161956D01*
X137515241Y-118265363D01*
X137315363Y-118465241D01*
X137158320Y-118700273D01*
X137050147Y-118961426D01*
X136995000Y-119238665D01*
X136995000Y-119521335D01*
X137050147Y-119798574D01*
X137158320Y-120059727D01*
X137315363Y-120294759D01*
X137515241Y-120494637D01*
X137750273Y-120651680D01*
X138011426Y-120759853D01*
X138288665Y-120815000D01*
X138571335Y-120815000D01*
X138848574Y-120759853D01*
X139109727Y-120651680D01*
X139344759Y-120494637D01*
X139544637Y-120294759D01*
X139701680Y-120059727D01*
X139809853Y-119798574D01*
X139865000Y-119521335D01*
X139865000Y-119238665D01*
X139809853Y-118961426D01*
X139701680Y-118700273D01*
X139544637Y-118465241D01*
X139344759Y-118265363D01*
X139190000Y-118161957D01*
X139190000Y-117916801D01*
X140437684Y-116669117D01*
X164635000Y-116669117D01*
X164635000Y-117010883D01*
X164701675Y-117346081D01*
X164832463Y-117661831D01*
X165022337Y-117945998D01*
X165264002Y-118187663D01*
X165548169Y-118377537D01*
X165863919Y-118508325D01*
X166199117Y-118575000D01*
X166540883Y-118575000D01*
X166876081Y-118508325D01*
X167191831Y-118377537D01*
X167475998Y-118187663D01*
X167717663Y-117945998D01*
X167907537Y-117661831D01*
X168038325Y-117346081D01*
X168105000Y-117010883D01*
X168105000Y-116669117D01*
X168038325Y-116333919D01*
X167907537Y-116018169D01*
X167717663Y-115734002D01*
X167475998Y-115492337D01*
X167191831Y-115302463D01*
X166876081Y-115171675D01*
X166540883Y-115105000D01*
X166199117Y-115105000D01*
X165863919Y-115171675D01*
X165548169Y-115302463D01*
X165264002Y-115492337D01*
X165022337Y-115734002D01*
X164832463Y-116018169D01*
X164701675Y-116333919D01*
X164635000Y-116669117D01*
X140437684Y-116669117D01*
X143017080Y-114089721D01*
X173125000Y-114089721D01*
X173125000Y-114510279D01*
X173207047Y-114922756D01*
X173367988Y-115311302D01*
X173601637Y-115660983D01*
X173899017Y-115958363D01*
X174248698Y-116192012D01*
X174637244Y-116352953D01*
X175049721Y-116435000D01*
X175470279Y-116435000D01*
X175882756Y-116352953D01*
X176271302Y-116192012D01*
X176620983Y-115958363D01*
X176918363Y-115660983D01*
X177152012Y-115311302D01*
X177312953Y-114922756D01*
X177395000Y-114510279D01*
X177395000Y-114089721D01*
X177312953Y-113677244D01*
X177152012Y-113288698D01*
X176918363Y-112939017D01*
X176620983Y-112641637D01*
X176271302Y-112407988D01*
X175882756Y-112247047D01*
X175470279Y-112165000D01*
X175049721Y-112165000D01*
X174637244Y-112247047D01*
X174248698Y-112407988D01*
X173899017Y-112641637D01*
X173601637Y-112939017D01*
X173367988Y-113288698D01*
X173207047Y-113677244D01*
X173125000Y-114089721D01*
X143017080Y-114089721D01*
X146307004Y-110799798D01*
X146336001Y-110776001D01*
X146381960Y-110720000D01*
X146430974Y-110660277D01*
X146501546Y-110528247D01*
X146503038Y-110523329D01*
X146545003Y-110384986D01*
X146556000Y-110273333D01*
X146556000Y-110273324D01*
X146559676Y-110236001D01*
X146556000Y-110198678D01*
X146556000Y-104900000D01*
X147371957Y-104900000D01*
X147475363Y-105054759D01*
X147675241Y-105254637D01*
X147907759Y-105410000D01*
X147675241Y-105565363D01*
X147475363Y-105765241D01*
X147318320Y-106000273D01*
X147210147Y-106261426D01*
X147155000Y-106538665D01*
X147155000Y-106821335D01*
X147210147Y-107098574D01*
X147318320Y-107359727D01*
X147475363Y-107594759D01*
X147675241Y-107794637D01*
X147910273Y-107951680D01*
X148171426Y-108059853D01*
X148448665Y-108115000D01*
X148731335Y-108115000D01*
X149008574Y-108059853D01*
X149269727Y-107951680D01*
X149504759Y-107794637D01*
X149704637Y-107594759D01*
X149808043Y-107440000D01*
X149822678Y-107440000D01*
X149860000Y-107443676D01*
X149897322Y-107440000D01*
X149897333Y-107440000D01*
X150008986Y-107429003D01*
X150152247Y-107385546D01*
X150284276Y-107314974D01*
X150400001Y-107220001D01*
X150423804Y-107190997D01*
X152911008Y-104703795D01*
X152940001Y-104680001D01*
X152963795Y-104651008D01*
X152963799Y-104651004D01*
X153034973Y-104564277D01*
X153034974Y-104564276D01*
X153105546Y-104432247D01*
X153149003Y-104288986D01*
X153160000Y-104177333D01*
X153160000Y-104177324D01*
X153163676Y-104140001D01*
X153160000Y-104102678D01*
X153160000Y-102168801D01*
X155224703Y-100104099D01*
X155295241Y-100174637D01*
X155527759Y-100330000D01*
X155295241Y-100485363D01*
X155095363Y-100685241D01*
X154938320Y-100920273D01*
X154830147Y-101181426D01*
X154775000Y-101458665D01*
X154775000Y-101741335D01*
X154830147Y-102018574D01*
X154938320Y-102279727D01*
X155095363Y-102514759D01*
X155295241Y-102714637D01*
X155527759Y-102870000D01*
X155295241Y-103025363D01*
X155095363Y-103225241D01*
X154938320Y-103460273D01*
X154830147Y-103721426D01*
X154775000Y-103998665D01*
X154775000Y-104281335D01*
X154830147Y-104558574D01*
X154938320Y-104819727D01*
X155095363Y-105054759D01*
X155295241Y-105254637D01*
X155527759Y-105410000D01*
X155295241Y-105565363D01*
X155095363Y-105765241D01*
X154938320Y-106000273D01*
X154830147Y-106261426D01*
X154775000Y-106538665D01*
X154775000Y-106821335D01*
X154830147Y-107098574D01*
X154938320Y-107359727D01*
X155095363Y-107594759D01*
X155295241Y-107794637D01*
X155530273Y-107951680D01*
X155791426Y-108059853D01*
X156068665Y-108115000D01*
X156351335Y-108115000D01*
X156628574Y-108059853D01*
X156889727Y-107951680D01*
X157124759Y-107794637D01*
X157324637Y-107594759D01*
X157481680Y-107359727D01*
X157589853Y-107098574D01*
X157645000Y-106821335D01*
X157645000Y-106538665D01*
X157589853Y-106261426D01*
X157481680Y-106000273D01*
X157324637Y-105765241D01*
X157139396Y-105580000D01*
X164631928Y-105580000D01*
X164631928Y-107780000D01*
X164644188Y-107904482D01*
X164680498Y-108024180D01*
X164739463Y-108134494D01*
X164818815Y-108231185D01*
X164915506Y-108310537D01*
X165025820Y-108369502D01*
X165145518Y-108405812D01*
X165270000Y-108418072D01*
X167470000Y-108418072D01*
X167594482Y-108405812D01*
X167714180Y-108369502D01*
X167824494Y-108310537D01*
X167921185Y-108231185D01*
X168000537Y-108134494D01*
X168059502Y-108024180D01*
X168095812Y-107904482D01*
X168108072Y-107780000D01*
X168108072Y-107720000D01*
X173121928Y-107720000D01*
X173121928Y-110720000D01*
X173134188Y-110844482D01*
X173170498Y-110964180D01*
X173229463Y-111074494D01*
X173308815Y-111171185D01*
X173405506Y-111250537D01*
X173515820Y-111309502D01*
X173635518Y-111345812D01*
X173760000Y-111358072D01*
X176760000Y-111358072D01*
X176884482Y-111345812D01*
X177004180Y-111309502D01*
X177114494Y-111250537D01*
X177211185Y-111171185D01*
X177290537Y-111074494D01*
X177349502Y-110964180D01*
X177385812Y-110844482D01*
X177398072Y-110720000D01*
X177398072Y-107720000D01*
X177385812Y-107595518D01*
X177349502Y-107475820D01*
X177290537Y-107365506D01*
X177211185Y-107268815D01*
X177114494Y-107189463D01*
X177004180Y-107130498D01*
X176884482Y-107094188D01*
X176760000Y-107081928D01*
X173760000Y-107081928D01*
X173635518Y-107094188D01*
X173515820Y-107130498D01*
X173405506Y-107189463D01*
X173308815Y-107268815D01*
X173229463Y-107365506D01*
X173170498Y-107475820D01*
X173134188Y-107595518D01*
X173121928Y-107720000D01*
X168108072Y-107720000D01*
X168108072Y-105580000D01*
X168095812Y-105455518D01*
X168059502Y-105335820D01*
X168000537Y-105225506D01*
X167921185Y-105128815D01*
X167824494Y-105049463D01*
X167714180Y-104990498D01*
X167594482Y-104954188D01*
X167470000Y-104941928D01*
X165270000Y-104941928D01*
X165145518Y-104954188D01*
X165025820Y-104990498D01*
X164915506Y-105049463D01*
X164818815Y-105128815D01*
X164739463Y-105225506D01*
X164680498Y-105335820D01*
X164644188Y-105455518D01*
X164631928Y-105580000D01*
X157139396Y-105580000D01*
X157124759Y-105565363D01*
X156892241Y-105410000D01*
X157124759Y-105254637D01*
X157324637Y-105054759D01*
X157481680Y-104819727D01*
X157589853Y-104558574D01*
X157645000Y-104281335D01*
X157645000Y-103998665D01*
X157589853Y-103721426D01*
X157481680Y-103460273D01*
X157324637Y-103225241D01*
X157124759Y-103025363D01*
X156892241Y-102870000D01*
X157124759Y-102714637D01*
X157324637Y-102514759D01*
X157428043Y-102360000D01*
X161506678Y-102360000D01*
X161544000Y-102363676D01*
X161581322Y-102360000D01*
X161581333Y-102360000D01*
X161692986Y-102349003D01*
X161836247Y-102305546D01*
X161968276Y-102234974D01*
X162084001Y-102140001D01*
X162107804Y-102110997D01*
X162971703Y-101247099D01*
X163169241Y-101444637D01*
X163404273Y-101601680D01*
X163665426Y-101709853D01*
X163942665Y-101765000D01*
X164225335Y-101765000D01*
X164502574Y-101709853D01*
X164763727Y-101601680D01*
X164998759Y-101444637D01*
X165198637Y-101244759D01*
X165355680Y-101009727D01*
X165463853Y-100748574D01*
X165519000Y-100471335D01*
X165519000Y-100188665D01*
X172809000Y-100188665D01*
X172809000Y-100471335D01*
X172864147Y-100748574D01*
X172972320Y-101009727D01*
X173129363Y-101244759D01*
X173329241Y-101444637D01*
X173564273Y-101601680D01*
X173825426Y-101709853D01*
X174102665Y-101765000D01*
X174385335Y-101765000D01*
X174662574Y-101709853D01*
X174923727Y-101601680D01*
X175158759Y-101444637D01*
X175358637Y-101244759D01*
X175515680Y-101009727D01*
X175623853Y-100748574D01*
X175679000Y-100471335D01*
X175679000Y-100188665D01*
X175623853Y-99911426D01*
X175515680Y-99650273D01*
X175358637Y-99415241D01*
X175158759Y-99215363D01*
X174923727Y-99058320D01*
X174662574Y-98950147D01*
X174385335Y-98895000D01*
X174102665Y-98895000D01*
X173825426Y-98950147D01*
X173564273Y-99058320D01*
X173329241Y-99215363D01*
X173129363Y-99415241D01*
X172972320Y-99650273D01*
X172864147Y-99911426D01*
X172809000Y-100188665D01*
X165519000Y-100188665D01*
X165463853Y-99911426D01*
X165355680Y-99650273D01*
X165198637Y-99415241D01*
X164998759Y-99215363D01*
X164763727Y-99058320D01*
X164502574Y-98950147D01*
X164225335Y-98895000D01*
X163942665Y-98895000D01*
X163665426Y-98950147D01*
X163404273Y-99058320D01*
X163169241Y-99215363D01*
X162969363Y-99415241D01*
X162865957Y-99570000D01*
X162851322Y-99570000D01*
X162813999Y-99566324D01*
X162776676Y-99570000D01*
X162776667Y-99570000D01*
X162665014Y-99580997D01*
X162521753Y-99624454D01*
X162389724Y-99695026D01*
X162273999Y-99789999D01*
X162250201Y-99818997D01*
X161229199Y-100840000D01*
X157428043Y-100840000D01*
X157324637Y-100685241D01*
X157124759Y-100485363D01*
X156892241Y-100330000D01*
X157124759Y-100174637D01*
X157324637Y-99974759D01*
X157481680Y-99739727D01*
X157589853Y-99478574D01*
X157645000Y-99201335D01*
X157645000Y-98918665D01*
X157589853Y-98641426D01*
X157481680Y-98380273D01*
X157324637Y-98145241D01*
X157124759Y-97945363D01*
X156889727Y-97788320D01*
X156628574Y-97680147D01*
X156351335Y-97625000D01*
X156068665Y-97625000D01*
X155791426Y-97680147D01*
X155530273Y-97788320D01*
X155295241Y-97945363D01*
X155095363Y-98145241D01*
X154969253Y-98333978D01*
X154901753Y-98354454D01*
X154769724Y-98425026D01*
X154653999Y-98519999D01*
X154630201Y-98548997D01*
X151889003Y-101290196D01*
X151859999Y-101313999D01*
X151804871Y-101381174D01*
X151765026Y-101429724D01*
X151753646Y-101451015D01*
X151694454Y-101561754D01*
X151650997Y-101705015D01*
X151640000Y-101816668D01*
X151640000Y-101816678D01*
X151636324Y-101854000D01*
X151640000Y-101891323D01*
X151640001Y-103825196D01*
X149702297Y-105762901D01*
X149504759Y-105565363D01*
X149272241Y-105410000D01*
X149504759Y-105254637D01*
X149704637Y-105054759D01*
X149861680Y-104819727D01*
X149969853Y-104558574D01*
X150025000Y-104281335D01*
X150025000Y-103998665D01*
X149969853Y-103721426D01*
X149861680Y-103460273D01*
X149704637Y-103225241D01*
X149504759Y-103025363D01*
X149272241Y-102870000D01*
X149504759Y-102714637D01*
X149704637Y-102514759D01*
X149861680Y-102279727D01*
X149969853Y-102018574D01*
X150025000Y-101741335D01*
X150025000Y-101458665D01*
X149969853Y-101181426D01*
X149861680Y-100920273D01*
X149704637Y-100685241D01*
X149506039Y-100486643D01*
X149514482Y-100485812D01*
X149634180Y-100449502D01*
X149744494Y-100390537D01*
X149841185Y-100311185D01*
X149920537Y-100214494D01*
X149979502Y-100104180D01*
X150015812Y-99984482D01*
X150028072Y-99860000D01*
X150025000Y-99345750D01*
X149866250Y-99187000D01*
X148717000Y-99187000D01*
X148717000Y-99207000D01*
X148463000Y-99207000D01*
X148463000Y-99187000D01*
X147313750Y-99187000D01*
X147155000Y-99345750D01*
X147151928Y-99860000D01*
X147164188Y-99984482D01*
X147200498Y-100104180D01*
X147259463Y-100214494D01*
X147338815Y-100311185D01*
X147435506Y-100390537D01*
X147545820Y-100449502D01*
X147665518Y-100485812D01*
X147673961Y-100486643D01*
X147475363Y-100685241D01*
X147371957Y-100840000D01*
X146110802Y-100840000D01*
X145540000Y-100269199D01*
X145540000Y-98260000D01*
X147151928Y-98260000D01*
X147155000Y-98774250D01*
X147313750Y-98933000D01*
X148463000Y-98933000D01*
X148463000Y-97783750D01*
X148717000Y-97783750D01*
X148717000Y-98933000D01*
X149866250Y-98933000D01*
X150025000Y-98774250D01*
X150028072Y-98260000D01*
X150015812Y-98135518D01*
X149979502Y-98015820D01*
X149920537Y-97905506D01*
X149841185Y-97808815D01*
X149744494Y-97729463D01*
X149634180Y-97670498D01*
X149514482Y-97634188D01*
X149390000Y-97621928D01*
X148875750Y-97625000D01*
X148717000Y-97783750D01*
X148463000Y-97783750D01*
X148304250Y-97625000D01*
X147790000Y-97621928D01*
X147665518Y-97634188D01*
X147545820Y-97670498D01*
X147435506Y-97729463D01*
X147338815Y-97808815D01*
X147259463Y-97905506D01*
X147200498Y-98015820D01*
X147164188Y-98135518D01*
X147151928Y-98260000D01*
X145540000Y-98260000D01*
X145540000Y-92672000D01*
X163661928Y-92672000D01*
X163661928Y-94272000D01*
X163674188Y-94396482D01*
X163710498Y-94516180D01*
X163769463Y-94626494D01*
X163848815Y-94723185D01*
X163945506Y-94802537D01*
X164055820Y-94861502D01*
X164175518Y-94897812D01*
X164300000Y-94910072D01*
X165900000Y-94910072D01*
X166024482Y-94897812D01*
X166144180Y-94861502D01*
X166254494Y-94802537D01*
X166351185Y-94723185D01*
X166430537Y-94626494D01*
X166489502Y-94516180D01*
X166525812Y-94396482D01*
X166538072Y-94272000D01*
X166538072Y-93330665D01*
X171285000Y-93330665D01*
X171285000Y-93613335D01*
X171340147Y-93890574D01*
X171448320Y-94151727D01*
X171605363Y-94386759D01*
X171805241Y-94586637D01*
X172040273Y-94743680D01*
X172301426Y-94851853D01*
X172578665Y-94907000D01*
X172861335Y-94907000D01*
X173138574Y-94851853D01*
X173399727Y-94743680D01*
X173634759Y-94586637D01*
X173834637Y-94386759D01*
X173991680Y-94151727D01*
X174099853Y-93890574D01*
X174155000Y-93613335D01*
X174155000Y-93330665D01*
X174099853Y-93053426D01*
X173991680Y-92792273D01*
X173834637Y-92557241D01*
X173634759Y-92357363D01*
X173399727Y-92200320D01*
X173138574Y-92092147D01*
X172861335Y-92037000D01*
X172578665Y-92037000D01*
X172301426Y-92092147D01*
X172040273Y-92200320D01*
X171805241Y-92357363D01*
X171605363Y-92557241D01*
X171448320Y-92792273D01*
X171340147Y-93053426D01*
X171285000Y-93330665D01*
X166538072Y-93330665D01*
X166538072Y-92672000D01*
X166525812Y-92547518D01*
X166489502Y-92427820D01*
X166430537Y-92317506D01*
X166351185Y-92220815D01*
X166254494Y-92141463D01*
X166144180Y-92082498D01*
X166024482Y-92046188D01*
X165900000Y-92033928D01*
X164300000Y-92033928D01*
X164175518Y-92046188D01*
X164055820Y-92082498D01*
X163945506Y-92141463D01*
X163848815Y-92220815D01*
X163769463Y-92317506D01*
X163710498Y-92427820D01*
X163674188Y-92547518D01*
X163661928Y-92672000D01*
X145540000Y-92672000D01*
X145540000Y-88198801D01*
X146250136Y-87488665D01*
X163665000Y-87488665D01*
X163665000Y-87771335D01*
X163720147Y-88048574D01*
X163828320Y-88309727D01*
X163985363Y-88544759D01*
X164185241Y-88744637D01*
X164420273Y-88901680D01*
X164681426Y-89009853D01*
X164958665Y-89065000D01*
X165241335Y-89065000D01*
X165518574Y-89009853D01*
X165779727Y-88901680D01*
X166014759Y-88744637D01*
X166214637Y-88544759D01*
X166371680Y-88309727D01*
X166479853Y-88048574D01*
X166535000Y-87771335D01*
X166535000Y-87488665D01*
X166479853Y-87211426D01*
X166371680Y-86950273D01*
X166291317Y-86830000D01*
X171281928Y-86830000D01*
X171281928Y-88430000D01*
X171294188Y-88554482D01*
X171330498Y-88674180D01*
X171389463Y-88784494D01*
X171468815Y-88881185D01*
X171565506Y-88960537D01*
X171675820Y-89019502D01*
X171795518Y-89055812D01*
X171920000Y-89068072D01*
X173520000Y-89068072D01*
X173644482Y-89055812D01*
X173764180Y-89019502D01*
X173874494Y-88960537D01*
X173971185Y-88881185D01*
X174050537Y-88784494D01*
X174109502Y-88674180D01*
X174145812Y-88554482D01*
X174158072Y-88430000D01*
X174158072Y-86830000D01*
X174145812Y-86705518D01*
X174109502Y-86585820D01*
X174050537Y-86475506D01*
X173971185Y-86378815D01*
X173874494Y-86299463D01*
X173764180Y-86240498D01*
X173644482Y-86204188D01*
X173520000Y-86191928D01*
X171920000Y-86191928D01*
X171795518Y-86204188D01*
X171675820Y-86240498D01*
X171565506Y-86299463D01*
X171468815Y-86378815D01*
X171389463Y-86475506D01*
X171330498Y-86585820D01*
X171294188Y-86705518D01*
X171281928Y-86830000D01*
X166291317Y-86830000D01*
X166214637Y-86715241D01*
X166014759Y-86515363D01*
X165779727Y-86358320D01*
X165518574Y-86250147D01*
X165241335Y-86195000D01*
X164958665Y-86195000D01*
X164681426Y-86250147D01*
X164420273Y-86358320D01*
X164185241Y-86515363D01*
X163985363Y-86715241D01*
X163828320Y-86950273D01*
X163720147Y-87211426D01*
X163665000Y-87488665D01*
X146250136Y-87488665D01*
X151721003Y-82017799D01*
X151750001Y-81994001D01*
X151844974Y-81878276D01*
X151915546Y-81746247D01*
X151959003Y-81602986D01*
X151970000Y-81491333D01*
X151970000Y-81491324D01*
X151973676Y-81454001D01*
X151970000Y-81416678D01*
X151970000Y-80378916D01*
X152064988Y-80339571D01*
X152360621Y-80142035D01*
X152612035Y-79890621D01*
X152809571Y-79594988D01*
X152945635Y-79266499D01*
X153015000Y-78917777D01*
X153015000Y-78562223D01*
X154405000Y-78562223D01*
X154405000Y-78917777D01*
X154474365Y-79266499D01*
X154610429Y-79594988D01*
X154807965Y-79890621D01*
X155059379Y-80142035D01*
X155355012Y-80339571D01*
X155683501Y-80475635D01*
X156032223Y-80545000D01*
X156387777Y-80545000D01*
X156736499Y-80475635D01*
X157064988Y-80339571D01*
X157360621Y-80142035D01*
X157612035Y-79890621D01*
X157809571Y-79594988D01*
X157945635Y-79266499D01*
X158015000Y-78917777D01*
X158015000Y-78562223D01*
X157945635Y-78213501D01*
X157809571Y-77885012D01*
X157612035Y-77589379D01*
X157360621Y-77337965D01*
X157064988Y-77140429D01*
X156736499Y-77004365D01*
X156387777Y-76935000D01*
X156032223Y-76935000D01*
X155683501Y-77004365D01*
X155355012Y-77140429D01*
X155059379Y-77337965D01*
X154807965Y-77589379D01*
X154610429Y-77885012D01*
X154474365Y-78213501D01*
X154405000Y-78562223D01*
X153015000Y-78562223D01*
X152945635Y-78213501D01*
X152809571Y-77885012D01*
X152612035Y-77589379D01*
X152360621Y-77337965D01*
X152064988Y-77140429D01*
X151736499Y-77004365D01*
X151387777Y-76935000D01*
X151032223Y-76935000D01*
X150683501Y-77004365D01*
X150355012Y-77140429D01*
X150059379Y-77337965D01*
X149807965Y-77589379D01*
X149610429Y-77885012D01*
X149474365Y-78213501D01*
X149405000Y-78562223D01*
X149405000Y-78917777D01*
X149474365Y-79266499D01*
X149610429Y-79594988D01*
X149807965Y-79890621D01*
X150059379Y-80142035D01*
X150355012Y-80339571D01*
X150450001Y-80378916D01*
X150450001Y-81139197D01*
X144269003Y-87320196D01*
X144239999Y-87343999D01*
X144184871Y-87411174D01*
X144145026Y-87459724D01*
X144129557Y-87488665D01*
X144074454Y-87591754D01*
X144030997Y-87735015D01*
X144020000Y-87846668D01*
X144020000Y-87846678D01*
X144016324Y-87884000D01*
X144020000Y-87921322D01*
X144020001Y-100546668D01*
X144016324Y-100584000D01*
X144020001Y-100621333D01*
X144030998Y-100732986D01*
X144044180Y-100776442D01*
X144074454Y-100876246D01*
X144145026Y-101008276D01*
X144203071Y-101079003D01*
X144240000Y-101124001D01*
X144268998Y-101147799D01*
X145232201Y-102111003D01*
X145255999Y-102140001D01*
X145284997Y-102163799D01*
X145371723Y-102234974D01*
X145458177Y-102281185D01*
X145503753Y-102305546D01*
X145647014Y-102349003D01*
X145758667Y-102360000D01*
X145758677Y-102360000D01*
X145796000Y-102363676D01*
X145833322Y-102360000D01*
X147371957Y-102360000D01*
X147475363Y-102514759D01*
X147675241Y-102714637D01*
X147907759Y-102870000D01*
X147675241Y-103025363D01*
X147475363Y-103225241D01*
X147371957Y-103380000D01*
X146110802Y-103380000D01*
X141279804Y-98549003D01*
X141256001Y-98519999D01*
X141140276Y-98425026D01*
X141008247Y-98354454D01*
X140864986Y-98310997D01*
X140753333Y-98300000D01*
X140753322Y-98300000D01*
X140716000Y-98296324D01*
X140678678Y-98300000D01*
X139648043Y-98300000D01*
X139544637Y-98145241D01*
X139344759Y-97945363D01*
X139109727Y-97788320D01*
X138848574Y-97680147D01*
X138571335Y-97625000D01*
X138288665Y-97625000D01*
X138011426Y-97680147D01*
X137750273Y-97788320D01*
X137515241Y-97945363D01*
X137315363Y-98145241D01*
X137158320Y-98380273D01*
X137050147Y-98641426D01*
X136995000Y-98918665D01*
X129699724Y-98918665D01*
X129668787Y-98709870D01*
X129573603Y-98443708D01*
X129506671Y-98318486D01*
X129262702Y-98246903D01*
X128449605Y-99060000D01*
X128090395Y-99060000D01*
X127277298Y-98246903D01*
X127033329Y-98318486D01*
X126912429Y-98573996D01*
X126843700Y-98848184D01*
X126829783Y-99130512D01*
X121517311Y-99130512D01*
X121518072Y-98830000D01*
X121505812Y-98705518D01*
X121469502Y-98585820D01*
X121410537Y-98475506D01*
X121331185Y-98378815D01*
X121234494Y-98299463D01*
X121124180Y-98240498D01*
X121004482Y-98204188D01*
X120880000Y-98191928D01*
X119665750Y-98195000D01*
X119507000Y-98353750D01*
X119253000Y-98353750D01*
X119094250Y-98195000D01*
X117880000Y-98191928D01*
X117755518Y-98204188D01*
X117635820Y-98240498D01*
X117525506Y-98299463D01*
X117428815Y-98378815D01*
X117349463Y-98475506D01*
X117290498Y-98585820D01*
X117254188Y-98705518D01*
X117241928Y-98830000D01*
X112420000Y-98830000D01*
X112420000Y-98067298D01*
X127456903Y-98067298D01*
X128270000Y-98880395D01*
X129083097Y-98067298D01*
X129011514Y-97823329D01*
X128756004Y-97702429D01*
X128481816Y-97633700D01*
X128199488Y-97619783D01*
X127919870Y-97661213D01*
X127653708Y-97756397D01*
X127528486Y-97823329D01*
X127456903Y-98067298D01*
X112420000Y-98067298D01*
X112420000Y-95039721D01*
X117245000Y-95039721D01*
X117245000Y-95460279D01*
X117327047Y-95872756D01*
X117487988Y-96261302D01*
X117721637Y-96610983D01*
X118019017Y-96908363D01*
X118368698Y-97142012D01*
X118757244Y-97302953D01*
X119169721Y-97385000D01*
X119590279Y-97385000D01*
X120002756Y-97302953D01*
X120391302Y-97142012D01*
X120740983Y-96908363D01*
X121038363Y-96610983D01*
X121272012Y-96261302D01*
X121432953Y-95872756D01*
X121515000Y-95460279D01*
X121515000Y-95039721D01*
X121432953Y-94627244D01*
X121272012Y-94238698D01*
X121038363Y-93889017D01*
X120740983Y-93591637D01*
X120391302Y-93357988D01*
X120002756Y-93197047D01*
X119590279Y-93115000D01*
X119169721Y-93115000D01*
X118757244Y-93197047D01*
X118368698Y-93357988D01*
X118019017Y-93591637D01*
X117721637Y-93889017D01*
X117487988Y-94238698D01*
X117327047Y-94627244D01*
X117245000Y-95039721D01*
X112420000Y-95039721D01*
X112420000Y-93059039D01*
X126878096Y-93059039D01*
X126918754Y-93193087D01*
X127038963Y-93447420D01*
X127206481Y-93673414D01*
X127414869Y-93862385D01*
X127656119Y-94007070D01*
X127920960Y-94101909D01*
X128143000Y-93980624D01*
X128143000Y-92837000D01*
X128397000Y-92837000D01*
X128397000Y-93980624D01*
X128619040Y-94101909D01*
X128883881Y-94007070D01*
X129125131Y-93862385D01*
X129333519Y-93673414D01*
X129501037Y-93447420D01*
X129621246Y-93193087D01*
X129661904Y-93059039D01*
X129539915Y-92837000D01*
X128397000Y-92837000D01*
X128143000Y-92837000D01*
X127000085Y-92837000D01*
X126878096Y-93059039D01*
X112420000Y-93059039D01*
X112420000Y-92360961D01*
X126878096Y-92360961D01*
X127000085Y-92583000D01*
X128143000Y-92583000D01*
X128143000Y-91439376D01*
X128397000Y-91439376D01*
X128397000Y-92583000D01*
X129539915Y-92583000D01*
X129547790Y-92568665D01*
X136995000Y-92568665D01*
X136995000Y-92851335D01*
X137050147Y-93128574D01*
X137158320Y-93389727D01*
X137315363Y-93624759D01*
X137515241Y-93824637D01*
X137750273Y-93981680D01*
X138011426Y-94089853D01*
X138288665Y-94145000D01*
X138571335Y-94145000D01*
X138848574Y-94089853D01*
X139109727Y-93981680D01*
X139344759Y-93824637D01*
X139544637Y-93624759D01*
X139701680Y-93389727D01*
X139809853Y-93128574D01*
X139865000Y-92851335D01*
X139865000Y-92568665D01*
X139809853Y-92291426D01*
X139701680Y-92030273D01*
X139544637Y-91795241D01*
X139344759Y-91595363D01*
X139109727Y-91438320D01*
X138848574Y-91330147D01*
X138571335Y-91275000D01*
X138288665Y-91275000D01*
X138011426Y-91330147D01*
X137750273Y-91438320D01*
X137515241Y-91595363D01*
X137315363Y-91795241D01*
X137158320Y-92030273D01*
X137050147Y-92291426D01*
X136995000Y-92568665D01*
X129547790Y-92568665D01*
X129661904Y-92360961D01*
X129621246Y-92226913D01*
X129501037Y-91972580D01*
X129333519Y-91746586D01*
X129125131Y-91557615D01*
X128883881Y-91412930D01*
X128619040Y-91318091D01*
X128397000Y-91439376D01*
X128143000Y-91439376D01*
X127920960Y-91318091D01*
X127656119Y-91412930D01*
X127414869Y-91557615D01*
X127206481Y-91746586D01*
X127038963Y-91972580D01*
X126918754Y-92226913D01*
X126878096Y-92360961D01*
X112420000Y-92360961D01*
X112420000Y-78540801D01*
X115197500Y-78540801D01*
X115197500Y-78939199D01*
X115275224Y-79329941D01*
X115427684Y-79698013D01*
X115649022Y-80029269D01*
X115930731Y-80310978D01*
X116261987Y-80532316D01*
X116630059Y-80684776D01*
X117020801Y-80762500D01*
X117419199Y-80762500D01*
X117809941Y-80684776D01*
X118178013Y-80532316D01*
X118509269Y-80310978D01*
X118790978Y-80029269D01*
X119012316Y-79698013D01*
X119164776Y-79329941D01*
X119242500Y-78939199D01*
X119242500Y-78540801D01*
X119897500Y-78540801D01*
X119897500Y-78939199D01*
X119975224Y-79329941D01*
X120127684Y-79698013D01*
X120349022Y-80029269D01*
X120630731Y-80310978D01*
X120961987Y-80532316D01*
X121330059Y-80684776D01*
X121720801Y-80762500D01*
X122119199Y-80762500D01*
X122509941Y-80684776D01*
X122878013Y-80532316D01*
X123209269Y-80310978D01*
X123490978Y-80029269D01*
X123712316Y-79698013D01*
X123864776Y-79329941D01*
X123942500Y-78939199D01*
X123942500Y-78540801D01*
X124597500Y-78540801D01*
X124597500Y-78939199D01*
X124675224Y-79329941D01*
X124827684Y-79698013D01*
X125049022Y-80029269D01*
X125330731Y-80310978D01*
X125661987Y-80532316D01*
X126030059Y-80684776D01*
X126420801Y-80762500D01*
X126819199Y-80762500D01*
X127209941Y-80684776D01*
X127578013Y-80532316D01*
X127909269Y-80310978D01*
X128190978Y-80029269D01*
X128412316Y-79698013D01*
X128564776Y-79329941D01*
X128642500Y-78939199D01*
X128642500Y-78540801D01*
X128564776Y-78150059D01*
X128412316Y-77781987D01*
X128190978Y-77450731D01*
X128072247Y-77332000D01*
X133081928Y-77332000D01*
X133081928Y-79132000D01*
X133094188Y-79256482D01*
X133130498Y-79376180D01*
X133189463Y-79486494D01*
X133268815Y-79583185D01*
X133365506Y-79662537D01*
X133475820Y-79721502D01*
X133494127Y-79727056D01*
X133427688Y-79793495D01*
X133259701Y-80044905D01*
X133143989Y-80324257D01*
X133085000Y-80620816D01*
X133085000Y-80923184D01*
X133143989Y-81219743D01*
X133259701Y-81499095D01*
X133427688Y-81750505D01*
X133641495Y-81964312D01*
X133892905Y-82132299D01*
X134172257Y-82248011D01*
X134468816Y-82307000D01*
X134771184Y-82307000D01*
X135067743Y-82248011D01*
X135347095Y-82132299D01*
X135598505Y-81964312D01*
X135812312Y-81750505D01*
X135980299Y-81499095D01*
X136096011Y-81219743D01*
X136155000Y-80923184D01*
X136155000Y-80620816D01*
X136096011Y-80324257D01*
X135980299Y-80044905D01*
X135812312Y-79793495D01*
X135745873Y-79727056D01*
X135764180Y-79721502D01*
X135874494Y-79662537D01*
X135971185Y-79583185D01*
X136050537Y-79486494D01*
X136109502Y-79376180D01*
X136145812Y-79256482D01*
X136158072Y-79132000D01*
X136158072Y-78562223D01*
X144405000Y-78562223D01*
X144405000Y-78917777D01*
X144474365Y-79266499D01*
X144610429Y-79594988D01*
X144807965Y-79890621D01*
X145059379Y-80142035D01*
X145355012Y-80339571D01*
X145683501Y-80475635D01*
X146032223Y-80545000D01*
X146387777Y-80545000D01*
X146736499Y-80475635D01*
X147064988Y-80339571D01*
X147360621Y-80142035D01*
X147612035Y-79890621D01*
X147809571Y-79594988D01*
X147945635Y-79266499D01*
X148015000Y-78917777D01*
X148015000Y-78562223D01*
X147945635Y-78213501D01*
X147809571Y-77885012D01*
X147612035Y-77589379D01*
X147360621Y-77337965D01*
X147064988Y-77140429D01*
X146736499Y-77004365D01*
X146387777Y-76935000D01*
X146032223Y-76935000D01*
X145683501Y-77004365D01*
X145355012Y-77140429D01*
X145059379Y-77337965D01*
X144807965Y-77589379D01*
X144610429Y-77885012D01*
X144474365Y-78213501D01*
X144405000Y-78562223D01*
X136158072Y-78562223D01*
X136158072Y-77332000D01*
X136145812Y-77207518D01*
X136109502Y-77087820D01*
X136050537Y-76977506D01*
X135971185Y-76880815D01*
X135874494Y-76801463D01*
X135764180Y-76742498D01*
X135644482Y-76706188D01*
X135520000Y-76693928D01*
X133720000Y-76693928D01*
X133595518Y-76706188D01*
X133475820Y-76742498D01*
X133365506Y-76801463D01*
X133268815Y-76880815D01*
X133189463Y-76977506D01*
X133130498Y-77087820D01*
X133094188Y-77207518D01*
X133081928Y-77332000D01*
X128072247Y-77332000D01*
X127909269Y-77169022D01*
X127578013Y-76947684D01*
X127209941Y-76795224D01*
X126819199Y-76717500D01*
X126420801Y-76717500D01*
X126030059Y-76795224D01*
X125661987Y-76947684D01*
X125330731Y-77169022D01*
X125049022Y-77450731D01*
X124827684Y-77781987D01*
X124675224Y-78150059D01*
X124597500Y-78540801D01*
X123942500Y-78540801D01*
X123864776Y-78150059D01*
X123712316Y-77781987D01*
X123490978Y-77450731D01*
X123209269Y-77169022D01*
X122878013Y-76947684D01*
X122509941Y-76795224D01*
X122119199Y-76717500D01*
X121720801Y-76717500D01*
X121330059Y-76795224D01*
X120961987Y-76947684D01*
X120630731Y-77169022D01*
X120349022Y-77450731D01*
X120127684Y-77781987D01*
X119975224Y-78150059D01*
X119897500Y-78540801D01*
X119242500Y-78540801D01*
X119164776Y-78150059D01*
X119012316Y-77781987D01*
X118790978Y-77450731D01*
X118509269Y-77169022D01*
X118178013Y-76947684D01*
X117809941Y-76795224D01*
X117419199Y-76717500D01*
X117020801Y-76717500D01*
X116630059Y-76795224D01*
X116261987Y-76947684D01*
X115930731Y-77169022D01*
X115649022Y-77450731D01*
X115427684Y-77781987D01*
X115275224Y-78150059D01*
X115197500Y-78540801D01*
X112420000Y-78540801D01*
X112420000Y-75267117D01*
X176827000Y-75267117D01*
X176827000Y-75608883D01*
X176893675Y-75944081D01*
X177024463Y-76259831D01*
X177214337Y-76543998D01*
X177456002Y-76785663D01*
X177740169Y-76975537D01*
X178055919Y-77106325D01*
X178391117Y-77173000D01*
X178732883Y-77173000D01*
X179068081Y-77106325D01*
X179383831Y-76975537D01*
X179667998Y-76785663D01*
X179909663Y-76543998D01*
X180099537Y-76259831D01*
X180230325Y-75944081D01*
X180297000Y-75608883D01*
X180297000Y-75267117D01*
X180230325Y-74931919D01*
X180099537Y-74616169D01*
X179909663Y-74332002D01*
X179667998Y-74090337D01*
X179383831Y-73900463D01*
X179068081Y-73769675D01*
X178732883Y-73703000D01*
X178391117Y-73703000D01*
X178055919Y-73769675D01*
X177740169Y-73900463D01*
X177456002Y-74090337D01*
X177214337Y-74332002D01*
X177024463Y-74616169D01*
X176893675Y-74931919D01*
X176827000Y-75267117D01*
X112420000Y-75267117D01*
X112420000Y-71780000D01*
X182220000Y-71780000D01*
X182220001Y-125070000D01*
G37*
%TD.AperFunction*%
%TD*%
M02*
