%FSLAX45Y45*%
G04 Gerber Fmt 4.5, Leading zero omitted, Abs format (unit mm)*
G04 Created by KiCad (PCBNEW (5.1.9)-1) date 2022-05-29 14:43:06*
%MOMM*%
%LPD*%
G01*
G04 APERTURE LIST*
%TA.AperFunction,Profile*%
%ADD10C,0.050000*%
%TD*%
%ADD11C,0.200000*%
%ADD12C,0.300000*%
G04 APERTURE END LIST*
D10*
X11176000Y-12573000D02*
X11176000Y-7112000D01*
X18288000Y-12573000D02*
X11176000Y-12573000D01*
X18288000Y-7112000D02*
X18288000Y-12573000D01*
X11176000Y-7112000D02*
X18288000Y-7112000D01*
D11*
X11497800Y-10634200D02*
X11717800Y-10854200D01*
X11717800Y-10634200D02*
X11497800Y-10854200D01*
X17746200Y-7433800D02*
X17966200Y-7653800D01*
X17966200Y-7433800D02*
X17746200Y-7653800D01*
X17746200Y-12031200D02*
X17966200Y-12251200D01*
X17966200Y-12031200D02*
X17746200Y-12251200D01*
D12*
X11459928Y-13041214D02*
X11459928Y-12741214D01*
X11531357Y-12741214D01*
X11574214Y-12755500D01*
X11602786Y-12784071D01*
X11617071Y-12812643D01*
X11631357Y-12869786D01*
X11631357Y-12912643D01*
X11617071Y-12969786D01*
X11602786Y-12998357D01*
X11574214Y-13026929D01*
X11531357Y-13041214D01*
X11459928Y-13041214D01*
X11759928Y-13041214D02*
X11759928Y-12841214D01*
X11759928Y-12898357D02*
X11774214Y-12869786D01*
X11788500Y-12855500D01*
X11817071Y-12841214D01*
X11845643Y-12841214D01*
X11945643Y-13041214D02*
X11945643Y-12841214D01*
X11945643Y-12741214D02*
X11931357Y-12755500D01*
X11945643Y-12769786D01*
X11959928Y-12755500D01*
X11945643Y-12741214D01*
X11945643Y-12769786D01*
X12131357Y-13041214D02*
X12102786Y-13026929D01*
X12088500Y-12998357D01*
X12088500Y-12741214D01*
X12288500Y-13041214D02*
X12259928Y-13026929D01*
X12245643Y-12998357D01*
X12245643Y-12741214D01*
X12631357Y-13041214D02*
X12631357Y-12741214D01*
X12731357Y-12955500D01*
X12831357Y-12741214D01*
X12831357Y-13041214D01*
X13102786Y-13041214D02*
X13102786Y-12884071D01*
X13088500Y-12855500D01*
X13059928Y-12841214D01*
X13002786Y-12841214D01*
X12974214Y-12855500D01*
X13102786Y-13026929D02*
X13074214Y-13041214D01*
X13002786Y-13041214D01*
X12974214Y-13026929D01*
X12959928Y-12998357D01*
X12959928Y-12969786D01*
X12974214Y-12941214D01*
X13002786Y-12926929D01*
X13074214Y-12926929D01*
X13102786Y-12912643D01*
X13245643Y-12841214D02*
X13245643Y-13141214D01*
X13245643Y-12855500D02*
X13274214Y-12841214D01*
X13331357Y-12841214D01*
X13359928Y-12855500D01*
X13374214Y-12869786D01*
X13388500Y-12898357D01*
X13388500Y-12984071D01*
X13374214Y-13012643D01*
X13359928Y-13026929D01*
X13331357Y-13041214D01*
X13274214Y-13041214D01*
X13245643Y-13026929D01*
X13517071Y-13012643D02*
X13531357Y-13026929D01*
X13517071Y-13041214D01*
X13502786Y-13026929D01*
X13517071Y-13012643D01*
X13517071Y-13041214D01*
X13517071Y-12855500D02*
X13531357Y-12869786D01*
X13517071Y-12884071D01*
X13502786Y-12869786D01*
X13517071Y-12855500D01*
X13517071Y-12884071D01*
X10953500Y-13425500D02*
X11173500Y-13645500D01*
X11173500Y-13425500D02*
X10953500Y-13645500D01*
X11445643Y-13399786D02*
X11459928Y-13385500D01*
X11488500Y-13371214D01*
X11559928Y-13371214D01*
X11588500Y-13385500D01*
X11602786Y-13399786D01*
X11617071Y-13428357D01*
X11617071Y-13456929D01*
X11602786Y-13499786D01*
X11431357Y-13671214D01*
X11617071Y-13671214D01*
X11745643Y-13642643D02*
X11759928Y-13656929D01*
X11745643Y-13671214D01*
X11731357Y-13656929D01*
X11745643Y-13642643D01*
X11745643Y-13671214D01*
X11874214Y-13399786D02*
X11888500Y-13385500D01*
X11917071Y-13371214D01*
X11988500Y-13371214D01*
X12017071Y-13385500D01*
X12031357Y-13399786D01*
X12045643Y-13428357D01*
X12045643Y-13456929D01*
X12031357Y-13499786D01*
X11859928Y-13671214D01*
X12045643Y-13671214D01*
X12231357Y-13371214D02*
X12259928Y-13371214D01*
X12288500Y-13385500D01*
X12302786Y-13399786D01*
X12317071Y-13428357D01*
X12331357Y-13485500D01*
X12331357Y-13556929D01*
X12317071Y-13614071D01*
X12302786Y-13642643D01*
X12288500Y-13656929D01*
X12259928Y-13671214D01*
X12231357Y-13671214D01*
X12202786Y-13656929D01*
X12188500Y-13642643D01*
X12174214Y-13614071D01*
X12159928Y-13556929D01*
X12159928Y-13485500D01*
X12174214Y-13428357D01*
X12188500Y-13399786D01*
X12202786Y-13385500D01*
X12231357Y-13371214D01*
X12459928Y-13671214D02*
X12459928Y-13471214D01*
X12459928Y-13499786D02*
X12474214Y-13485500D01*
X12502786Y-13471214D01*
X12545643Y-13471214D01*
X12574214Y-13485500D01*
X12588500Y-13514071D01*
X12588500Y-13671214D01*
X12588500Y-13514071D02*
X12602786Y-13485500D01*
X12631357Y-13471214D01*
X12674214Y-13471214D01*
X12702786Y-13485500D01*
X12717071Y-13514071D01*
X12717071Y-13671214D01*
X12859928Y-13671214D02*
X12859928Y-13471214D01*
X12859928Y-13499786D02*
X12874214Y-13485500D01*
X12902786Y-13471214D01*
X12945643Y-13471214D01*
X12974214Y-13485500D01*
X12988500Y-13514071D01*
X12988500Y-13671214D01*
X12988500Y-13514071D02*
X13002786Y-13485500D01*
X13031357Y-13471214D01*
X13074214Y-13471214D01*
X13102786Y-13485500D01*
X13117071Y-13514071D01*
X13117071Y-13671214D01*
X13702786Y-13356929D02*
X13445643Y-13742643D01*
X14088500Y-13371214D02*
X14117071Y-13371214D01*
X14145643Y-13385500D01*
X14159928Y-13399786D01*
X14174214Y-13428357D01*
X14188500Y-13485500D01*
X14188500Y-13556929D01*
X14174214Y-13614071D01*
X14159928Y-13642643D01*
X14145643Y-13656929D01*
X14117071Y-13671214D01*
X14088500Y-13671214D01*
X14059928Y-13656929D01*
X14045643Y-13642643D01*
X14031357Y-13614071D01*
X14017071Y-13556929D01*
X14017071Y-13485500D01*
X14031357Y-13428357D01*
X14045643Y-13399786D01*
X14059928Y-13385500D01*
X14088500Y-13371214D01*
X14317071Y-13642643D02*
X14331357Y-13656929D01*
X14317071Y-13671214D01*
X14302786Y-13656929D01*
X14317071Y-13642643D01*
X14317071Y-13671214D01*
X14517071Y-13371214D02*
X14545643Y-13371214D01*
X14574214Y-13385500D01*
X14588500Y-13399786D01*
X14602786Y-13428357D01*
X14617071Y-13485500D01*
X14617071Y-13556929D01*
X14602786Y-13614071D01*
X14588500Y-13642643D01*
X14574214Y-13656929D01*
X14545643Y-13671214D01*
X14517071Y-13671214D01*
X14488500Y-13656929D01*
X14474214Y-13642643D01*
X14459928Y-13614071D01*
X14445643Y-13556929D01*
X14445643Y-13485500D01*
X14459928Y-13428357D01*
X14474214Y-13399786D01*
X14488500Y-13385500D01*
X14517071Y-13371214D01*
X14788500Y-13499786D02*
X14759928Y-13485500D01*
X14745643Y-13471214D01*
X14731357Y-13442643D01*
X14731357Y-13428357D01*
X14745643Y-13399786D01*
X14759928Y-13385500D01*
X14788500Y-13371214D01*
X14845643Y-13371214D01*
X14874214Y-13385500D01*
X14888500Y-13399786D01*
X14902786Y-13428357D01*
X14902786Y-13442643D01*
X14888500Y-13471214D01*
X14874214Y-13485500D01*
X14845643Y-13499786D01*
X14788500Y-13499786D01*
X14759928Y-13514071D01*
X14745643Y-13528357D01*
X14731357Y-13556929D01*
X14731357Y-13614071D01*
X14745643Y-13642643D01*
X14759928Y-13656929D01*
X14788500Y-13671214D01*
X14845643Y-13671214D01*
X14874214Y-13656929D01*
X14888500Y-13642643D01*
X14902786Y-13614071D01*
X14902786Y-13556929D01*
X14888500Y-13528357D01*
X14874214Y-13514071D01*
X14845643Y-13499786D01*
X15002786Y-13371214D02*
X15202786Y-13371214D01*
X15074214Y-13671214D01*
X15302786Y-13371214D02*
X15302786Y-13428357D01*
X15417071Y-13371214D02*
X15417071Y-13428357D01*
X15859928Y-13785500D02*
X15845643Y-13771214D01*
X15817071Y-13728357D01*
X15802786Y-13699786D01*
X15788500Y-13656929D01*
X15774214Y-13585500D01*
X15774214Y-13528357D01*
X15788500Y-13456929D01*
X15802786Y-13414071D01*
X15817071Y-13385500D01*
X15845643Y-13342643D01*
X15859928Y-13328357D01*
X15945643Y-13371214D02*
X16131357Y-13371214D01*
X16031357Y-13485500D01*
X16074214Y-13485500D01*
X16102786Y-13499786D01*
X16117071Y-13514071D01*
X16131357Y-13542643D01*
X16131357Y-13614071D01*
X16117071Y-13642643D01*
X16102786Y-13656929D01*
X16074214Y-13671214D01*
X15988500Y-13671214D01*
X15959928Y-13656929D01*
X15945643Y-13642643D01*
X16488500Y-13671214D02*
X16488500Y-13371214D01*
X16617071Y-13671214D02*
X16617071Y-13514071D01*
X16602786Y-13485500D01*
X16574214Y-13471214D01*
X16531357Y-13471214D01*
X16502786Y-13485500D01*
X16488500Y-13499786D01*
X16802786Y-13671214D02*
X16774214Y-13656929D01*
X16759928Y-13642643D01*
X16745643Y-13614071D01*
X16745643Y-13528357D01*
X16759928Y-13499786D01*
X16774214Y-13485500D01*
X16802786Y-13471214D01*
X16845643Y-13471214D01*
X16874214Y-13485500D01*
X16888500Y-13499786D01*
X16902786Y-13528357D01*
X16902786Y-13614071D01*
X16888500Y-13642643D01*
X16874214Y-13656929D01*
X16845643Y-13671214D01*
X16802786Y-13671214D01*
X17074214Y-13671214D02*
X17045643Y-13656929D01*
X17031357Y-13628357D01*
X17031357Y-13371214D01*
X17302786Y-13656929D02*
X17274214Y-13671214D01*
X17217071Y-13671214D01*
X17188500Y-13656929D01*
X17174214Y-13628357D01*
X17174214Y-13514071D01*
X17188500Y-13485500D01*
X17217071Y-13471214D01*
X17274214Y-13471214D01*
X17302786Y-13485500D01*
X17317071Y-13514071D01*
X17317071Y-13542643D01*
X17174214Y-13571214D01*
X17431357Y-13656929D02*
X17459928Y-13671214D01*
X17517071Y-13671214D01*
X17545643Y-13656929D01*
X17559928Y-13628357D01*
X17559928Y-13614071D01*
X17545643Y-13585500D01*
X17517071Y-13571214D01*
X17474214Y-13571214D01*
X17445643Y-13556929D01*
X17431357Y-13528357D01*
X17431357Y-13514071D01*
X17445643Y-13485500D01*
X17474214Y-13471214D01*
X17517071Y-13471214D01*
X17545643Y-13485500D01*
X17659928Y-13785500D02*
X17674214Y-13771214D01*
X17702786Y-13728357D01*
X17717071Y-13699786D01*
X17731357Y-13656929D01*
X17745643Y-13585500D01*
X17745643Y-13528357D01*
X17731357Y-13456929D01*
X17717071Y-13414071D01*
X17702786Y-13385500D01*
X17674214Y-13342643D01*
X17659928Y-13328357D01*
X18202786Y-13785500D02*
X18188500Y-13771214D01*
X18159928Y-13728357D01*
X18145643Y-13699786D01*
X18131357Y-13656929D01*
X18117071Y-13585500D01*
X18117071Y-13528357D01*
X18131357Y-13456929D01*
X18145643Y-13414071D01*
X18159928Y-13385500D01*
X18188500Y-13342643D01*
X18202786Y-13328357D01*
X18317071Y-13471214D02*
X18317071Y-13671214D01*
X18317071Y-13499786D02*
X18331357Y-13485500D01*
X18359928Y-13471214D01*
X18402786Y-13471214D01*
X18431357Y-13485500D01*
X18445643Y-13514071D01*
X18445643Y-13671214D01*
X18631357Y-13671214D02*
X18602786Y-13656929D01*
X18588500Y-13642643D01*
X18574214Y-13614071D01*
X18574214Y-13528357D01*
X18588500Y-13499786D01*
X18602786Y-13485500D01*
X18631357Y-13471214D01*
X18674214Y-13471214D01*
X18702786Y-13485500D01*
X18717071Y-13499786D01*
X18731357Y-13528357D01*
X18731357Y-13614071D01*
X18717071Y-13642643D01*
X18702786Y-13656929D01*
X18674214Y-13671214D01*
X18631357Y-13671214D01*
X18817071Y-13471214D02*
X18931357Y-13471214D01*
X18859928Y-13371214D02*
X18859928Y-13628357D01*
X18874214Y-13656929D01*
X18902786Y-13671214D01*
X18931357Y-13671214D01*
X19259928Y-13471214D02*
X19259928Y-13771214D01*
X19259928Y-13485500D02*
X19288500Y-13471214D01*
X19345643Y-13471214D01*
X19374214Y-13485500D01*
X19388500Y-13499786D01*
X19402786Y-13528357D01*
X19402786Y-13614071D01*
X19388500Y-13642643D01*
X19374214Y-13656929D01*
X19345643Y-13671214D01*
X19288500Y-13671214D01*
X19259928Y-13656929D01*
X19574214Y-13671214D02*
X19545643Y-13656929D01*
X19531357Y-13628357D01*
X19531357Y-13371214D01*
X19817071Y-13671214D02*
X19817071Y-13514071D01*
X19802786Y-13485500D01*
X19774214Y-13471214D01*
X19717071Y-13471214D01*
X19688500Y-13485500D01*
X19817071Y-13656929D02*
X19788500Y-13671214D01*
X19717071Y-13671214D01*
X19688500Y-13656929D01*
X19674214Y-13628357D01*
X19674214Y-13599786D01*
X19688500Y-13571214D01*
X19717071Y-13556929D01*
X19788500Y-13556929D01*
X19817071Y-13542643D01*
X19917071Y-13471214D02*
X20031357Y-13471214D01*
X19959928Y-13371214D02*
X19959928Y-13628357D01*
X19974214Y-13656929D01*
X20002786Y-13671214D01*
X20031357Y-13671214D01*
X20245643Y-13656929D02*
X20217071Y-13671214D01*
X20159928Y-13671214D01*
X20131357Y-13656929D01*
X20117071Y-13628357D01*
X20117071Y-13514071D01*
X20131357Y-13485500D01*
X20159928Y-13471214D01*
X20217071Y-13471214D01*
X20245643Y-13485500D01*
X20259928Y-13514071D01*
X20259928Y-13542643D01*
X20117071Y-13571214D01*
X20517071Y-13671214D02*
X20517071Y-13371214D01*
X20517071Y-13656929D02*
X20488500Y-13671214D01*
X20431357Y-13671214D01*
X20402786Y-13656929D01*
X20388500Y-13642643D01*
X20374214Y-13614071D01*
X20374214Y-13528357D01*
X20388500Y-13499786D01*
X20402786Y-13485500D01*
X20431357Y-13471214D01*
X20488500Y-13471214D01*
X20517071Y-13485500D01*
X20631357Y-13785500D02*
X20645643Y-13771214D01*
X20674214Y-13728357D01*
X20688500Y-13699786D01*
X20702786Y-13656929D01*
X20717071Y-13585500D01*
X20717071Y-13528357D01*
X20702786Y-13456929D01*
X20688500Y-13414071D01*
X20674214Y-13385500D01*
X20645643Y-13342643D01*
X20631357Y-13328357D01*
M02*
