M48
; DRILL file {KiCad (5.1.9)-1} date 05/29/22 14:43:05
; FORMAT={-:-/ absolute / metric / decimal}
; #@! TF.CreationDate,2022-05-29T14:43:05-04:00
; #@! TF.GenerationSoftware,Kicad,Pcbnew,(5.1.9)-1
; #@! TF.FileFunction,Plated,1,2,PTH
FMAT,2
METRIC
T1C0.800
T2C0.900
T3C1.100
T4C1.300
T5C1.380
T6C1.520
T7C1.850
%
G90
G05
T1
X128.27Y-92.71
X128.27Y-99.06
X128.27Y-119.38
X132.12Y-105.41
X132.12Y-111.76
X134.62Y-105.41
X134.62Y-111.76
X138.43Y-92.71
X138.43Y-99.06
X138.43Y-119.38
X148.59Y-99.06
X148.59Y-101.6
X148.59Y-104.14
X148.59Y-106.68
X156.21Y-99.06
X156.21Y-101.6
X156.21Y-104.14
X156.21Y-106.68
X164.084Y-100.33
X165.1Y-87.63
X165.1Y-93.472
X172.72Y-87.63
X172.72Y-93.472
X174.244Y-100.33
T2
X134.62Y-78.232
X134.62Y-80.772
T3
X166.37Y-106.68
X166.37Y-116.84
T4
X146.21Y-78.74
X151.21Y-78.74
X156.21Y-78.74
T5
X119.38Y-114.3
X119.38Y-116.84
X119.38Y-119.38
T6
X119.38Y-95.25
X119.38Y-100.33
X175.26Y-109.22
X175.26Y-114.3
T7
X117.22Y-78.74
X121.92Y-78.74
X126.62Y-78.74
T0
M30
